<svg xmlns="http://www.w3.org/2000/svg" width="20" height="20" viewBox="0 0 20 20">
  <path d="M10,0A10,10,0,1,0,20,10,10,10,0,0,0,10,0Zm5.57,6.583a.279.279,0,0,1-.058.174,4.308,4.308,0,0,1-.872.906c-.049.038-.132.076-.132.147a6.724,6.724,0,0,1-1.773,4.9,6.6,6.6,0,0,1-6.406,1.5,6.085,6.085,0,0,1-1.239-.5c-.131-.071-.26-.145-.386-.229-.032-.025-.056-.049-.029-.066s.048-.015.148,0a4.372,4.372,0,0,0,1.853-.237A2.833,2.833,0,0,0,7.9,12.537c0-.007.009-.007.014-.014-.081-.019-.162-.019-.243-.034a2.389,2.389,0,0,1-1.787-1.5c-.024-.059,0-.09.062-.078a2.558,2.558,0,0,0,.85-.027,1.331,1.331,0,0,1-.288-.088,2.3,2.3,0,0,1-1.42-1.837,1.333,1.333,0,0,1-.014-.257c0-.06.031-.079.083-.045a2.283,2.283,0,0,0,.867.242c-.1-.076-.188-.159-.276-.242a2.279,2.279,0,0,1-.388-2.693c.043-.064.071-.064.124,0A6.981,6.981,0,0,0,9.974,8.251c.048.007.052,0,.045-.053a2.413,2.413,0,0,1,.024-.939,2.278,2.278,0,0,1,.444-.889,2.379,2.379,0,0,1,.744-.608,2.337,2.337,0,0,1,.921-.26,2.214,2.214,0,0,1,.972.157,2.319,2.319,0,0,1,.633.388.982.982,0,0,1,.115.117.088.088,0,0,0,.09.024,5.62,5.62,0,0,0,1.308-.5.065.065,0,0,1,.058,0c.019.015.012.039,0,.058a2.043,2.043,0,0,1-.366.667c-.105.13-.365.451-.543.481a4.533,4.533,0,0,0,1.1-.314c.044-.021.045-.029.045,0Z" fill="#a57d01"/>
</svg>
