<svg xmlns="http://www.w3.org/2000/svg" width="20" height="20" viewBox="0 0 20 20">
  <g>
    <path d="M12.34,5.227H7.659A2.421,2.421,0,0,0,5.24,7.645v4.682a2.421,2.421,0,0,0,2.419,2.418H12.34a2.421,2.421,0,0,0,2.419-2.418V7.645A2.421,2.421,0,0,0,12.34,5.227Zm-2.292,7.647a2.888,2.888,0,1,1,2.887-2.888A2.891,2.891,0,0,1,10.048,12.874ZM13.1,7.592a.688.688,0,1,1,.687-.688A.687.687,0,0,1,13.1,7.592Z" fill="#a57d01"/>
    <path d="M10.048,8.136a1.85,1.85,0,1,0,1.85,1.85A1.852,1.852,0,0,0,10.048,8.136Z" fill="#a57d01"/>
    <path d="M10,0A10,10,0,1,0,20,10,10,10,0,0,0,10,0Zm5.862,12.327a3.526,3.526,0,0,1-3.522,3.522H7.659a3.526,3.526,0,0,1-3.522-3.522V7.645A3.526,3.526,0,0,1,7.659,4.123H12.34a3.526,3.526,0,0,1,3.522,3.522Z" fill="#a57d01"/>
  </g>
</svg>
