<svg xmlns="http://www.w3.org/2000/svg" width="80" height="80" viewBox="0 0 80 80">
  <g>
    <rect x="2" y="27" width="1" height="1" fill="#a57d01"/>
    <rect x="2" y="28" width="1" height="1" fill="#a57d01"/>
    <rect x="2" y="29" width="1" height="1" fill="#a57d01"/>
    <rect x="3" y="27" width="1" height="1" fill="#a57d01"/>
    <rect x="3" y="28" width="1" height="1" fill="#a57d01"/>
    <rect x="3" y="29" width="1" height="1" fill="#a57d01"/>
    <rect x="4" y="27" width="1" height="1" fill="#a57d01"/>
    <rect x="4" y="28" width="1" height="1" fill="#a57d01"/>
    <rect x="4" y="29" width="1" height="1" fill="#a57d01"/>
    <rect x="5" y="27" width="1" height="1" fill="#a57d01"/>
    <rect x="5" y="28" width="1" height="1" fill="#a57d01"/>
    <rect x="5" y="29" width="1" height="1" fill="#a57d01"/>
    <rect x="6" y="27" width="1" height="1" fill="#a57d01"/>
    <rect x="6" y="28" width="1" height="1" fill="#a57d01"/>
    <rect x="6" y="29" width="1" height="1" fill="#a57d01"/>
    <rect x="7" y="27" width="1" height="1" fill="#a57d01"/>
    <rect x="7" y="28" width="1" height="1" fill="#a57d01"/>
    <rect x="7" y="29" width="1" height="1" fill="#a57d01"/>
    <rect x="8" y="27" width="1" height="1" fill="#a57d01"/>
    <rect x="8" y="28" width="1" height="1" fill="#a57d01"/>
    <rect x="8" y="29" width="1" height="1" fill="#a57d01"/>
    <rect x="9" y="27" width="1" height="1" fill="#a57d01"/>
    <rect x="9" y="28" width="1" height="1" fill="#a57d01"/>
    <rect x="9" y="29" width="1" height="1" fill="#a57d01"/>
    <rect x="10" y="27" width="1" height="1" fill="#a57d01"/>
    <rect x="10" y="28" width="1" height="1" fill="#a57d01"/>
    <rect x="10" y="29" width="1" height="1" fill="#a57d01"/>
    <rect x="11" y="27" width="1" height="1" fill="#a57d01"/>
    <rect x="11" y="28" width="1" height="1" fill="#a57d01"/>
    <rect x="11" y="29" width="1" height="1" fill="#a57d01"/>
    <rect x="12" y="27" width="1" height="1" fill="#a57d01"/>
    <rect x="12" y="28" width="1" height="1" fill="#a57d01"/>
    <rect x="12" y="29" width="1" height="1" fill="#a57d01"/>
    <rect x="13" y="27" width="1" height="1" fill="#a57d01"/>
    <rect x="13" y="28" width="1" height="1" fill="#a57d01"/>
    <rect x="13" y="29" width="1" height="1" fill="#a57d01"/>
    <rect x="10" y="30" width="1" height="1" fill="#a57d01"/>
    <rect x="11" y="30" width="1" height="1" fill="#a57d01"/>
    <rect x="12" y="30" width="1" height="1" fill="#a57d01"/>
    <rect x="13" y="30" width="1" height="1" fill="#a57d01"/>
    <rect x="10" y="31" width="1" height="1" fill="#a57d01"/>
    <rect x="11" y="31" width="1" height="1" fill="#a57d01"/>
    <rect x="12" y="31" width="1" height="1" fill="#a57d01"/>
    <rect x="13" y="31" width="1" height="1" fill="#a57d01"/>
    <rect x="10" y="32" width="1" height="1" fill="#a57d01"/>
    <rect x="11" y="32" width="1" height="1" fill="#a57d01"/>
    <rect x="12" y="32" width="1" height="1" fill="#a57d01"/>
    <rect x="13" y="32" width="1" height="1" fill="#a57d01"/>
    <rect x="19" y="32" width="1" height="1" fill="#a57d01"/>
    <rect x="20" y="32" width="1" height="1" fill="#a57d01"/>
    <rect x="21" y="32" width="1" height="1" fill="#a57d01"/>
    <rect x="21" y="25" width="1" height="1" fill="#a57d01"/>
    <rect x="20" y="25" width="1" height="1" fill="#a57d01"/>
    <rect x="20" y="26" width="1" height="1" fill="#a57d01"/>
    <rect x="19" y="26" width="1" height="1" fill="#a57d01"/>
    <rect x="22" y="26" width="1" height="1" fill="#a57d01"/>
    <rect x="21" y="26" width="1" height="1" fill="#a57d01"/>
    <rect x="20" y="27" width="1" height="1" fill="#a57d01"/>
    <rect x="19" y="27" width="1" height="1" fill="#a57d01"/>
    <rect x="22" y="27" width="1" height="1" fill="#a57d01"/>
    <rect x="21" y="27" width="1" height="1" fill="#a57d01"/>
    <rect x="20" y="28" width="1" height="1" fill="#a57d01"/>
    <rect x="19" y="28" width="1" height="1" fill="#a57d01"/>
    <rect x="22" y="28" width="1" height="1" fill="#a57d01"/>
    <rect x="21" y="28" width="1" height="1" fill="#a57d01"/>
    <rect x="20" y="29" width="1" height="1" fill="#a57d01"/>
    <rect x="21" y="29" width="1" height="1" fill="#a57d01"/>
    <rect x="22" y="32" width="1" height="1" fill="#a57d01"/>
    <rect x="19" y="33" width="1" height="1" fill="#a57d01"/>
    <rect x="20" y="33" width="1" height="1" fill="#a57d01"/>
    <rect x="21" y="33" width="1" height="1" fill="#a57d01"/>
    <rect x="22" y="33" width="1" height="1" fill="#a57d01"/>
    <rect x="19" y="34" width="1" height="1" fill="#a57d01"/>
    <rect x="20" y="34" width="1" height="1" fill="#a57d01"/>
    <rect x="21" y="34" width="1" height="1" fill="#a57d01"/>
    <rect x="22" y="34" width="1" height="1" fill="#a57d01"/>
    <rect x="19" y="35" width="1" height="1" fill="#a57d01"/>
    <rect x="20" y="35" width="1" height="1" fill="#a57d01"/>
    <rect x="21" y="35" width="1" height="1" fill="#a57d01"/>
    <rect x="22" y="35" width="1" height="1" fill="#a57d01"/>
    <rect x="19" y="36" width="1" height="1" fill="#a57d01"/>
    <rect x="20" y="36" width="1" height="1" fill="#a57d01"/>
    <rect x="21" y="36" width="1" height="1" fill="#a57d01"/>
    <rect x="22" y="36" width="1" height="1" fill="#a57d01"/>
    <rect x="19" y="37" width="1" height="1" fill="#a57d01"/>
    <rect x="20" y="37" width="1" height="1" fill="#a57d01"/>
    <rect x="21" y="37" width="1" height="1" fill="#a57d01"/>
    <rect x="22" y="37" width="1" height="1" fill="#a57d01"/>
    <rect x="19" y="38" width="1" height="1" fill="#a57d01"/>
    <rect x="20" y="38" width="1" height="1" fill="#a57d01"/>
    <rect x="21" y="38" width="1" height="1" fill="#a57d01"/>
    <rect x="22" y="38" width="1" height="1" fill="#a57d01"/>
    <rect x="19" y="39" width="1" height="1" fill="#a57d01"/>
    <rect x="20" y="39" width="1" height="1" fill="#a57d01"/>
    <rect x="21" y="39" width="1" height="1" fill="#a57d01"/>
    <rect x="22" y="39" width="1" height="1" fill="#a57d01"/>
    <rect x="19" y="40" width="1" height="1" fill="#a57d01"/>
    <rect x="20" y="40" width="1" height="1" fill="#a57d01"/>
    <rect x="21" y="40" width="1" height="1" fill="#a57d01"/>
    <rect x="22" y="40" width="1" height="1" fill="#a57d01"/>
    <rect x="19" y="41" width="1" height="1" fill="#a57d01"/>
    <rect x="20" y="41" width="1" height="1" fill="#a57d01"/>
    <rect x="21" y="41" width="1" height="1" fill="#a57d01"/>
    <rect x="22" y="41" width="1" height="1" fill="#a57d01"/>
    <rect x="19" y="42" width="1" height="1" fill="#a57d01"/>
    <rect x="20" y="42" width="1" height="1" fill="#a57d01"/>
    <rect x="21" y="42" width="1" height="1" fill="#a57d01"/>
    <rect x="22" y="42" width="1" height="1" fill="#a57d01"/>
    <rect x="19" y="43" width="1" height="1" fill="#a57d01"/>
    <rect x="20" y="43" width="1" height="1" fill="#a57d01"/>
    <rect x="21" y="43" width="1" height="1" fill="#a57d01"/>
    <rect x="22" y="43" width="1" height="1" fill="#a57d01"/>
    <rect x="19" y="44" width="1" height="1" fill="#a57d01"/>
    <rect x="20" y="44" width="1" height="1" fill="#a57d01"/>
    <rect x="21" y="44" width="1" height="1" fill="#a57d01"/>
    <rect x="22" y="44" width="1" height="1" fill="#a57d01"/>
    <rect x="19" y="45" width="1" height="1" fill="#a57d01"/>
    <rect x="20" y="45" width="1" height="1" fill="#a57d01"/>
    <rect x="21" y="45" width="1" height="1" fill="#a57d01"/>
    <rect x="22" y="45" width="1" height="1" fill="#a57d01"/>
    <rect x="19" y="46" width="1" height="1" fill="#a57d01"/>
    <rect x="20" y="46" width="1" height="1" fill="#a57d01"/>
    <rect x="21" y="46" width="1" height="1" fill="#a57d01"/>
    <rect x="22" y="46" width="1" height="1" fill="#a57d01"/>
    <rect x="19" y="47" width="1" height="1" fill="#a57d01"/>
    <rect x="20" y="47" width="1" height="1" fill="#a57d01"/>
    <rect x="21" y="47" width="1" height="1" fill="#a57d01"/>
    <rect x="22" y="47" width="1" height="1" fill="#a57d01"/>
    <rect x="19" y="48" width="1" height="1" fill="#a57d01"/>
    <rect x="20" y="48" width="1" height="1" fill="#a57d01"/>
    <rect x="21" y="48" width="1" height="1" fill="#a57d01"/>
    <rect x="22" y="48" width="1" height="1" fill="#a57d01"/>
    <rect x="30" y="48" width="1" height="1" fill="#a57d01"/>
    <rect x="31" y="48" width="1" height="1" fill="#a57d01"/>
    <rect x="32" y="48" width="1" height="1" fill="#a57d01"/>
    <rect x="33" y="48" width="1" height="1" fill="#a57d01"/>
    <rect x="30" y="47" width="1" height="1" fill="#a57d01"/>
    <rect x="31" y="47" width="1" height="1" fill="#a57d01"/>
    <rect x="32" y="47" width="1" height="1" fill="#a57d01"/>
    <rect x="33" y="47" width="1" height="1" fill="#a57d01"/>
    <rect x="30" y="46" width="1" height="1" fill="#a57d01"/>
    <rect x="31" y="46" width="1" height="1" fill="#a57d01"/>
    <rect x="32" y="46" width="1" height="1" fill="#a57d01"/>
    <rect x="33" y="46" width="1" height="1" fill="#a57d01"/>
    <rect x="30" y="45" width="1" height="1" fill="#a57d01"/>
    <rect x="31" y="45" width="1" height="1" fill="#a57d01"/>
    <rect x="32" y="45" width="1" height="1" fill="#a57d01"/>
    <rect x="33" y="45" width="1" height="1" fill="#a57d01"/>
    <rect x="30" y="44" width="1" height="1" fill="#a57d01"/>
    <rect x="31" y="44" width="1" height="1" fill="#a57d01"/>
    <rect x="32" y="44" width="1" height="1" fill="#a57d01"/>
    <rect x="33" y="44" width="1" height="1" fill="#a57d01"/>
    <rect x="30" y="43" width="1" height="1" fill="#a57d01"/>
    <rect x="31" y="43" width="1" height="1" fill="#a57d01"/>
    <rect x="32" y="43" width="1" height="1" fill="#a57d01"/>
    <rect x="33" y="43" width="1" height="1" fill="#a57d01"/>
    <rect x="30" y="42" width="1" height="1" fill="#a57d01"/>
    <rect x="31" y="42" width="1" height="1" fill="#a57d01"/>
    <rect x="32" y="42" width="1" height="1" fill="#a57d01"/>
    <rect x="33" y="42" width="1" height="1" fill="#a57d01"/>
    <rect x="30" y="41" width="1" height="1" fill="#a57d01"/>
    <rect x="31" y="41" width="1" height="1" fill="#a57d01"/>
    <rect x="32" y="41" width="1" height="1" fill="#a57d01"/>
    <rect x="33" y="41" width="1" height="1" fill="#a57d01"/>
    <rect x="30" y="40" width="1" height="1" fill="#a57d01"/>
    <rect x="31" y="40" width="1" height="1" fill="#a57d01"/>
    <rect x="32" y="40" width="1" height="1" fill="#a57d01"/>
    <rect x="33" y="40" width="1" height="1" fill="#a57d01"/>
    <rect x="30" y="39" width="1" height="1" fill="#a57d01"/>
    <rect x="31" y="39" width="1" height="1" fill="#a57d01"/>
    <rect x="32" y="39" width="1" height="1" fill="#a57d01"/>
    <rect x="33" y="39" width="1" height="1" fill="#a57d01"/>
    <rect x="30" y="38" width="1" height="1" fill="#a57d01"/>
    <rect x="31" y="38" width="1" height="1" fill="#a57d01"/>
    <rect x="32" y="38" width="1" height="1" fill="#a57d01"/>
    <rect x="33" y="38" width="1" height="1" fill="#a57d01"/>
    <rect x="30" y="37" width="1" height="1" fill="#a57d01"/>
    <rect x="29" y="38" width="1" height="1" fill="#a57d01"/>
    <rect x="29" y="37" width="1" height="1" fill="#a57d01"/>
    <rect x="28" y="38" width="1" height="1" fill="#a57d01"/>
    <rect x="28" y="37" width="1" height="1" fill="#a57d01"/>
    <rect x="31" y="37" width="1" height="1" fill="#a57d01"/>
    <rect x="32" y="37" width="1" height="1" fill="#a57d01"/>
    <rect x="30" y="36" width="1" height="1" fill="#a57d01"/>
    <rect x="31" y="36" width="1" height="1" fill="#a57d01"/>
    <rect x="32" y="36" width="1" height="1" fill="#a57d01"/>
    <rect x="30" y="35" width="1" height="1" fill="#a57d01"/>
    <rect x="31" y="35" width="1" height="1" fill="#a57d01"/>
    <rect x="32" y="35" width="1" height="1" fill="#a57d01"/>
    <rect x="30" y="34" width="1" height="1" fill="#a57d01"/>
    <rect x="31" y="34" width="1" height="1" fill="#a57d01"/>
    <rect x="32" y="34" width="1" height="1" fill="#a57d01"/>
    <rect x="30" y="33" width="1" height="1" fill="#a57d01"/>
    <rect x="31" y="33" width="1" height="1" fill="#a57d01"/>
    <rect x="30" y="32" width="1" height="1" fill="#a57d01"/>
    <rect x="30" y="31" width="1" height="1" fill="#a57d01"/>
    <rect x="29" y="32" width="1" height="1" fill="#a57d01"/>
    <rect x="29" y="31" width="1" height="1" fill="#a57d01"/>
    <rect x="28" y="32" width="1" height="1" fill="#a57d01"/>
    <rect x="28" y="31" width="1" height="1" fill="#a57d01"/>
    <rect x="27" y="32" width="1" height="1" fill="#a57d01"/>
    <rect x="26" y="32" width="1" height="1" fill="#a57d01"/>
    <rect x="26" y="33" width="1" height="1" fill="#a57d01"/>
    <rect x="25" y="33" width="1" height="1" fill="#a57d01"/>
    <rect x="26" y="34" width="1" height="1" fill="#a57d01"/>
    <rect x="25" y="34" width="1" height="1" fill="#a57d01"/>
    <rect x="26" y="35" width="1" height="1" fill="#a57d01"/>
    <rect x="26" y="36" width="1" height="1" fill="#a57d01"/>
    <rect x="27" y="36" width="1" height="1" fill="#a57d01"/>
    <rect x="27" y="37" width="1" height="1" fill="#a57d01"/>
    <rect x="25" y="35" width="1" height="1" fill="#a57d01"/>
    <rect x="27" y="31" width="1" height="1" fill="#a57d01"/>
    <rect x="31" y="32" width="1" height="1" fill="#a57d01"/>
    <rect x="32" y="33" width="1" height="1" fill="#a57d01"/>
    <rect x="33" y="37" width="1" height="1" fill="#a57d01"/>
    <rect x="33" y="36" width="1" height="1" fill="#a57d01"/>
    <rect x="34" y="37" width="1" height="1" fill="#a57d01"/>
    <rect x="34" y="36" width="1" height="1" fill="#a57d01"/>
    <rect x="35" y="36" width="1" height="1" fill="#a57d01"/>
    <rect x="35" y="35" width="1" height="1" fill="#a57d01"/>
    <rect x="36" y="36" width="1" height="1" fill="#a57d01"/>
    <rect x="36" y="35" width="1" height="1" fill="#a57d01"/>
    <rect x="36" y="34" width="1" height="1" fill="#a57d01"/>
    <rect x="37" y="35" width="1" height="1" fill="#a57d01"/>
    <rect x="37" y="34" width="1" height="1" fill="#a57d01"/>
    <rect x="37" y="33" width="1" height="1" fill="#a57d01"/>
    <rect x="38" y="35" width="1" height="1" fill="#a57d01"/>
    <rect x="38" y="34" width="1" height="1" fill="#a57d01"/>
    <rect x="38" y="33" width="1" height="1" fill="#a57d01"/>
    <rect x="39" y="35" width="1" height="1" fill="#a57d01"/>
    <rect x="39" y="36" width="1" height="1" fill="#a57d01"/>
    <rect x="39" y="34" width="1" height="1" fill="#a57d01"/>
    <rect x="39" y="33" width="1" height="1" fill="#a57d01"/>
    <rect x="40" y="36" width="1" height="1" fill="#a57d01"/>
    <rect x="40" y="35" width="1" height="1" fill="#a57d01"/>
    <rect x="41" y="36" width="1" height="1" fill="#a57d01"/>
    <rect x="42" y="36" width="1" height="1" fill="#a57d01"/>
    <rect x="39" y="37" width="1" height="1" fill="#a57d01"/>
    <rect x="40" y="37" width="1" height="1" fill="#a57d01"/>
    <rect x="41" y="37" width="1" height="1" fill="#a57d01"/>
    <rect x="42" y="37" width="1" height="1" fill="#a57d01"/>
    <rect x="40" y="38" width="1" height="1" fill="#a57d01"/>
    <rect x="41" y="38" width="1" height="1" fill="#a57d01"/>
    <rect x="42" y="38" width="1" height="1" fill="#a57d01"/>
    <rect x="40" y="39" width="1" height="1" fill="#a57d01"/>
    <rect x="41" y="39" width="1" height="1" fill="#a57d01"/>
    <rect x="42" y="39" width="1" height="1" fill="#a57d01"/>
    <rect x="40" y="40" width="1" height="1" fill="#a57d01"/>
    <rect x="41" y="40" width="1" height="1" fill="#a57d01"/>
    <rect x="42" y="40" width="1" height="1" fill="#a57d01"/>
    <rect x="40" y="41" width="1" height="1" fill="#a57d01"/>
    <rect x="41" y="41" width="1" height="1" fill="#a57d01"/>
    <rect x="42" y="41" width="1" height="1" fill="#a57d01"/>
    <rect x="40" y="42" width="1" height="1" fill="#a57d01"/>
    <rect x="41" y="42" width="1" height="1" fill="#a57d01"/>
    <rect x="42" y="42" width="1" height="1" fill="#a57d01"/>
    <rect x="40" y="43" width="1" height="1" fill="#a57d01"/>
    <rect x="41" y="43" width="1" height="1" fill="#a57d01"/>
    <rect x="42" y="43" width="1" height="1" fill="#a57d01"/>
    <rect x="40" y="44" width="1" height="1" fill="#a57d01"/>
    <rect x="41" y="44" width="1" height="1" fill="#a57d01"/>
    <rect x="42" y="44" width="1" height="1" fill="#a57d01"/>
    <rect x="40" y="45" width="1" height="1" fill="#a57d01"/>
    <rect x="41" y="45" width="1" height="1" fill="#a57d01"/>
    <rect x="42" y="45" width="1" height="1" fill="#a57d01"/>
    <rect x="40" y="46" width="1" height="1" fill="#a57d01"/>
    <rect x="41" y="46" width="1" height="1" fill="#a57d01"/>
    <rect x="42" y="46" width="1" height="1" fill="#a57d01"/>
    <rect x="40" y="47" width="1" height="1" fill="#a57d01"/>
    <rect x="41" y="47" width="1" height="1" fill="#a57d01"/>
    <rect x="42" y="47" width="1" height="1" fill="#a57d01"/>
    <rect x="40" y="48" width="1" height="1" fill="#a57d01"/>
    <rect x="41" y="48" width="1" height="1" fill="#a57d01"/>
    <rect x="42" y="48" width="1" height="1" fill="#a57d01"/>
    <rect x="53" y="33" width="1" height="1" fill="#a57d01"/>
    <rect x="53" y="32" width="1" height="1" fill="#a57d01"/>
    <rect x="52" y="33" width="1" height="1" fill="#a57d01"/>
    <rect x="51" y="33" width="1" height="1" fill="#a57d01"/>
    <rect x="50" y="33" width="1" height="1" fill="#a57d01"/>
    <rect x="52" y="34" width="1" height="1" fill="#a57d01"/>
    <rect x="51" y="34" width="1" height="1" fill="#a57d01"/>
    <rect x="50" y="34" width="1" height="1" fill="#a57d01"/>
    <rect x="49" y="34" width="1" height="1" fill="#a57d01"/>
    <rect x="50" y="35" width="1" height="1" fill="#a57d01"/>
    <rect x="49" y="35" width="1" height="1" fill="#a57d01"/>
    <rect x="48" y="35" width="1" height="1" fill="#a57d01"/>
    <rect x="50" y="36" width="1" height="1" fill="#a57d01"/>
    <rect x="49" y="36" width="1" height="1" fill="#a57d01"/>
    <rect x="48" y="36" width="1" height="1" fill="#a57d01"/>
    <rect x="47" y="36" width="1" height="1" fill="#a57d01"/>
    <rect x="49" y="37" width="1" height="1" fill="#a57d01"/>
    <rect x="48" y="37" width="1" height="1" fill="#a57d01"/>
    <rect x="47" y="37" width="1" height="1" fill="#a57d01"/>
    <rect x="49" y="38" width="1" height="1" fill="#a57d01"/>
    <rect x="48" y="38" width="1" height="1" fill="#a57d01"/>
    <rect x="47" y="38" width="1" height="1" fill="#a57d01"/>
    <rect x="49" y="39" width="1" height="1" fill="#a57d01"/>
    <rect x="48" y="39" width="1" height="1" fill="#a57d01"/>
    <rect x="47" y="39" width="1" height="1" fill="#a57d01"/>
    <rect x="46" y="39" width="1" height="1" fill="#a57d01"/>
    <rect x="49" y="40" width="1" height="1" fill="#a57d01"/>
    <rect x="48" y="40" width="1" height="1" fill="#a57d01"/>
    <rect x="47" y="40" width="1" height="1" fill="#a57d01"/>
    <rect x="46" y="40" width="1" height="1" fill="#a57d01"/>
    <rect x="49" y="41" width="1" height="1" fill="#a57d01"/>
    <rect x="48" y="41" width="1" height="1" fill="#a57d01"/>
    <rect x="47" y="41" width="1" height="1" fill="#a57d01"/>
    <rect x="46" y="41" width="1" height="1" fill="#a57d01"/>
    <rect x="49" y="42" width="1" height="1" fill="#a57d01"/>
    <rect x="48" y="42" width="1" height="1" fill="#a57d01"/>
    <rect x="47" y="42" width="1" height="1" fill="#a57d01"/>
    <rect x="49" y="43" width="1" height="1" fill="#a57d01"/>
    <rect x="48" y="43" width="1" height="1" fill="#a57d01"/>
    <rect x="47" y="43" width="1" height="1" fill="#a57d01"/>
    <rect x="49" y="44" width="1" height="1" fill="#a57d01"/>
    <rect x="48" y="44" width="1" height="1" fill="#a57d01"/>
    <rect x="47" y="44" width="1" height="1" fill="#a57d01"/>
    <rect x="49" y="45" width="1" height="1" fill="#a57d01"/>
    <rect x="50" y="45" width="1" height="1" fill="#a57d01"/>
    <rect x="48" y="45" width="1" height="1" fill="#a57d01"/>
    <rect x="49" y="46" width="1" height="1" fill="#a57d01"/>
    <rect x="50" y="46" width="1" height="1" fill="#a57d01"/>
    <rect x="49" y="47" width="1" height="1" fill="#a57d01"/>
    <rect x="50" y="47" width="1" height="1" fill="#a57d01"/>
    <rect x="51" y="47" width="1" height="1" fill="#a57d01"/>
    <rect x="52" y="47" width="1" height="1" fill="#a57d01"/>
    <rect x="50" y="48" width="1" height="1" fill="#a57d01"/>
    <rect x="51" y="48" width="1" height="1" fill="#a57d01"/>
    <rect x="52" y="48" width="1" height="1" fill="#a57d01"/>
    <rect x="53" y="48" width="1" height="1" fill="#a57d01"/>
    <rect x="53" y="49" width="1" height="1" fill="#a57d01"/>
    <rect x="48" y="46" width="1" height="1" fill="#a57d01"/>
    <rect x="47" y="45" width="1" height="1" fill="#a57d01"/>
    <rect x="46" y="42" width="1" height="1" fill="#a57d01"/>
    <rect x="55" y="33" width="1" height="1" fill="#a57d01"/>
    <rect x="55" y="32" width="1" height="1" fill="#a57d01"/>
    <rect x="54" y="33" width="1" height="1" fill="#a57d01"/>
    <rect x="54" y="32" width="1" height="1" fill="#a57d01"/>
    <rect x="56" y="33" width="1" height="1" fill="#a57d01"/>
    <rect x="57" y="33" width="1" height="1" fill="#a57d01"/>
    <rect x="58" y="33" width="1" height="1" fill="#a57d01"/>
    <rect x="65" y="27" width="1" height="1" fill="#a57d01"/>
    <rect x="66" y="27" width="1" height="1" fill="#a57d01"/>
    <rect x="64" y="28" width="1" height="1" fill="#a57d01"/>
    <rect x="65" y="28" width="1" height="1" fill="#a57d01"/>
    <rect x="64" y="29" width="1" height="1" fill="#a57d01"/>
    <rect x="65" y="29" width="1" height="1" fill="#a57d01"/>
    <rect x="64" y="30" width="1" height="1" fill="#a57d01"/>
    <rect x="65" y="30" width="1" height="1" fill="#a57d01"/>
    <rect x="66" y="28" width="1" height="1" fill="#a57d01"/>
    <rect x="66" y="29" width="1" height="1" fill="#a57d01"/>
    <rect x="66" y="30" width="1" height="1" fill="#a57d01"/>
    <rect x="67" y="28" width="1" height="1" fill="#a57d01"/>
    <rect x="67" y="29" width="1" height="1" fill="#a57d01"/>
    <rect x="67" y="30" width="1" height="1" fill="#a57d01"/>
    <rect x="65" y="31" width="1" height="1" fill="#a57d01"/>
    <rect x="66" y="31" width="1" height="1" fill="#a57d01"/>
    <rect x="64" y="32" width="1" height="1" fill="#a57d01"/>
    <rect x="64" y="33" width="1" height="1" fill="#a57d01"/>
    <rect x="65" y="32" width="1" height="1" fill="#a57d01"/>
    <rect x="78" y="34" width="1" height="1" fill="#a57d01"/>
    <rect x="78" y="35" width="1" height="1" fill="#a57d01"/>
    <rect x="77" y="34" width="1" height="1" fill="#a57d01"/>
    <rect x="77" y="35" width="1" height="1" fill="#a57d01"/>
    <rect x="76" y="34" width="1" height="1" fill="#a57d01"/>
    <rect x="77" y="33" width="1" height="1" fill="#a57d01"/>
    <rect x="76" y="33" width="1" height="1" fill="#a57d01"/>
    <rect x="75" y="34" width="1" height="1" fill="#a57d01"/>
    <rect x="75" y="33" width="1" height="1" fill="#a57d01"/>
    <rect x="74" y="34" width="1" height="1" fill="#a57d01"/>
    <rect x="74" y="33" width="1" height="1" fill="#a57d01"/>
    <rect x="73" y="34" width="1" height="1" fill="#a57d01"/>
    <rect x="73" y="33" width="1" height="1" fill="#a57d01"/>
    <rect x="74" y="32" width="1" height="1" fill="#a57d01"/>
    <rect x="75" y="32" width="1" height="1" fill="#a57d01"/>
    <rect x="73" y="32" width="1" height="1" fill="#a57d01"/>
    <rect x="72" y="32" width="1" height="1" fill="#a57d01"/>
    <rect x="72" y="34" width="1" height="1" fill="#a57d01"/>
    <rect x="72" y="33" width="1" height="1" fill="#a57d01"/>
    <rect x="71" y="34" width="1" height="1" fill="#a57d01"/>
    <rect x="71" y="33" width="1" height="1" fill="#a57d01"/>
    <rect x="70" y="34" width="1" height="1" fill="#a57d01"/>
    <rect x="69" y="34" width="1" height="1" fill="#a57d01"/>
    <rect x="71" y="35" width="1" height="1" fill="#a57d01"/>
    <rect x="70" y="35" width="1" height="1" fill="#a57d01"/>
    <rect x="69" y="35" width="1" height="1" fill="#a57d01"/>
    <rect x="70" y="36" width="1" height="1" fill="#a57d01"/>
    <rect x="69" y="36" width="1" height="1" fill="#a57d01"/>
    <rect x="68" y="36" width="1" height="1" fill="#a57d01"/>
    <rect x="70" y="37" width="1" height="1" fill="#a57d01"/>
    <rect x="69" y="37" width="1" height="1" fill="#a57d01"/>
    <rect x="70" y="38" width="1" height="1" fill="#a57d01"/>
    <rect x="71" y="38" width="1" height="1" fill="#a57d01"/>
    <rect x="69" y="38" width="1" height="1" fill="#a57d01"/>
    <rect x="70" y="39" width="1" height="1" fill="#a57d01"/>
    <rect x="71" y="39" width="1" height="1" fill="#a57d01"/>
    <rect x="70" y="40" width="1" height="1" fill="#a57d01"/>
    <rect x="71" y="40" width="1" height="1" fill="#a57d01"/>
    <rect x="72" y="39" width="1" height="1" fill="#a57d01"/>
    <rect x="72" y="40" width="1" height="1" fill="#a57d01"/>
    <rect x="73" y="39" width="1" height="1" fill="#a57d01"/>
    <rect x="73" y="40" width="1" height="1" fill="#a57d01"/>
    <rect x="74" y="39" width="1" height="1" fill="#a57d01"/>
    <rect x="74" y="40" width="1" height="1" fill="#a57d01"/>
    <rect x="71" y="41" width="1" height="1" fill="#a57d01"/>
    <rect x="72" y="41" width="1" height="1" fill="#a57d01"/>
    <rect x="73" y="41" width="1" height="1" fill="#a57d01"/>
    <rect x="74" y="41" width="1" height="1" fill="#a57d01"/>
    <rect x="74" y="42" width="1" height="1" fill="#a57d01"/>
    <rect x="75" y="40" width="1" height="1" fill="#a57d01"/>
    <rect x="75" y="41" width="1" height="1" fill="#a57d01"/>
    <rect x="75" y="42" width="1" height="1" fill="#a57d01"/>
    <rect x="76" y="40" width="1" height="1" fill="#a57d01"/>
    <rect x="76" y="41" width="1" height="1" fill="#a57d01"/>
    <rect x="76" y="42" width="1" height="1" fill="#a57d01"/>
    <rect x="76" y="43" width="1" height="1" fill="#a57d01"/>
    <rect x="77" y="41" width="1" height="1" fill="#a57d01"/>
    <rect x="77" y="42" width="1" height="1" fill="#a57d01"/>
    <rect x="77" y="43" width="1" height="1" fill="#a57d01"/>
    <rect x="78" y="42" width="1" height="1" fill="#a57d01"/>
    <rect x="78" y="43" width="1" height="1" fill="#a57d01"/>
    <rect x="77" y="44" width="1" height="1" fill="#a57d01"/>
    <rect x="78" y="44" width="1" height="1" fill="#a57d01"/>
    <rect x="79" y="43" width="1" height="1" fill="#a57d01"/>
    <rect x="79" y="44" width="1" height="1" fill="#a57d01"/>
    <rect x="77" y="45" width="1" height="1" fill="#a57d01"/>
    <rect x="78" y="45" width="1" height="1" fill="#a57d01"/>
    <rect x="77" y="46" width="1" height="1" fill="#a57d01"/>
    <rect x="76" y="46" width="1" height="1" fill="#a57d01"/>
    <rect x="78" y="46" width="1" height="1" fill="#a57d01"/>
    <rect x="77" y="47" width="1" height="1" fill="#a57d01"/>
    <rect x="76" y="47" width="1" height="1" fill="#a57d01"/>
    <rect x="75" y="47" width="1" height="1" fill="#a57d01"/>
    <rect x="74" y="47" width="1" height="1" fill="#a57d01"/>
    <rect x="73" y="47" width="1" height="1" fill="#a57d01"/>
    <rect x="72" y="47" width="1" height="1" fill="#a57d01"/>
    <rect x="71" y="47" width="1" height="1" fill="#a57d01"/>
    <rect x="70" y="47" width="1" height="1" fill="#a57d01"/>
    <rect x="76" y="48" width="1" height="1" fill="#a57d01"/>
    <rect x="75" y="48" width="1" height="1" fill="#a57d01"/>
    <rect x="74" y="48" width="1" height="1" fill="#a57d01"/>
    <rect x="73" y="48" width="1" height="1" fill="#a57d01"/>
    <rect x="72" y="48" width="1" height="1" fill="#a57d01"/>
    <rect x="71" y="48" width="1" height="1" fill="#a57d01"/>
    <rect x="70" y="48" width="1" height="1" fill="#a57d01"/>
    <rect x="69" y="47" width="1" height="1" fill="#a57d01"/>
    <rect x="68" y="47" width="1" height="1" fill="#a57d01"/>
    <rect x="71" y="46" width="1" height="1" fill="#a57d01"/>
    <rect x="70" y="46" width="1" height="1" fill="#a57d01"/>
    <rect x="69" y="46" width="1" height="1" fill="#a57d01"/>
    <rect x="68" y="46" width="1" height="1" fill="#a57d01"/>
    <rect x="69" y="45" width="1" height="1" fill="#a57d01"/>
    <rect x="68" y="45" width="1" height="1" fill="#a57d01"/>
    <rect x="78" y="47" width="1" height="1" fill="#a57d01"/>
    <rect x="79" y="45" width="1" height="1" fill="#a57d01"/>
    <rect x="69" y="39" width="1" height="1" fill="#a57d01"/>
    <rect x="68" y="37" width="1" height="1" fill="#a57d01"/>
    <rect x="70" y="33" width="1" height="1" fill="#a57d01"/>
    <rect x="76" y="35" width="1" height="1" fill="#a57d01"/>
    <rect x="56" y="34" width="1" height="1" fill="#a57d01"/>
    <rect x="57" y="34" width="1" height="1" fill="#a57d01"/>
    <rect x="58" y="34" width="1" height="1" fill="#a57d01"/>
    <rect x="59" y="34" width="1" height="1" fill="#a57d01"/>
    <rect x="58" y="35" width="1" height="1" fill="#a57d01"/>
    <rect x="59" y="35" width="1" height="1" fill="#a57d01"/>
    <rect x="60" y="35" width="1" height="1" fill="#a57d01"/>
    <rect x="58" y="36" width="1" height="1" fill="#a57d01"/>
    <rect x="59" y="36" width="1" height="1" fill="#a57d01"/>
    <rect x="60" y="36" width="1" height="1" fill="#a57d01"/>
    <rect x="61" y="36" width="1" height="1" fill="#a57d01"/>
    <rect x="59" y="37" width="1" height="1" fill="#a57d01"/>
    <rect x="60" y="37" width="1" height="1" fill="#a57d01"/>
    <rect x="61" y="37" width="1" height="1" fill="#a57d01"/>
    <rect x="59" y="38" width="1" height="1" fill="#a57d01"/>
    <rect x="60" y="38" width="1" height="1" fill="#a57d01"/>
    <rect x="61" y="38" width="1" height="1" fill="#a57d01"/>
    <rect x="59" y="39" width="1" height="1" fill="#a57d01"/>
    <rect x="60" y="39" width="1" height="1" fill="#a57d01"/>
    <rect x="61" y="39" width="1" height="1" fill="#a57d01"/>
    <rect x="62" y="39" width="1" height="1" fill="#a57d01"/>
    <rect x="59" y="40" width="1" height="1" fill="#a57d01"/>
    <rect x="60" y="40" width="1" height="1" fill="#a57d01"/>
    <rect x="61" y="40" width="1" height="1" fill="#a57d01"/>
    <rect x="62" y="40" width="1" height="1" fill="#a57d01"/>
    <rect x="59" y="41" width="1" height="1" fill="#a57d01"/>
    <rect x="60" y="41" width="1" height="1" fill="#a57d01"/>
    <rect x="61" y="41" width="1" height="1" fill="#a57d01"/>
    <rect x="62" y="41" width="1" height="1" fill="#a57d01"/>
    <rect x="59" y="42" width="1" height="1" fill="#a57d01"/>
    <rect x="60" y="42" width="1" height="1" fill="#a57d01"/>
    <rect x="61" y="42" width="1" height="1" fill="#a57d01"/>
    <rect x="59" y="43" width="1" height="1" fill="#a57d01"/>
    <rect x="60" y="43" width="1" height="1" fill="#a57d01"/>
    <rect x="61" y="43" width="1" height="1" fill="#a57d01"/>
    <rect x="59" y="44" width="1" height="1" fill="#a57d01"/>
    <rect x="60" y="44" width="1" height="1" fill="#a57d01"/>
    <rect x="61" y="44" width="1" height="1" fill="#a57d01"/>
    <rect x="59" y="45" width="1" height="1" fill="#a57d01"/>
    <rect x="58" y="45" width="1" height="1" fill="#a57d01"/>
    <rect x="60" y="45" width="1" height="1" fill="#a57d01"/>
    <rect x="59" y="46" width="1" height="1" fill="#a57d01"/>
    <rect x="58" y="46" width="1" height="1" fill="#a57d01"/>
    <rect x="59" y="47" width="1" height="1" fill="#a57d01"/>
    <rect x="58" y="47" width="1" height="1" fill="#a57d01"/>
    <rect x="57" y="47" width="1" height="1" fill="#a57d01"/>
    <rect x="56" y="47" width="1" height="1" fill="#a57d01"/>
    <rect x="58" y="48" width="1" height="1" fill="#a57d01"/>
    <rect x="57" y="48" width="1" height="1" fill="#a57d01"/>
    <rect x="56" y="48" width="1" height="1" fill="#a57d01"/>
    <rect x="55" y="48" width="1" height="1" fill="#a57d01"/>
    <rect x="55" y="49" width="1" height="1" fill="#a57d01"/>
    <rect x="54" y="48" width="1" height="1" fill="#a57d01"/>
    <rect x="54" y="49" width="1" height="1" fill="#a57d01"/>
    <rect x="60" y="46" width="1" height="1" fill="#a57d01"/>
    <rect x="61" y="45" width="1" height="1" fill="#a57d01"/>
    <rect x="62" y="42" width="1" height="1" fill="#a57d01"/>
    <rect x="41" y="35" width="1" height="1" fill="#a57d01"/>
    <rect x="40" y="34" width="1" height="1" fill="#a57d01"/>
    <rect x="10" y="33" width="1" height="1" fill="#a57d01"/>
    <rect x="11" y="33" width="1" height="1" fill="#a57d01"/>
    <rect x="12" y="33" width="1" height="1" fill="#a57d01"/>
    <rect x="13" y="33" width="1" height="1" fill="#a57d01"/>
    <rect x="10" y="34" width="1" height="1" fill="#a57d01"/>
    <rect x="11" y="34" width="1" height="1" fill="#a57d01"/>
    <rect x="12" y="34" width="1" height="1" fill="#a57d01"/>
    <rect x="13" y="34" width="1" height="1" fill="#a57d01"/>
    <rect x="10" y="35" width="1" height="1" fill="#a57d01"/>
    <rect x="11" y="35" width="1" height="1" fill="#a57d01"/>
    <rect x="12" y="35" width="1" height="1" fill="#a57d01"/>
    <rect x="13" y="35" width="1" height="1" fill="#a57d01"/>
    <rect x="10" y="36" width="1" height="1" fill="#a57d01"/>
    <rect x="11" y="36" width="1" height="1" fill="#a57d01"/>
    <rect x="12" y="36" width="1" height="1" fill="#a57d01"/>
    <rect x="13" y="36" width="1" height="1" fill="#a57d01"/>
    <rect x="10" y="37" width="1" height="1" fill="#a57d01"/>
    <rect x="11" y="37" width="1" height="1" fill="#a57d01"/>
    <rect x="12" y="37" width="1" height="1" fill="#a57d01"/>
    <rect x="13" y="37" width="1" height="1" fill="#a57d01"/>
    <rect x="10" y="38" width="1" height="1" fill="#a57d01"/>
    <rect x="11" y="38" width="1" height="1" fill="#a57d01"/>
    <rect x="12" y="38" width="1" height="1" fill="#a57d01"/>
    <rect x="13" y="38" width="1" height="1" fill="#a57d01"/>
    <rect x="10" y="39" width="1" height="1" fill="#a57d01"/>
    <rect x="11" y="39" width="1" height="1" fill="#a57d01"/>
    <rect x="12" y="39" width="1" height="1" fill="#a57d01"/>
    <rect x="13" y="39" width="1" height="1" fill="#a57d01"/>
    <rect x="10" y="40" width="1" height="1" fill="#a57d01"/>
    <rect x="11" y="40" width="1" height="1" fill="#a57d01"/>
    <rect x="12" y="40" width="1" height="1" fill="#a57d01"/>
    <rect x="13" y="40" width="1" height="1" fill="#a57d01"/>
    <rect x="10" y="41" width="1" height="1" fill="#a57d01"/>
    <rect x="11" y="41" width="1" height="1" fill="#a57d01"/>
    <rect x="12" y="41" width="1" height="1" fill="#a57d01"/>
    <rect x="13" y="41" width="1" height="1" fill="#a57d01"/>
    <rect x="10" y="42" width="1" height="1" fill="#a57d01"/>
    <rect x="11" y="42" width="1" height="1" fill="#a57d01"/>
    <rect x="12" y="42" width="1" height="1" fill="#a57d01"/>
    <rect x="13" y="42" width="1" height="1" fill="#a57d01"/>
    <rect x="10" y="43" width="1" height="1" fill="#a57d01"/>
    <rect x="11" y="43" width="1" height="1" fill="#a57d01"/>
    <rect x="12" y="43" width="1" height="1" fill="#a57d01"/>
    <rect x="13" y="43" width="1" height="1" fill="#a57d01"/>
    <rect x="10" y="44" width="1" height="1" fill="#a57d01"/>
    <rect x="11" y="44" width="1" height="1" fill="#a57d01"/>
    <rect x="12" y="44" width="1" height="1" fill="#a57d01"/>
    <rect x="13" y="44" width="1" height="1" fill="#a57d01"/>
    <rect x="10" y="45" width="1" height="1" fill="#a57d01"/>
    <rect x="11" y="45" width="1" height="1" fill="#a57d01"/>
    <rect x="12" y="45" width="1" height="1" fill="#a57d01"/>
    <rect x="13" y="45" width="1" height="1" fill="#a57d01"/>
    <rect x="10" y="46" width="1" height="1" fill="#a57d01"/>
    <rect x="11" y="46" width="1" height="1" fill="#a57d01"/>
    <rect x="12" y="46" width="1" height="1" fill="#a57d01"/>
    <rect x="13" y="46" width="1" height="1" fill="#a57d01"/>
    <rect x="10" y="47" width="1" height="1" fill="#a57d01"/>
    <rect x="11" y="47" width="1" height="1" fill="#a57d01"/>
    <rect x="12" y="47" width="1" height="1" fill="#a57d01"/>
    <rect x="10" y="48" width="1" height="1" fill="#a57d01"/>
    <rect x="9" y="48" width="1" height="1" fill="#a57d01"/>
    <rect x="11" y="48" width="1" height="1" fill="#a57d01"/>
    <rect x="12" y="48" width="1" height="1" fill="#a57d01"/>
    <rect x="10" y="49" width="1" height="1" fill="#a57d01"/>
    <rect x="9" y="49" width="1" height="1" fill="#a57d01"/>
    <rect x="11" y="49" width="1" height="1" fill="#a57d01"/>
    <rect x="12" y="49" width="1" height="1" fill="#a57d01"/>
    <rect x="6" y="49" width="1" height="1" fill="#a57d01"/>
    <rect x="5" y="49" width="1" height="1" fill="#a57d01"/>
    <rect x="7" y="49" width="1" height="1" fill="#a57d01"/>
    <rect x="8" y="49" width="1" height="1" fill="#a57d01"/>
    <rect x="2" y="49" width="1" height="1" fill="#a57d01"/>
    <rect x="1" y="49" width="1" height="1" fill="#a57d01"/>
    <rect x="3" y="49" width="1" height="1" fill="#a57d01"/>
    <rect x="2" y="48" width="1" height="1" fill="#a57d01"/>
    <rect x="2" y="47" width="1" height="1" fill="#a57d01"/>
    <rect x="1" y="48" width="1" height="1" fill="#a57d01"/>
    <rect x="3" y="48" width="1" height="1" fill="#a57d01"/>
    <rect x="4" y="49" width="1" height="1" fill="#a57d01"/>
    <rect x="10" y="50" width="1" height="1" fill="#a57d01"/>
    <rect x="9" y="50" width="1" height="1" fill="#a57d01"/>
    <rect x="11" y="50" width="1" height="1" fill="#a57d01"/>
    <rect x="6" y="50" width="1" height="1" fill="#a57d01"/>
    <rect x="5" y="50" width="1" height="1" fill="#a57d01"/>
    <rect x="7" y="50" width="1" height="1" fill="#a57d01"/>
    <rect x="8" y="50" width="1" height="1" fill="#a57d01"/>
    <rect x="2" y="50" width="1" height="1" fill="#a57d01"/>
    <rect x="1" y="50" width="1" height="1" fill="#a57d01"/>
    <rect x="3" y="50" width="1" height="1" fill="#a57d01"/>
    <rect x="4" y="50" width="1" height="1" fill="#a57d01"/>
    <rect x="10" y="51" width="1" height="1" fill="#a57d01"/>
    <rect x="9" y="51" width="1" height="1" fill="#a57d01"/>
    <rect x="6" y="51" width="1" height="1" fill="#a57d01"/>
    <rect x="5" y="51" width="1" height="1" fill="#a57d01"/>
    <rect x="7" y="51" width="1" height="1" fill="#a57d01"/>
    <rect x="6" y="52" width="1" height="1" fill="#a57d01"/>
    <rect x="5" y="52" width="1" height="1" fill="#a57d01"/>
    <rect x="7" y="52" width="1" height="1" fill="#a57d01"/>
    <rect x="8" y="51" width="1" height="1" fill="#a57d01"/>
    <rect x="8" y="52" width="1" height="1" fill="#a57d01"/>
    <rect x="3" y="51" width="1" height="1" fill="#a57d01"/>
    <rect x="4" y="51" width="1" height="1" fill="#a57d01"/>
    <rect x="13" y="47" width="1" height="1" fill="#a57d01"/>
  </g>
</svg>
