<svg xmlns="http://www.w3.org/2000/svg" width="40" height="40" viewBox="0 0 40 40">
  <g>
    <rect x="7" y="7" width="1" height="1" fill="#a57d01"/>
    <rect x="6" y="7" width="1" height="1" fill="#a57d01"/>
    <rect x="7" y="8" width="1" height="1" fill="#a57d01"/>
    <rect x="7" y="9" width="1" height="1" fill="#a57d01"/>
    <rect x="7" y="10" width="1" height="1" fill="#a57d01"/>
    <rect x="6" y="11" width="1" height="1" fill="#a57d01"/>
    <rect x="6" y="12" width="1" height="1" fill="#a57d01"/>
    <rect x="5" y="13" width="1" height="1" fill="#a57d01"/>
    <rect x="4" y="14" width="1" height="1" fill="#a57d01"/>
    <rect x="4" y="15" width="1" height="1" fill="#a57d01"/>
    <rect x="3" y="15" width="1" height="1" fill="#a57d01"/>
    <rect x="7" y="11" width="1" height="1" fill="#a57d01"/>
    <rect x="8" y="11" width="1" height="1" fill="#a57d01"/>
    <rect x="6" y="8" width="1" height="1" fill="#a57d01"/>
    <rect x="5" y="9" width="1" height="1" fill="#a57d01"/>
    <rect x="4" y="10" width="1" height="1" fill="#a57d01"/>
    <rect x="4" y="11" width="1" height="1" fill="#a57d01"/>
    <rect x="3" y="12" width="1" height="1" fill="#a57d01"/>
    <rect x="2" y="13" width="1" height="1" fill="#a57d01"/>
    <rect x="2" y="14" width="1" height="1" fill="#a57d01"/>
    <rect x="1" y="15" width="1" height="1" fill="#a57d01"/>
    <rect x="1" y="16" width="1" height="1" fill="#a57d01"/>
    <rect x="1" y="17" width="1" height="1" fill="#a57d01"/>
    <rect x="1" y="18" width="1" height="1" fill="#a57d01"/>
    <rect x="1" y="19" width="1" height="1" fill="#a57d01"/>
    <rect x="1" y="20" width="1" height="1" fill="#a57d01"/>
    <rect x="2" y="20" width="1" height="1" fill="#a57d01"/>
    <rect x="3" y="20" width="1" height="1" fill="#a57d01"/>
    <rect x="4" y="21" width="1" height="1" fill="#a57d01"/>
    <rect x="2" y="22" width="1" height="1" fill="#a57d01"/>
    <rect x="3" y="23" width="1" height="1" fill="#a57d01"/>
    <rect x="4" y="24" width="1" height="1" fill="#a57d01"/>
    <rect x="5" y="24" width="1" height="1" fill="#a57d01"/>
    <rect x="6" y="25" width="1" height="1" fill="#a57d01"/>
    <rect x="7" y="25" width="1" height="1" fill="#a57d01"/>
    <rect x="8" y="25" width="1" height="1" fill="#a57d01"/>
    <rect x="8" y="24" width="1" height="1" fill="#a57d01"/>
    <rect x="8" y="23" width="1" height="1" fill="#a57d01"/>
    <rect x="7" y="23" width="1" height="1" fill="#a57d01"/>
    <rect x="7" y="22" width="1" height="1" fill="#a57d01"/>
    <rect x="7" y="21" width="1" height="1" fill="#a57d01"/>
    <rect x="6" y="20" width="1" height="1" fill="#a57d01"/>
    <rect x="7" y="20" width="1" height="1" fill="#a57d01"/>
    <rect x="6" y="22" width="1" height="1" fill="#a57d01"/>
    <rect x="5" y="22" width="1" height="1" fill="#a57d01"/>
    <rect x="7" y="26" width="1" height="1" fill="#a57d01"/>
    <rect x="8" y="26" width="1" height="1" fill="#a57d01"/>
    <rect x="3" y="18" width="1" height="1" fill="#a57d01"/>
    <rect x="3" y="17" width="1" height="1" fill="#a57d01"/>
    <rect x="5" y="17" width="1" height="1" fill="#a57d01"/>
    <rect x="5" y="16" width="1" height="1" fill="#a57d01"/>
    <rect x="6" y="15" width="1" height="1" fill="#a57d01"/>
    <rect x="7" y="14" width="1" height="1" fill="#a57d01"/>
    <rect x="7" y="13" width="1" height="1" fill="#a57d01"/>
    <rect x="8" y="13" width="1" height="1" fill="#a57d01"/>
    <rect x="8" y="12" width="1" height="1" fill="#a57d01"/>
    <rect x="4" y="18" width="1" height="1" fill="#a57d01"/>
    <rect x="5" y="19" width="1" height="1" fill="#a57d01"/>
    <rect x="2" y="17" width="1" height="1" fill="#a57d01"/>
    <rect x="3" y="16" width="1" height="1" fill="#a57d01"/>
    <rect x="1" y="21" width="1" height="1" fill="#a57d01"/>
    <rect y="16" width="1" height="1" fill="#a57d01"/>
    <rect y="17" width="1" height="1" fill="#a57d01"/>
  </g>
  <g>
    <rect x="32" y="7" width="1" height="1" fill="#a57d01"/>
    <rect x="33" y="7" width="1" height="1" fill="#a57d01"/>
    <rect x="32" y="8" width="1" height="1" fill="#a57d01"/>
    <rect x="32" y="9" width="1" height="1" fill="#a57d01"/>
    <rect x="32" y="10" width="1" height="1" fill="#a57d01"/>
    <rect x="33" y="11" width="1" height="1" fill="#a57d01"/>
    <rect x="33" y="12" width="1" height="1" fill="#a57d01"/>
    <rect x="34" y="13" width="1" height="1" fill="#a57d01"/>
    <rect x="35" y="14" width="1" height="1" fill="#a57d01"/>
    <rect x="35" y="15" width="1" height="1" fill="#a57d01"/>
    <rect x="36" y="15" width="1" height="1" fill="#a57d01"/>
    <rect x="32" y="11" width="1" height="1" fill="#a57d01"/>
    <rect x="31" y="11" width="1" height="1" fill="#a57d01"/>
    <rect x="33" y="8" width="1" height="1" fill="#a57d01"/>
    <rect x="34" y="9" width="1" height="1" fill="#a57d01"/>
    <rect x="35" y="10" width="1" height="1" fill="#a57d01"/>
    <rect x="35" y="11" width="1" height="1" fill="#a57d01"/>
    <rect x="36" y="12" width="1" height="1" fill="#a57d01"/>
    <rect x="37" y="13" width="1" height="1" fill="#a57d01"/>
    <rect x="37" y="14" width="1" height="1" fill="#a57d01"/>
    <rect x="38" y="15" width="1" height="1" fill="#a57d01"/>
    <rect x="38" y="16" width="1" height="1" fill="#a57d01"/>
    <rect x="38" y="17" width="1" height="1" fill="#a57d01"/>
    <rect x="38" y="18" width="1" height="1" fill="#a57d01"/>
    <rect x="38" y="19" width="1" height="1" fill="#a57d01"/>
    <rect x="38" y="20" width="1" height="1" fill="#a57d01"/>
    <rect x="37" y="20" width="1" height="1" fill="#a57d01"/>
    <rect x="36" y="20" width="1" height="1" fill="#a57d01"/>
    <rect x="35" y="21" width="1" height="1" fill="#a57d01"/>
    <rect x="37" y="22" width="1" height="1" fill="#a57d01"/>
    <rect x="36" y="23" width="1" height="1" fill="#a57d01"/>
    <rect x="35" y="24" width="1" height="1" fill="#a57d01"/>
    <rect x="34" y="24" width="1" height="1" fill="#a57d01"/>
    <rect x="33" y="25" width="1" height="1" fill="#a57d01"/>
    <rect x="32" y="25" width="1" height="1" fill="#a57d01"/>
    <rect x="31" y="25" width="1" height="1" fill="#a57d01"/>
    <rect x="31" y="24" width="1" height="1" fill="#a57d01"/>
    <rect x="31" y="23" width="1" height="1" fill="#a57d01"/>
    <rect x="32" y="23" width="1" height="1" fill="#a57d01"/>
    <rect x="32" y="22" width="1" height="1" fill="#a57d01"/>
    <rect x="32" y="21" width="1" height="1" fill="#a57d01"/>
    <rect x="33" y="20" width="1" height="1" fill="#a57d01"/>
    <rect x="32" y="20" width="1" height="1" fill="#a57d01"/>
    <rect x="33" y="22" width="1" height="1" fill="#a57d01"/>
    <rect x="34" y="22" width="1" height="1" fill="#a57d01"/>
    <rect x="32" y="26" width="1" height="1" fill="#a57d01"/>
    <rect x="31" y="26" width="1" height="1" fill="#a57d01"/>
    <rect x="36" y="18" width="1" height="1" fill="#a57d01"/>
    <rect x="36" y="17" width="1" height="1" fill="#a57d01"/>
    <rect x="34" y="17" width="1" height="1" fill="#a57d01"/>
    <rect x="34" y="16" width="1" height="1" fill="#a57d01"/>
    <rect x="33" y="15" width="1" height="1" fill="#a57d01"/>
    <rect x="32" y="14" width="1" height="1" fill="#a57d01"/>
    <rect x="32" y="13" width="1" height="1" fill="#a57d01"/>
    <rect x="31" y="13" width="1" height="1" fill="#a57d01"/>
    <rect x="31" y="12" width="1" height="1" fill="#a57d01"/>
    <rect x="35" y="18" width="1" height="1" fill="#a57d01"/>
    <rect x="34" y="19" width="1" height="1" fill="#a57d01"/>
    <rect x="37" y="17" width="1" height="1" fill="#a57d01"/>
    <rect x="36" y="16" width="1" height="1" fill="#a57d01"/>
    <rect x="38" y="21" width="1" height="1" fill="#a57d01"/>
    <rect x="39" y="16" width="1" height="1" fill="#a57d01"/>
    <rect x="39" y="17" width="1" height="1" fill="#a57d01"/>
  </g>
  <rect x="12" y="14" width="1" height="1" fill="#a57d01"/>
  <rect x="12" y="15" width="1" height="1" fill="#a57d01"/>
  <rect x="13" y="15" width="1" height="1" fill="#a57d01"/>
  <rect x="14" y="15" width="1" height="1" fill="#a57d01"/>
  <rect x="15" y="15" width="1" height="1" fill="#a57d01"/>
  <rect x="13" y="16" width="1" height="1" fill="#a57d01"/>
  <rect x="14" y="16" width="1" height="1" fill="#a57d01"/>
  <rect x="15" y="16" width="1" height="1" fill="#a57d01"/>
  <rect x="13" y="17" width="1" height="1" fill="#a57d01"/>
  <rect x="14" y="17" width="1" height="1" fill="#a57d01"/>
  <rect x="15" y="17" width="1" height="1" fill="#a57d01"/>
  <rect x="13" y="18" width="1" height="1" fill="#a57d01"/>
  <rect x="14" y="18" width="1" height="1" fill="#a57d01"/>
  <rect x="15" y="18" width="1" height="1" fill="#a57d01"/>
  <rect x="13" y="19" width="1" height="1" fill="#a57d01"/>
  <rect x="14" y="19" width="1" height="1" fill="#a57d01"/>
  <rect x="14" y="20" width="1" height="1" fill="#a57d01"/>
  <rect x="14" y="21" width="1" height="1" fill="#a57d01"/>
  <rect x="14" y="22" width="1" height="1" fill="#a57d01"/>
  <rect x="14" y="23" width="1" height="1" fill="#a57d01"/>
  <rect x="14" y="24" width="1" height="1" fill="#a57d01"/>
  <rect x="15" y="20" width="1" height="1" fill="#a57d01"/>
  <rect x="15" y="21" width="1" height="1" fill="#a57d01"/>
  <rect x="15" y="22" width="1" height="1" fill="#a57d01"/>
  <rect x="15" y="23" width="1" height="1" fill="#a57d01"/>
  <rect x="15" y="24" width="1" height="1" fill="#a57d01"/>
  <rect x="16" y="20" width="1" height="1" fill="#a57d01"/>
  <rect x="16" y="21" width="1" height="1" fill="#a57d01"/>
  <rect x="16" y="22" width="1" height="1" fill="#a57d01"/>
  <rect x="16" y="23" width="1" height="1" fill="#a57d01"/>
  <rect x="16" y="24" width="1" height="1" fill="#a57d01"/>
  <rect x="17" y="20" width="1" height="1" fill="#a57d01"/>
  <rect x="17" y="21" width="1" height="1" fill="#a57d01"/>
  <rect x="17" y="22" width="1" height="1" fill="#a57d01"/>
  <rect x="17" y="23" width="1" height="1" fill="#a57d01"/>
  <rect x="17" y="24" width="1" height="1" fill="#a57d01"/>
  <rect x="15" y="25" width="1" height="1" fill="#a57d01"/>
  <rect x="16" y="25" width="1" height="1" fill="#a57d01"/>
  <rect x="17" y="25" width="1" height="1" fill="#a57d01"/>
  <rect x="18" y="20" width="1" height="1" fill="#a57d01"/>
  <rect x="18" y="19" width="1" height="1" fill="#a57d01"/>
  <rect x="18" y="18" width="1" height="1" fill="#a57d01"/>
  <rect x="18" y="17" width="1" height="1" fill="#a57d01"/>
  <rect x="19" y="19" width="1" height="1" fill="#a57d01"/>
  <rect x="19" y="18" width="1" height="1" fill="#a57d01"/>
  <rect x="19" y="17" width="1" height="1" fill="#a57d01"/>
  <rect x="20" y="19" width="1" height="1" fill="#a57d01"/>
  <rect x="19" y="20" width="1" height="1" fill="#a57d01"/>
  <rect x="20" y="20" width="1" height="1" fill="#a57d01"/>
  <rect x="20" y="18" width="1" height="1" fill="#a57d01"/>
  <rect x="20" y="17" width="1" height="1" fill="#a57d01"/>
  <rect x="19" y="16" width="1" height="1" fill="#a57d01"/>
  <rect x="20" y="16" width="1" height="1" fill="#a57d01"/>
  <rect x="21" y="19" width="1" height="1" fill="#a57d01"/>
  <rect x="21" y="18" width="1" height="1" fill="#a57d01"/>
  <rect x="21" y="17" width="1" height="1" fill="#a57d01"/>
  <rect x="18" y="21" width="1" height="1" fill="#a57d01"/>
  <rect x="18" y="22" width="1" height="1" fill="#a57d01"/>
  <rect x="18" y="23" width="1" height="1" fill="#a57d01"/>
  <rect x="18" y="24" width="1" height="1" fill="#a57d01"/>
  <rect x="15" y="19" width="1" height="1" fill="#a57d01"/>
  <rect x="27" y="14" width="1" height="1" fill="#a57d01"/>
  <rect x="27" y="15" width="1" height="1" fill="#a57d01"/>
  <rect x="26" y="15" width="1" height="1" fill="#a57d01"/>
  <rect x="25" y="15" width="1" height="1" fill="#a57d01"/>
  <rect x="24" y="15" width="1" height="1" fill="#a57d01"/>
  <rect x="26" y="16" width="1" height="1" fill="#a57d01"/>
  <rect x="25" y="16" width="1" height="1" fill="#a57d01"/>
  <rect x="24" y="16" width="1" height="1" fill="#a57d01"/>
  <rect x="26" y="17" width="1" height="1" fill="#a57d01"/>
  <rect x="25" y="17" width="1" height="1" fill="#a57d01"/>
  <rect x="24" y="17" width="1" height="1" fill="#a57d01"/>
  <rect x="26" y="18" width="1" height="1" fill="#a57d01"/>
  <rect x="25" y="18" width="1" height="1" fill="#a57d01"/>
  <rect x="24" y="18" width="1" height="1" fill="#a57d01"/>
  <rect x="26" y="19" width="1" height="1" fill="#a57d01"/>
  <rect x="25" y="19" width="1" height="1" fill="#a57d01"/>
  <rect x="25" y="20" width="1" height="1" fill="#a57d01"/>
  <rect x="25" y="21" width="1" height="1" fill="#a57d01"/>
  <rect x="25" y="22" width="1" height="1" fill="#a57d01"/>
  <rect x="25" y="23" width="1" height="1" fill="#a57d01"/>
  <rect x="25" y="24" width="1" height="1" fill="#a57d01"/>
  <rect x="24" y="20" width="1" height="1" fill="#a57d01"/>
  <rect x="24" y="21" width="1" height="1" fill="#a57d01"/>
  <rect x="24" y="22" width="1" height="1" fill="#a57d01"/>
  <rect x="24" y="23" width="1" height="1" fill="#a57d01"/>
  <rect x="24" y="24" width="1" height="1" fill="#a57d01"/>
  <rect x="23" y="20" width="1" height="1" fill="#a57d01"/>
  <rect x="23" y="21" width="1" height="1" fill="#a57d01"/>
  <rect x="23" y="22" width="1" height="1" fill="#a57d01"/>
  <rect x="23" y="23" width="1" height="1" fill="#a57d01"/>
  <rect x="23" y="24" width="1" height="1" fill="#a57d01"/>
  <rect x="22" y="20" width="1" height="1" fill="#a57d01"/>
  <rect x="22" y="21" width="1" height="1" fill="#a57d01"/>
  <rect x="22" y="22" width="1" height="1" fill="#a57d01"/>
  <rect x="22" y="23" width="1" height="1" fill="#a57d01"/>
  <rect x="22" y="24" width="1" height="1" fill="#a57d01"/>
  <rect x="24" y="25" width="1" height="1" fill="#a57d01"/>
  <rect x="23" y="25" width="1" height="1" fill="#a57d01"/>
  <rect x="22" y="25" width="1" height="1" fill="#a57d01"/>
  <rect x="21" y="20" width="1" height="1" fill="#a57d01"/>
  <rect x="21" y="21" width="1" height="1" fill="#a57d01"/>
  <rect x="21" y="22" width="1" height="1" fill="#a57d01"/>
  <rect x="21" y="23" width="1" height="1" fill="#a57d01"/>
  <rect x="21" y="24" width="1" height="1" fill="#a57d01"/>
  <rect x="24" y="19" width="1" height="1" fill="#a57d01"/>
</svg>
