<svg xmlns="http://www.w3.org/2000/svg" width="40" height="40" viewBox="0 0 40 40">
  <g>
    <rect x="2" y="12" width="1" height="1" fill="#a57d01"/>
    <rect x="2" y="13" width="1" height="1" fill="#a57d01"/>
    <rect x="1" y="14" width="1" height="1" fill="#a57d01"/>
    <rect x="1" y="13" width="1" height="1" fill="#a57d01"/>
    <rect y="14" width="1" height="1" fill="#a57d01"/>
    <rect x="1" y="15" width="1" height="1" fill="#a57d01"/>
    <rect y="15" width="1" height="1" fill="#a57d01"/>
    <rect x="1" y="16" width="1" height="1" fill="#a57d01"/>
    <rect y="16" width="1" height="1" fill="#a57d01"/>
    <rect x="1" y="17" width="1" height="1" fill="#a57d01"/>
    <rect y="17" width="1" height="1" fill="#a57d01"/>
    <rect x="1" y="18" width="1" height="1" fill="#a57d01"/>
    <rect y="18" width="1" height="1" fill="#a57d01"/>
    <rect x="1" y="19" width="1" height="1" fill="#a57d01"/>
    <rect y="19" width="1" height="1" fill="#a57d01"/>
    <rect x="1" y="20" width="1" height="1" fill="#a57d01"/>
    <rect y="20" width="1" height="1" fill="#a57d01"/>
    <rect x="1" y="21" width="1" height="1" fill="#a57d01"/>
    <rect y="21" width="1" height="1" fill="#a57d01"/>
    <rect x="1" y="22" width="1" height="1" fill="#a57d01"/>
    <rect y="22" width="1" height="1" fill="#a57d01"/>
    <rect x="1" y="23" width="1" height="1" fill="#a57d01"/>
    <rect y="23" width="1" height="1" fill="#a57d01"/>
    <rect x="1" y="24" width="1" height="1" fill="#a57d01"/>
    <rect y="24" width="1" height="1" fill="#a57d01"/>
    <rect x="1" y="25" width="1" height="1" fill="#a57d01"/>
    <rect y="25" width="1" height="1" fill="#a57d01"/>
    <rect x="1" y="26" width="1" height="1" fill="#a57d01"/>
    <rect y="26" width="1" height="1" fill="#a57d01"/>
    <rect x="1" y="27" width="1" height="1" fill="#a57d01"/>
    <rect y="27" width="1" height="1" fill="#a57d01"/>
    <rect x="1" y="28" width="1" height="1" fill="#a57d01"/>
    <rect y="28" width="1" height="1" fill="#a57d01"/>
    <rect x="1" y="29" width="1" height="1" fill="#a57d01"/>
    <rect y="29" width="1" height="1" fill="#a57d01"/>
    <rect x="1" y="30" width="1" height="1" fill="#a57d01"/>
    <rect y="30" width="1" height="1" fill="#a57d01"/>
    <rect x="1" y="31" width="1" height="1" fill="#a57d01"/>
    <rect x="2" y="32" width="1" height="1" fill="#a57d01"/>
    <rect x="3" y="32" width="1" height="1" fill="#a57d01"/>
    <rect x="4" y="32" width="1" height="1" fill="#a57d01"/>
    <rect x="5" y="31" width="1" height="1" fill="#a57d01"/>
    <rect x="6" y="31" width="1" height="1" fill="#a57d01"/>
    <rect x="7" y="31" width="1" height="1" fill="#a57d01"/>
    <rect x="2" y="31" width="1" height="1" fill="#a57d01"/>
    <rect x="3" y="31" width="1" height="1" fill="#a57d01"/>
    <rect x="4" y="31" width="1" height="1" fill="#a57d01"/>
    <rect x="5" y="30" width="1" height="1" fill="#a57d01"/>
    <rect x="6" y="30" width="1" height="1" fill="#a57d01"/>
    <rect x="7" y="30" width="1" height="1" fill="#a57d01"/>
    <rect x="32" y="31" width="1" height="1" fill="#a57d01"/>
    <rect x="33" y="31" width="1" height="1" fill="#a57d01"/>
    <rect x="34" y="31" width="1" height="1" fill="#a57d01"/>
    <rect x="35" y="32" width="1" height="1" fill="#a57d01"/>
    <rect x="36" y="32" width="1" height="1" fill="#a57d01"/>
    <rect x="37" y="32" width="1" height="1" fill="#a57d01"/>
    <rect x="32" y="30" width="1" height="1" fill="#a57d01"/>
    <rect x="33" y="30" width="1" height="1" fill="#a57d01"/>
    <rect x="34" y="30" width="1" height="1" fill="#a57d01"/>
    <rect x="35" y="31" width="1" height="1" fill="#a57d01"/>
    <rect x="36" y="31" width="1" height="1" fill="#a57d01"/>
    <rect x="37" y="31" width="1" height="1" fill="#a57d01"/>
    <rect x="8" y="30" width="1" height="1" fill="#a57d01"/>
    <rect x="31" y="30" width="1" height="1" fill="#a57d01"/>
    <rect x="8" y="29" width="1" height="1" fill="#a57d01"/>
    <rect x="9" y="29" width="1" height="1" fill="#a57d01"/>
    <rect x="10" y="29" width="1" height="1" fill="#a57d01"/>
    <rect x="11" y="29" width="1" height="1" fill="#a57d01"/>
    <rect x="12" y="29" width="1" height="1" fill="#a57d01"/>
    <rect x="13" y="29" width="1" height="1" fill="#a57d01"/>
    <rect x="14" y="29" width="1" height="1" fill="#a57d01"/>
    <rect x="15" y="29" width="1" height="1" fill="#a57d01"/>
    <rect x="9" y="30" width="1" height="1" fill="#a57d01"/>
    <rect x="10" y="30" width="1" height="1" fill="#a57d01"/>
    <rect x="11" y="30" width="1" height="1" fill="#a57d01"/>
    <rect x="12" y="30" width="1" height="1" fill="#a57d01"/>
    <rect x="13" y="30" width="1" height="1" fill="#a57d01"/>
    <rect x="14" y="30" width="1" height="1" fill="#a57d01"/>
    <rect x="15" y="30" width="1" height="1" fill="#a57d01"/>
    <rect x="24" y="30" width="1" height="1" fill="#a57d01"/>
    <rect x="25" y="30" width="1" height="1" fill="#a57d01"/>
    <rect x="26" y="30" width="1" height="1" fill="#a57d01"/>
    <rect x="27" y="30" width="1" height="1" fill="#a57d01"/>
    <rect x="28" y="30" width="1" height="1" fill="#a57d01"/>
    <rect x="29" y="30" width="1" height="1" fill="#a57d01"/>
    <rect x="30" y="30" width="1" height="1" fill="#a57d01"/>
    <rect x="24" y="29" width="1" height="1" fill="#a57d01"/>
    <rect x="25" y="29" width="1" height="1" fill="#a57d01"/>
    <rect x="26" y="29" width="1" height="1" fill="#a57d01"/>
    <rect x="27" y="29" width="1" height="1" fill="#a57d01"/>
    <rect x="28" y="29" width="1" height="1" fill="#a57d01"/>
    <rect x="29" y="29" width="1" height="1" fill="#a57d01"/>
    <rect x="30" y="29" width="1" height="1" fill="#a57d01"/>
    <rect x="31" y="29" width="1" height="1" fill="#a57d01"/>
    <rect x="16" y="31" width="1" height="1" fill="#a57d01"/>
    <rect x="16" y="30" width="1" height="1" fill="#a57d01"/>
    <rect x="23" y="30" width="1" height="1" fill="#a57d01"/>
    <rect x="17" y="31" width="1" height="1" fill="#a57d01"/>
    <rect x="18" y="31" width="1" height="1" fill="#a57d01"/>
    <rect x="19" y="31" width="1" height="1" fill="#a57d01"/>
    <rect x="20" y="31" width="1" height="1" fill="#a57d01"/>
    <rect x="21" y="31" width="1" height="1" fill="#a57d01"/>
    <rect x="22" y="31" width="1" height="1" fill="#a57d01"/>
    <rect x="23" y="31" width="1" height="1" fill="#a57d01"/>
    <rect y="31" width="1" height="1" fill="#a57d01"/>
    <rect y="13" width="1" height="1" fill="#a57d01"/>
    <rect x="39" y="14" width="1" height="1" fill="#a57d01"/>
    <rect x="39" y="13" width="1" height="1" fill="#a57d01"/>
    <rect x="38" y="14" width="1" height="1" fill="#a57d01"/>
    <rect x="39" y="15" width="1" height="1" fill="#a57d01"/>
    <rect x="38" y="15" width="1" height="1" fill="#a57d01"/>
    <rect x="39" y="16" width="1" height="1" fill="#a57d01"/>
    <rect x="38" y="16" width="1" height="1" fill="#a57d01"/>
    <rect x="39" y="17" width="1" height="1" fill="#a57d01"/>
    <rect x="38" y="17" width="1" height="1" fill="#a57d01"/>
    <rect x="39" y="18" width="1" height="1" fill="#a57d01"/>
    <rect x="38" y="18" width="1" height="1" fill="#a57d01"/>
    <rect x="39" y="19" width="1" height="1" fill="#a57d01"/>
    <rect x="38" y="19" width="1" height="1" fill="#a57d01"/>
    <rect x="39" y="20" width="1" height="1" fill="#a57d01"/>
    <rect x="38" y="20" width="1" height="1" fill="#a57d01"/>
    <rect x="39" y="21" width="1" height="1" fill="#a57d01"/>
    <rect x="38" y="21" width="1" height="1" fill="#a57d01"/>
    <rect x="39" y="22" width="1" height="1" fill="#a57d01"/>
    <rect x="38" y="22" width="1" height="1" fill="#a57d01"/>
    <rect x="39" y="23" width="1" height="1" fill="#a57d01"/>
    <rect x="38" y="23" width="1" height="1" fill="#a57d01"/>
    <rect x="39" y="24" width="1" height="1" fill="#a57d01"/>
    <rect x="38" y="24" width="1" height="1" fill="#a57d01"/>
    <rect x="39" y="25" width="1" height="1" fill="#a57d01"/>
    <rect x="38" y="25" width="1" height="1" fill="#a57d01"/>
    <rect x="39" y="26" width="1" height="1" fill="#a57d01"/>
    <rect x="38" y="26" width="1" height="1" fill="#a57d01"/>
    <rect x="39" y="27" width="1" height="1" fill="#a57d01"/>
    <rect x="38" y="27" width="1" height="1" fill="#a57d01"/>
    <rect x="39" y="28" width="1" height="1" fill="#a57d01"/>
    <rect x="38" y="28" width="1" height="1" fill="#a57d01"/>
    <rect x="39" y="29" width="1" height="1" fill="#a57d01"/>
    <rect x="38" y="29" width="1" height="1" fill="#a57d01"/>
    <rect x="39" y="30" width="1" height="1" fill="#a57d01"/>
    <rect x="38" y="30" width="1" height="1" fill="#a57d01"/>
    <rect x="39" y="31" width="1" height="1" fill="#a57d01"/>
    <rect x="38" y="31" width="1" height="1" fill="#a57d01"/>
    <rect x="38" y="13" width="1" height="1" fill="#a57d01"/>
    <rect x="37" y="13" width="1" height="1" fill="#a57d01"/>
    <rect x="37" y="12" width="1" height="1" fill="#a57d01"/>
    <rect x="36" y="12" width="1" height="1" fill="#a57d01"/>
    <rect x="35" y="11" width="1" height="1" fill="#a57d01"/>
    <rect x="35" y="12" width="1" height="1" fill="#a57d01"/>
    <rect x="35" y="13" width="1" height="1" fill="#a57d01"/>
    <rect x="35" y="14" width="1" height="1" fill="#a57d01"/>
    <rect x="35" y="15" width="1" height="1" fill="#a57d01"/>
    <rect x="35" y="16" width="1" height="1" fill="#a57d01"/>
    <rect x="35" y="17" width="1" height="1" fill="#a57d01"/>
    <rect x="35" y="18" width="1" height="1" fill="#a57d01"/>
    <rect x="35" y="19" width="1" height="1" fill="#a57d01"/>
    <rect x="35" y="20" width="1" height="1" fill="#a57d01"/>
    <rect x="35" y="21" width="1" height="1" fill="#a57d01"/>
    <rect x="35" y="22" width="1" height="1" fill="#a57d01"/>
    <rect x="35" y="23" width="1" height="1" fill="#a57d01"/>
    <rect x="35" y="24" width="1" height="1" fill="#a57d01"/>
    <rect x="35" y="25" width="1" height="1" fill="#a57d01"/>
    <rect x="35" y="26" width="1" height="1" fill="#a57d01"/>
    <rect x="34" y="23" width="1" height="1" fill="#a57d01"/>
    <rect x="34" y="26" width="1" height="1" fill="#a57d01"/>
    <rect x="33" y="23" width="1" height="1" fill="#a57d01"/>
    <rect x="33" y="26" width="1" height="1" fill="#a57d01"/>
    <rect x="32" y="22" width="1" height="1" fill="#a57d01"/>
    <rect x="32" y="25" width="1" height="1" fill="#a57d01"/>
    <rect x="31" y="22" width="1" height="1" fill="#a57d01"/>
    <rect x="31" y="25" width="1" height="1" fill="#a57d01"/>
    <rect x="30" y="22" width="1" height="1" fill="#a57d01"/>
    <rect x="30" y="25" width="1" height="1" fill="#a57d01"/>
    <rect x="29" y="22" width="1" height="1" fill="#a57d01"/>
    <rect x="29" y="25" width="1" height="1" fill="#a57d01"/>
    <rect x="28" y="22" width="1" height="1" fill="#a57d01"/>
    <rect x="28" y="25" width="1" height="1" fill="#a57d01"/>
    <rect x="27" y="22" width="1" height="1" fill="#a57d01"/>
    <rect x="27" y="25" width="1" height="1" fill="#a57d01"/>
    <rect x="26" y="22" width="1" height="1" fill="#a57d01"/>
    <rect x="26" y="25" width="1" height="1" fill="#a57d01"/>
    <rect x="25" y="22" width="1" height="1" fill="#a57d01"/>
    <rect x="25" y="25" width="1" height="1" fill="#a57d01"/>
    <rect x="24" y="22" width="1" height="1" fill="#a57d01"/>
    <rect x="24" y="25" width="1" height="1" fill="#a57d01"/>
    <rect x="23" y="23" width="1" height="1" fill="#a57d01"/>
    <rect x="23" y="26" width="1" height="1" fill="#a57d01"/>
    <rect x="22" y="23" width="1" height="1" fill="#a57d01"/>
    <rect x="22" y="26" width="1" height="1" fill="#a57d01"/>
    <rect x="21" y="24" width="1" height="1" fill="#a57d01"/>
    <rect x="21" y="27" width="1" height="1" fill="#a57d01"/>
    <rect x="21" y="25" width="1" height="1" fill="#a57d01"/>
    <rect x="21" y="28" width="1" height="1" fill="#a57d01"/>
    <rect x="20" y="25" width="1" height="1" fill="#a57d01"/>
    <rect x="20" y="28" width="1" height="1" fill="#a57d01"/>
    <rect x="19" y="25" width="1" height="1" fill="#a57d01"/>
    <rect x="19" y="28" width="1" height="1" fill="#a57d01"/>
    <rect x="18" y="25" width="1" height="1" fill="#a57d01"/>
    <rect x="18" y="28" width="1" height="1" fill="#a57d01"/>
    <rect x="18" y="24" width="1" height="1" fill="#a57d01"/>
    <rect x="18" y="27" width="1" height="1" fill="#a57d01"/>
    <rect x="17" y="23" width="1" height="1" fill="#a57d01"/>
    <rect x="17" y="26" width="1" height="1" fill="#a57d01"/>
    <rect x="16" y="23" width="1" height="1" fill="#a57d01"/>
    <rect x="16" y="26" width="1" height="1" fill="#a57d01"/>
    <rect x="19" y="24" width="1" height="1" fill="#a57d01"/>
    <rect x="19" y="27" width="1" height="1" fill="#a57d01"/>
    <rect x="20" y="24" width="1" height="1" fill="#a57d01"/>
    <rect x="20" y="27" width="1" height="1" fill="#a57d01"/>
    <rect x="15" y="22" width="1" height="1" fill="#a57d01"/>
    <rect x="15" y="25" width="1" height="1" fill="#a57d01"/>
    <rect x="14" y="22" width="1" height="1" fill="#a57d01"/>
    <rect x="13" y="22" width="1" height="1" fill="#a57d01"/>
    <rect x="12" y="22" width="1" height="1" fill="#a57d01"/>
    <rect x="11" y="22" width="1" height="1" fill="#a57d01"/>
    <rect x="10" y="22" width="1" height="1" fill="#a57d01"/>
    <rect x="9" y="22" width="1" height="1" fill="#a57d01"/>
    <rect x="8" y="22" width="1" height="1" fill="#a57d01"/>
    <rect x="7" y="22" width="1" height="1" fill="#a57d01"/>
    <rect x="7" y="25" width="1" height="1" fill="#a57d01"/>
    <rect x="6" y="23" width="1" height="1" fill="#a57d01"/>
    <rect x="6" y="26" width="1" height="1" fill="#a57d01"/>
    <rect x="5" y="23" width="1" height="1" fill="#a57d01"/>
    <rect x="5" y="26" width="1" height="1" fill="#a57d01"/>
    <rect x="7" y="12" width="1" height="1" fill="#a57d01"/>
    <rect x="8" y="12" width="1" height="1" fill="#a57d01"/>
    <rect x="10" y="11" width="1" height="1" fill="#a57d01"/>
    <rect x="11" y="11" width="1" height="1" fill="#a57d01"/>
    <rect x="13" y="11" width="1" height="1" fill="#a57d01"/>
    <rect x="14" y="11" width="1" height="1" fill="#a57d01"/>
    <rect x="16" y="12" width="1" height="1" fill="#a57d01"/>
    <rect x="17" y="12" width="1" height="1" fill="#a57d01"/>
    <rect x="7" y="16" width="1" height="1" fill="#a57d01"/>
    <rect x="8" y="16" width="1" height="1" fill="#a57d01"/>
    <rect x="10" y="15" width="1" height="1" fill="#a57d01"/>
    <rect x="11" y="15" width="1" height="1" fill="#a57d01"/>
    <rect x="13" y="15" width="1" height="1" fill="#a57d01"/>
    <rect x="14" y="15" width="1" height="1" fill="#a57d01"/>
    <rect x="16" y="16" width="1" height="1" fill="#a57d01"/>
    <rect x="17" y="16" width="1" height="1" fill="#a57d01"/>
    <rect x="22" y="12" width="1" height="1" fill="#a57d01"/>
    <rect x="23" y="12" width="1" height="1" fill="#a57d01"/>
    <rect x="25" y="11" width="1" height="1" fill="#a57d01"/>
    <rect x="26" y="11" width="1" height="1" fill="#a57d01"/>
    <rect x="28" y="11" width="1" height="1" fill="#a57d01"/>
    <rect x="29" y="11" width="1" height="1" fill="#a57d01"/>
    <rect x="31" y="12" width="1" height="1" fill="#a57d01"/>
    <rect x="32" y="12" width="1" height="1" fill="#a57d01"/>
    <rect x="22" y="16" width="1" height="1" fill="#a57d01"/>
    <rect x="23" y="16" width="1" height="1" fill="#a57d01"/>
    <rect x="25" y="15" width="1" height="1" fill="#a57d01"/>
    <rect x="26" y="15" width="1" height="1" fill="#a57d01"/>
    <rect x="28" y="15" width="1" height="1" fill="#a57d01"/>
    <rect x="29" y="15" width="1" height="1" fill="#a57d01"/>
    <rect x="31" y="16" width="1" height="1" fill="#a57d01"/>
    <rect x="32" y="16" width="1" height="1" fill="#a57d01"/>
    <rect x="14" y="25" width="1" height="1" fill="#a57d01"/>
    <rect x="13" y="25" width="1" height="1" fill="#a57d01"/>
    <rect x="12" y="25" width="1" height="1" fill="#a57d01"/>
    <rect x="11" y="25" width="1" height="1" fill="#a57d01"/>
    <rect x="10" y="25" width="1" height="1" fill="#a57d01"/>
    <rect x="9" y="25" width="1" height="1" fill="#a57d01"/>
    <rect x="8" y="25" width="1" height="1" fill="#a57d01"/>
    <rect x="3" y="12" width="1" height="1" fill="#a57d01"/>
    <rect x="4" y="12" width="1" height="1" fill="#a57d01"/>
    <rect x="4" y="13" width="1" height="1" fill="#a57d01"/>
    <rect x="4" y="14" width="1" height="1" fill="#a57d01"/>
    <rect x="4" y="15" width="1" height="1" fill="#a57d01"/>
    <rect x="4" y="16" width="1" height="1" fill="#a57d01"/>
    <rect x="4" y="17" width="1" height="1" fill="#a57d01"/>
    <rect x="4" y="18" width="1" height="1" fill="#a57d01"/>
    <rect x="4" y="19" width="1" height="1" fill="#a57d01"/>
    <rect x="4" y="20" width="1" height="1" fill="#a57d01"/>
    <rect x="4" y="21" width="1" height="1" fill="#a57d01"/>
    <rect x="4" y="22" width="1" height="1" fill="#a57d01"/>
    <rect x="4" y="23" width="1" height="1" fill="#a57d01"/>
    <rect x="4" y="24" width="1" height="1" fill="#a57d01"/>
    <rect x="4" y="25" width="1" height="1" fill="#a57d01"/>
    <rect x="4" y="26" width="1" height="1" fill="#a57d01"/>
    <rect x="4" y="11" width="1" height="1" fill="#a57d01"/>
    <rect x="4" y="10" width="1" height="1" fill="#a57d01"/>
    <rect x="5" y="9" width="1" height="1" fill="#a57d01"/>
    <rect x="6" y="9" width="1" height="1" fill="#a57d01"/>
    <rect x="7" y="8" width="1" height="1" fill="#a57d01"/>
    <rect x="7" y="7" width="1" height="1" fill="#a57d01"/>
    <rect x="8" y="6" width="1" height="1" fill="#a57d01"/>
    <rect x="9" y="6" width="1" height="1" fill="#a57d01"/>
    <rect x="10" y="6" width="1" height="1" fill="#a57d01"/>
    <rect x="11" y="6" width="1" height="1" fill="#a57d01"/>
    <rect x="12" y="6" width="1" height="1" fill="#a57d01"/>
    <rect x="13" y="6" width="1" height="1" fill="#a57d01"/>
    <rect x="14" y="6" width="1" height="1" fill="#a57d01"/>
    <rect x="15" y="6" width="1" height="1" fill="#a57d01"/>
    <rect x="24" y="6" width="1" height="1" fill="#a57d01"/>
    <rect x="25" y="6" width="1" height="1" fill="#a57d01"/>
    <rect x="26" y="6" width="1" height="1" fill="#a57d01"/>
    <rect x="27" y="6" width="1" height="1" fill="#a57d01"/>
    <rect x="28" y="6" width="1" height="1" fill="#a57d01"/>
    <rect x="29" y="6" width="1" height="1" fill="#a57d01"/>
    <rect x="30" y="6" width="1" height="1" fill="#a57d01"/>
    <rect x="31" y="6" width="1" height="1" fill="#a57d01"/>
    <rect x="32" y="7" width="1" height="1" fill="#a57d01"/>
    <rect x="32" y="8" width="1" height="1" fill="#a57d01"/>
    <rect x="33" y="9" width="1" height="1" fill="#a57d01"/>
    <rect x="34" y="9" width="1" height="1" fill="#a57d01"/>
    <rect x="34" y="10" width="1" height="1" fill="#a57d01"/>
    <rect x="16" y="7" width="1" height="1" fill="#a57d01"/>
    <rect x="17" y="7" width="1" height="1" fill="#a57d01"/>
    <rect x="16" y="8" width="1" height="1" fill="#a57d01"/>
    <rect x="17" y="8" width="1" height="1" fill="#a57d01"/>
    <rect x="22" y="7" width="1" height="1" fill="#a57d01"/>
    <rect x="23" y="7" width="1" height="1" fill="#a57d01"/>
    <rect x="22" y="8" width="1" height="1" fill="#a57d01"/>
    <rect x="23" y="8" width="1" height="1" fill="#a57d01"/>
    <rect x="18" y="9" width="1" height="1" fill="#a57d01"/>
    <rect x="21" y="9" width="1" height="1" fill="#a57d01"/>
    <rect x="18" y="10" width="1" height="1" fill="#a57d01"/>
    <rect x="19" y="10" width="1" height="1" fill="#a57d01"/>
    <rect x="20" y="10" width="1" height="1" fill="#a57d01"/>
    <rect x="19" y="11" width="1" height="1" fill="#a57d01"/>
    <rect x="20" y="11" width="1" height="1" fill="#a57d01"/>
    <rect x="19" y="12" width="1" height="1" fill="#a57d01"/>
    <rect x="20" y="12" width="1" height="1" fill="#a57d01"/>
    <rect x="19" y="13" width="1" height="1" fill="#a57d01"/>
    <rect x="20" y="13" width="1" height="1" fill="#a57d01"/>
    <rect x="19" y="14" width="1" height="1" fill="#a57d01"/>
    <rect x="20" y="14" width="1" height="1" fill="#a57d01"/>
    <rect x="19" y="15" width="1" height="1" fill="#a57d01"/>
    <rect x="20" y="15" width="1" height="1" fill="#a57d01"/>
    <rect x="19" y="16" width="1" height="1" fill="#a57d01"/>
    <rect x="20" y="16" width="1" height="1" fill="#a57d01"/>
    <rect x="19" y="17" width="1" height="1" fill="#a57d01"/>
    <rect x="20" y="17" width="1" height="1" fill="#a57d01"/>
    <rect x="19" y="18" width="1" height="1" fill="#a57d01"/>
    <rect x="20" y="18" width="1" height="1" fill="#a57d01"/>
    <rect x="19" y="19" width="1" height="1" fill="#a57d01"/>
    <rect x="20" y="19" width="1" height="1" fill="#a57d01"/>
    <rect x="19" y="20" width="1" height="1" fill="#a57d01"/>
    <rect x="20" y="20" width="1" height="1" fill="#a57d01"/>
    <rect x="19" y="21" width="1" height="1" fill="#a57d01"/>
    <rect x="20" y="21" width="1" height="1" fill="#a57d01"/>
    <rect x="19" y="22" width="1" height="1" fill="#a57d01"/>
    <rect x="20" y="22" width="1" height="1" fill="#a57d01"/>
    <rect x="19" y="23" width="1" height="1" fill="#a57d01"/>
    <rect x="20" y="23" width="1" height="1" fill="#a57d01"/>
    <rect x="21" y="10" width="1" height="1" fill="#a57d01"/>
  </g>
</svg>
