<svg xmlns="http://www.w3.org/2000/svg" width="40" height="40" viewBox="0 0 40 40">
  <rect x="1" width="1" height="1" fill="#a57d01"/>
  <rect x="2" width="1" height="1" fill="#a57d01"/>
  <rect x="3" width="1" height="1" fill="#a57d01"/>
  <rect x="4" width="1" height="1" fill="#a57d01"/>
  <rect x="1" y="1" width="1" height="1" fill="#a57d01"/>
  <rect x="2" y="1" width="1" height="1" fill="#a57d01"/>
  <rect x="3" y="1" width="1" height="1" fill="#a57d01"/>
  <rect x="4" y="1" width="1" height="1" fill="#a57d01"/>
  <rect y="1" width="1" height="1" fill="#a57d01"/>
  <rect x="1" y="2" width="1" height="1" fill="#a57d01"/>
  <rect y="2" width="1" height="1" fill="#a57d01"/>
  <rect x="1" y="3" width="1" height="1" fill="#a57d01"/>
  <rect y="3" width="1" height="1" fill="#a57d01"/>
  <rect x="1" y="4" width="1" height="1" fill="#a57d01"/>
  <rect x="1" y="5" width="1" height="1" fill="#a57d01"/>
  <rect x="1" y="6" width="1" height="1" fill="#a57d01"/>
  <rect x="1" y="8" width="1" height="1" fill="#a57d01"/>
  <rect x="1" y="7" width="1" height="1" fill="#a57d01"/>
  <rect x="1" y="9" width="1" height="1" fill="#a57d01"/>
  <rect x="1" y="10" width="1" height="1" fill="#a57d01"/>
  <rect x="1" y="11" width="1" height="1" fill="#a57d01"/>
  <rect x="1" y="12" width="1" height="1" fill="#a57d01"/>
  <rect x="1" y="13" width="1" height="1" fill="#a57d01"/>
  <rect x="1" y="14" width="1" height="1" fill="#a57d01"/>
  <rect x="1" y="15" width="1" height="1" fill="#a57d01"/>
  <rect x="1" y="16" width="1" height="1" fill="#a57d01"/>
  <rect x="1" y="17" width="1" height="1" fill="#a57d01"/>
  <rect x="1" y="18" width="1" height="1" fill="#a57d01"/>
  <rect x="1" y="19" width="1" height="1" fill="#a57d01"/>
  <rect x="1" y="20" width="1" height="1" fill="#a57d01"/>
  <rect x="1" y="21" width="1" height="1" fill="#a57d01"/>
  <rect x="1" y="22" width="1" height="1" fill="#a57d01"/>
  <rect x="1" y="23" width="1" height="1" fill="#a57d01"/>
  <rect x="1" y="24" width="1" height="1" fill="#a57d01"/>
  <rect x="1" y="25" width="1" height="1" fill="#a57d01"/>
  <rect x="1" y="26" width="1" height="1" fill="#a57d01"/>
  <rect x="1" y="27" width="1" height="1" fill="#a57d01"/>
  <rect x="1" y="28" width="1" height="1" fill="#a57d01"/>
  <rect x="1" y="29" width="1" height="1" fill="#a57d01"/>
  <rect x="1" y="30" width="1" height="1" fill="#a57d01"/>
  <rect x="1" y="31" width="1" height="1" fill="#a57d01"/>
  <rect x="1" y="32" width="1" height="1" fill="#a57d01"/>
  <rect x="1" y="33" width="1" height="1" fill="#a57d01"/>
  <rect x="1" y="34" width="1" height="1" fill="#a57d01"/>
  <rect y="4" width="1" height="1" fill="#a57d01"/>
  <rect x="38" width="1" height="1" fill="#a57d01"/>
  <rect x="37" width="1" height="1" fill="#a57d01"/>
  <rect x="36" width="1" height="1" fill="#a57d01"/>
  <rect x="35" width="1" height="1" fill="#a57d01"/>
  <rect x="38" y="1" width="1" height="1" fill="#a57d01"/>
  <rect x="37" y="1" width="1" height="1" fill="#a57d01"/>
  <rect x="36" y="1" width="1" height="1" fill="#a57d01"/>
  <rect x="35" y="1" width="1" height="1" fill="#a57d01"/>
  <rect x="34" y="1" width="1" height="1" fill="#a57d01"/>
  <rect x="33" y="1" width="1" height="1" fill="#a57d01"/>
  <rect x="32" y="1" width="1" height="1" fill="#a57d01"/>
  <rect x="31" y="1" width="1" height="1" fill="#a57d01"/>
  <rect x="30" y="1" width="1" height="1" fill="#a57d01"/>
  <rect x="29" y="1" width="1" height="1" fill="#a57d01"/>
  <rect x="28" y="1" width="1" height="1" fill="#a57d01"/>
  <rect x="27" y="1" width="1" height="1" fill="#a57d01"/>
  <rect x="26" y="1" width="1" height="1" fill="#a57d01"/>
  <rect x="25" y="1" width="1" height="1" fill="#a57d01"/>
  <rect x="24" y="1" width="1" height="1" fill="#a57d01"/>
  <rect x="23" y="1" width="1" height="1" fill="#a57d01"/>
  <rect x="22" y="1" width="1" height="1" fill="#a57d01"/>
  <rect x="21" y="1" width="1" height="1" fill="#a57d01"/>
  <rect x="20" y="1" width="1" height="1" fill="#a57d01"/>
  <rect x="19" y="1" width="1" height="1" fill="#a57d01"/>
  <rect x="18" y="1" width="1" height="1" fill="#a57d01"/>
  <rect x="17" y="1" width="1" height="1" fill="#a57d01"/>
  <rect x="16" y="1" width="1" height="1" fill="#a57d01"/>
  <rect x="15" y="1" width="1" height="1" fill="#a57d01"/>
  <rect x="14" y="1" width="1" height="1" fill="#a57d01"/>
  <rect x="13" y="1" width="1" height="1" fill="#a57d01"/>
  <rect x="12" y="1" width="1" height="1" fill="#a57d01"/>
  <rect x="11" y="1" width="1" height="1" fill="#a57d01"/>
  <rect x="10" y="1" width="1" height="1" fill="#a57d01"/>
  <rect x="9" y="1" width="1" height="1" fill="#a57d01"/>
  <rect x="8" y="1" width="1" height="1" fill="#a57d01"/>
  <rect x="7" y="1" width="1" height="1" fill="#a57d01"/>
  <rect x="6" y="1" width="1" height="1" fill="#a57d01"/>
  <rect x="5" y="1" width="1" height="1" fill="#a57d01"/>
  <rect x="2" y="2" width="1" height="1" fill="#a57d01"/>
  <rect x="3" y="2" width="1" height="1" fill="#a57d01"/>
  <rect x="4" y="2" width="1" height="1" fill="#a57d01"/>
  <rect x="36" y="2" width="1" height="1" fill="#a57d01"/>
  <rect x="37" y="2" width="1" height="1" fill="#a57d01"/>
  <rect x="35" y="2" width="1" height="1" fill="#a57d01"/>
  <rect x="34" y="2" width="1" height="1" fill="#a57d01"/>
  <rect x="33" y="2" width="1" height="1" fill="#a57d01"/>
  <rect x="32" y="2" width="1" height="1" fill="#a57d01"/>
  <rect x="31" y="2" width="1" height="1" fill="#a57d01"/>
  <rect x="30" y="2" width="1" height="1" fill="#a57d01"/>
  <rect x="29" y="2" width="1" height="1" fill="#a57d01"/>
  <rect x="28" y="2" width="1" height="1" fill="#a57d01"/>
  <rect x="27" y="2" width="1" height="1" fill="#a57d01"/>
  <rect x="26" y="2" width="1" height="1" fill="#a57d01"/>
  <rect x="25" y="2" width="1" height="1" fill="#a57d01"/>
  <rect x="24" y="2" width="1" height="1" fill="#a57d01"/>
  <rect x="23" y="2" width="1" height="1" fill="#a57d01"/>
  <rect x="22" y="2" width="1" height="1" fill="#a57d01"/>
  <rect x="21" y="2" width="1" height="1" fill="#a57d01"/>
  <rect x="20" y="2" width="1" height="1" fill="#a57d01"/>
  <rect x="19" y="2" width="1" height="1" fill="#a57d01"/>
  <rect x="18" y="2" width="1" height="1" fill="#a57d01"/>
  <rect x="17" y="2" width="1" height="1" fill="#a57d01"/>
  <rect x="16" y="2" width="1" height="1" fill="#a57d01"/>
  <rect x="15" y="2" width="1" height="1" fill="#a57d01"/>
  <rect x="14" y="2" width="1" height="1" fill="#a57d01"/>
  <rect x="13" y="2" width="1" height="1" fill="#a57d01"/>
  <rect x="12" y="2" width="1" height="1" fill="#a57d01"/>
  <rect x="11" y="2" width="1" height="1" fill="#a57d01"/>
  <rect x="10" y="2" width="1" height="1" fill="#a57d01"/>
  <rect x="9" y="2" width="1" height="1" fill="#a57d01"/>
  <rect x="8" y="2" width="1" height="1" fill="#a57d01"/>
  <rect x="7" y="2" width="1" height="1" fill="#a57d01"/>
  <rect x="6" y="2" width="1" height="1" fill="#a57d01"/>
  <rect x="5" y="2" width="1" height="1" fill="#a57d01"/>
  <rect x="39" y="1" width="1" height="1" fill="#a57d01"/>
  <rect x="38" y="2" width="1" height="1" fill="#a57d01"/>
  <rect x="39" y="2" width="1" height="1" fill="#a57d01"/>
  <rect x="38" y="3" width="1" height="1" fill="#a57d01"/>
  <rect x="39" y="3" width="1" height="1" fill="#a57d01"/>
  <rect x="38" y="4" width="1" height="1" fill="#a57d01"/>
  <rect x="39" y="4" width="1" height="1" fill="#a57d01"/>
  <rect y="38" width="1" height="1" fill="#a57d01"/>
  <rect y="37" width="1" height="1" fill="#a57d01"/>
  <rect y="36" width="1" height="1" fill="#a57d01"/>
  <rect y="35" width="1" height="1" fill="#a57d01"/>
  <rect x="1" y="38" width="1" height="1" fill="#a57d01"/>
  <rect x="1" y="37" width="1" height="1" fill="#a57d01"/>
  <rect x="1" y="36" width="1" height="1" fill="#a57d01"/>
  <rect x="1" y="35" width="1" height="1" fill="#a57d01"/>
  <rect x="2" y="3" width="1" height="1" fill="#a57d01"/>
  <rect x="2" y="4" width="1" height="1" fill="#a57d01"/>
  <rect x="2" y="5" width="1" height="1" fill="#a57d01"/>
  <rect x="2" y="6" width="1" height="1" fill="#a57d01"/>
  <rect x="2" y="8" width="1" height="1" fill="#a57d01"/>
  <rect x="2" y="7" width="1" height="1" fill="#a57d01"/>
  <rect x="2" y="9" width="1" height="1" fill="#a57d01"/>
  <rect x="2" y="10" width="1" height="1" fill="#a57d01"/>
  <rect x="2" y="11" width="1" height="1" fill="#a57d01"/>
  <rect x="2" y="12" width="1" height="1" fill="#a57d01"/>
  <rect x="2" y="13" width="1" height="1" fill="#a57d01"/>
  <rect x="2" y="14" width="1" height="1" fill="#a57d01"/>
  <rect x="2" y="15" width="1" height="1" fill="#a57d01"/>
  <rect x="2" y="16" width="1" height="1" fill="#a57d01"/>
  <rect x="2" y="17" width="1" height="1" fill="#a57d01"/>
  <rect x="2" y="18" width="1" height="1" fill="#a57d01"/>
  <rect x="2" y="19" width="1" height="1" fill="#a57d01"/>
  <rect x="2" y="20" width="1" height="1" fill="#a57d01"/>
  <rect x="2" y="21" width="1" height="1" fill="#a57d01"/>
  <rect x="2" y="22" width="1" height="1" fill="#a57d01"/>
  <rect x="2" y="23" width="1" height="1" fill="#a57d01"/>
  <rect x="2" y="24" width="1" height="1" fill="#a57d01"/>
  <rect x="2" y="25" width="1" height="1" fill="#a57d01"/>
  <rect x="2" y="26" width="1" height="1" fill="#a57d01"/>
  <rect x="2" y="27" width="1" height="1" fill="#a57d01"/>
  <rect x="2" y="28" width="1" height="1" fill="#a57d01"/>
  <rect x="2" y="29" width="1" height="1" fill="#a57d01"/>
  <rect x="2" y="30" width="1" height="1" fill="#a57d01"/>
  <rect x="2" y="31" width="1" height="1" fill="#a57d01"/>
  <rect x="2" y="32" width="1" height="1" fill="#a57d01"/>
  <rect x="2" y="33" width="1" height="1" fill="#a57d01"/>
  <rect x="2" y="34" width="1" height="1" fill="#a57d01"/>
  <rect x="2" y="37" width="1" height="1" fill="#a57d01"/>
  <rect x="2" y="36" width="1" height="1" fill="#a57d01"/>
  <rect x="2" y="35" width="1" height="1" fill="#a57d01"/>
  <rect x="1" y="39" width="1" height="1" fill="#a57d01"/>
  <rect x="2" y="38" width="1" height="1" fill="#a57d01"/>
  <rect x="2" y="39" width="1" height="1" fill="#a57d01"/>
  <rect x="3" y="38" width="1" height="1" fill="#a57d01"/>
  <rect x="3" y="39" width="1" height="1" fill="#a57d01"/>
  <rect x="4" y="38" width="1" height="1" fill="#a57d01"/>
  <rect x="3" y="37" width="1" height="1" fill="#a57d01"/>
  <rect x="4" y="37" width="1" height="1" fill="#a57d01"/>
  <rect x="5" y="38" width="1" height="1" fill="#a57d01"/>
  <rect x="6" y="38" width="1" height="1" fill="#a57d01"/>
  <rect x="7" y="38" width="1" height="1" fill="#a57d01"/>
  <rect x="8" y="38" width="1" height="1" fill="#a57d01"/>
  <rect x="9" y="38" width="1" height="1" fill="#a57d01"/>
  <rect x="10" y="38" width="1" height="1" fill="#a57d01"/>
  <rect x="11" y="38" width="1" height="1" fill="#a57d01"/>
  <rect x="12" y="38" width="1" height="1" fill="#a57d01"/>
  <rect x="13" y="38" width="1" height="1" fill="#a57d01"/>
  <rect x="14" y="38" width="1" height="1" fill="#a57d01"/>
  <rect x="15" y="38" width="1" height="1" fill="#a57d01"/>
  <rect x="16" y="38" width="1" height="1" fill="#a57d01"/>
  <rect x="17" y="38" width="1" height="1" fill="#a57d01"/>
  <rect x="18" y="38" width="1" height="1" fill="#a57d01"/>
  <rect x="19" y="38" width="1" height="1" fill="#a57d01"/>
  <rect x="20" y="38" width="1" height="1" fill="#a57d01"/>
  <rect x="21" y="38" width="1" height="1" fill="#a57d01"/>
  <rect x="22" y="38" width="1" height="1" fill="#a57d01"/>
  <rect x="23" y="38" width="1" height="1" fill="#a57d01"/>
  <rect x="24" y="38" width="1" height="1" fill="#a57d01"/>
  <rect x="25" y="38" width="1" height="1" fill="#a57d01"/>
  <rect x="26" y="38" width="1" height="1" fill="#a57d01"/>
  <rect x="27" y="38" width="1" height="1" fill="#a57d01"/>
  <rect x="28" y="38" width="1" height="1" fill="#a57d01"/>
  <rect x="29" y="38" width="1" height="1" fill="#a57d01"/>
  <rect x="30" y="38" width="1" height="1" fill="#a57d01"/>
  <rect x="31" y="38" width="1" height="1" fill="#a57d01"/>
  <rect x="32" y="38" width="1" height="1" fill="#a57d01"/>
  <rect x="33" y="38" width="1" height="1" fill="#a57d01"/>
  <rect x="34" y="38" width="1" height="1" fill="#a57d01"/>
  <rect x="4" y="39" width="1" height="1" fill="#a57d01"/>
  <rect x="39" y="38" width="1" height="1" fill="#a57d01"/>
  <rect x="39" y="37" width="1" height="1" fill="#a57d01"/>
  <rect x="39" y="36" width="1" height="1" fill="#a57d01"/>
  <rect x="39" y="35" width="1" height="1" fill="#a57d01"/>
  <rect x="38" y="38" width="1" height="1" fill="#a57d01"/>
  <rect x="38" y="37" width="1" height="1" fill="#a57d01"/>
  <rect x="38" y="36" width="1" height="1" fill="#a57d01"/>
  <rect x="38" y="35" width="1" height="1" fill="#a57d01"/>
  <rect x="38" y="34" width="1" height="1" fill="#a57d01"/>
  <rect x="38" y="33" width="1" height="1" fill="#a57d01"/>
  <rect x="38" y="32" width="1" height="1" fill="#a57d01"/>
  <rect x="38" y="31" width="1" height="1" fill="#a57d01"/>
  <rect x="38" y="30" width="1" height="1" fill="#a57d01"/>
  <rect x="38" y="29" width="1" height="1" fill="#a57d01"/>
  <rect x="38" y="28" width="1" height="1" fill="#a57d01"/>
  <rect x="38" y="27" width="1" height="1" fill="#a57d01"/>
  <rect x="38" y="26" width="1" height="1" fill="#a57d01"/>
  <rect x="38" y="25" width="1" height="1" fill="#a57d01"/>
  <rect x="38" y="24" width="1" height="1" fill="#a57d01"/>
  <rect x="38" y="23" width="1" height="1" fill="#a57d01"/>
  <rect x="38" y="22" width="1" height="1" fill="#a57d01"/>
  <rect x="38" y="21" width="1" height="1" fill="#a57d01"/>
  <rect x="38" y="20" width="1" height="1" fill="#a57d01"/>
  <rect x="38" y="19" width="1" height="1" fill="#a57d01"/>
  <rect x="38" y="18" width="1" height="1" fill="#a57d01"/>
  <rect x="38" y="17" width="1" height="1" fill="#a57d01"/>
  <rect x="38" y="16" width="1" height="1" fill="#a57d01"/>
  <rect x="38" y="15" width="1" height="1" fill="#a57d01"/>
  <rect x="38" y="14" width="1" height="1" fill="#a57d01"/>
  <rect x="38" y="13" width="1" height="1" fill="#a57d01"/>
  <rect x="38" y="12" width="1" height="1" fill="#a57d01"/>
  <rect x="38" y="11" width="1" height="1" fill="#a57d01"/>
  <rect x="38" y="10" width="1" height="1" fill="#a57d01"/>
  <rect x="38" y="9" width="1" height="1" fill="#a57d01"/>
  <rect x="38" y="8" width="1" height="1" fill="#a57d01"/>
  <rect x="38" y="6" width="1" height="1" fill="#a57d01"/>
  <rect x="38" y="7" width="1" height="1" fill="#a57d01"/>
  <rect x="38" y="5" width="1" height="1" fill="#a57d01"/>
  <rect x="37" y="3" width="1" height="1" fill="#a57d01"/>
  <rect x="37" y="4" width="1" height="1" fill="#a57d01"/>
  <rect x="37" y="34" width="1" height="1" fill="#a57d01"/>
  <rect x="37" y="33" width="1" height="1" fill="#a57d01"/>
  <rect x="37" y="32" width="1" height="1" fill="#a57d01"/>
  <rect x="37" y="31" width="1" height="1" fill="#a57d01"/>
  <rect x="37" y="30" width="1" height="1" fill="#a57d01"/>
  <rect x="37" y="29" width="1" height="1" fill="#a57d01"/>
  <rect x="37" y="28" width="1" height="1" fill="#a57d01"/>
  <rect x="37" y="27" width="1" height="1" fill="#a57d01"/>
  <rect x="37" y="26" width="1" height="1" fill="#a57d01"/>
  <rect x="37" y="25" width="1" height="1" fill="#a57d01"/>
  <rect x="37" y="24" width="1" height="1" fill="#a57d01"/>
  <rect x="37" y="23" width="1" height="1" fill="#a57d01"/>
  <rect x="37" y="22" width="1" height="1" fill="#a57d01"/>
  <rect x="37" y="21" width="1" height="1" fill="#a57d01"/>
  <rect x="37" y="20" width="1" height="1" fill="#a57d01"/>
  <rect x="37" y="19" width="1" height="1" fill="#a57d01"/>
  <rect x="37" y="18" width="1" height="1" fill="#a57d01"/>
  <rect x="37" y="17" width="1" height="1" fill="#a57d01"/>
  <rect x="37" y="16" width="1" height="1" fill="#a57d01"/>
  <rect x="37" y="15" width="1" height="1" fill="#a57d01"/>
  <rect x="37" y="14" width="1" height="1" fill="#a57d01"/>
  <rect x="37" y="13" width="1" height="1" fill="#a57d01"/>
  <rect x="37" y="12" width="1" height="1" fill="#a57d01"/>
  <rect x="37" y="11" width="1" height="1" fill="#a57d01"/>
  <rect x="37" y="10" width="1" height="1" fill="#a57d01"/>
  <rect x="37" y="9" width="1" height="1" fill="#a57d01"/>
  <rect x="37" y="8" width="1" height="1" fill="#a57d01"/>
  <rect x="37" y="6" width="1" height="1" fill="#a57d01"/>
  <rect x="37" y="7" width="1" height="1" fill="#a57d01"/>
  <rect x="37" y="5" width="1" height="1" fill="#a57d01"/>
  <rect x="38" y="39" width="1" height="1" fill="#a57d01"/>
  <rect x="37" y="38" width="1" height="1" fill="#a57d01"/>
  <rect x="37" y="39" width="1" height="1" fill="#a57d01"/>
  <rect x="36" y="38" width="1" height="1" fill="#a57d01"/>
  <rect x="36" y="39" width="1" height="1" fill="#a57d01"/>
  <rect x="35" y="38" width="1" height="1" fill="#a57d01"/>
  <rect x="5" y="37" width="1" height="1" fill="#a57d01"/>
  <rect x="6" y="37" width="1" height="1" fill="#a57d01"/>
  <rect x="7" y="37" width="1" height="1" fill="#a57d01"/>
  <rect x="8" y="37" width="1" height="1" fill="#a57d01"/>
  <rect x="9" y="37" width="1" height="1" fill="#a57d01"/>
  <rect x="10" y="37" width="1" height="1" fill="#a57d01"/>
  <rect x="11" y="37" width="1" height="1" fill="#a57d01"/>
  <rect x="12" y="37" width="1" height="1" fill="#a57d01"/>
  <rect x="13" y="37" width="1" height="1" fill="#a57d01"/>
  <rect x="14" y="37" width="1" height="1" fill="#a57d01"/>
  <rect x="15" y="37" width="1" height="1" fill="#a57d01"/>
  <rect x="16" y="37" width="1" height="1" fill="#a57d01"/>
  <rect x="17" y="37" width="1" height="1" fill="#a57d01"/>
  <rect x="18" y="37" width="1" height="1" fill="#a57d01"/>
  <rect x="19" y="37" width="1" height="1" fill="#a57d01"/>
  <rect x="20" y="37" width="1" height="1" fill="#a57d01"/>
  <rect x="21" y="37" width="1" height="1" fill="#a57d01"/>
  <rect x="22" y="37" width="1" height="1" fill="#a57d01"/>
  <rect x="23" y="37" width="1" height="1" fill="#a57d01"/>
  <rect x="24" y="37" width="1" height="1" fill="#a57d01"/>
  <rect x="25" y="37" width="1" height="1" fill="#a57d01"/>
  <rect x="26" y="37" width="1" height="1" fill="#a57d01"/>
  <rect x="27" y="37" width="1" height="1" fill="#a57d01"/>
  <rect x="28" y="37" width="1" height="1" fill="#a57d01"/>
  <rect x="29" y="37" width="1" height="1" fill="#a57d01"/>
  <rect x="30" y="37" width="1" height="1" fill="#a57d01"/>
  <rect x="31" y="37" width="1" height="1" fill="#a57d01"/>
  <rect x="32" y="37" width="1" height="1" fill="#a57d01"/>
  <rect x="33" y="37" width="1" height="1" fill="#a57d01"/>
  <rect x="34" y="37" width="1" height="1" fill="#a57d01"/>
  <rect x="37" y="37" width="1" height="1" fill="#a57d01"/>
  <rect x="37" y="36" width="1" height="1" fill="#a57d01"/>
  <rect x="37" y="35" width="1" height="1" fill="#a57d01"/>
  <rect x="36" y="37" width="1" height="1" fill="#a57d01"/>
  <rect x="35" y="37" width="1" height="1" fill="#a57d01"/>
  <rect x="6" y="36" width="1" height="1" fill="#a57d01"/>
  <rect x="7" y="36" width="1" height="1" fill="#a57d01"/>
  <rect x="8" y="36" width="1" height="1" fill="#a57d01"/>
  <rect x="9" y="36" width="1" height="1" fill="#a57d01"/>
  <rect x="10" y="36" width="1" height="1" fill="#a57d01"/>
  <rect x="11" y="36" width="1" height="1" fill="#a57d01"/>
  <rect x="12" y="36" width="1" height="1" fill="#a57d01"/>
  <rect x="13" y="36" width="1" height="1" fill="#a57d01"/>
  <rect x="14" y="36" width="1" height="1" fill="#a57d01"/>
  <rect x="15" y="36" width="1" height="1" fill="#a57d01"/>
  <rect x="16" y="36" width="1" height="1" fill="#a57d01"/>
  <rect x="17" y="36" width="1" height="1" fill="#a57d01"/>
  <rect x="18" y="36" width="1" height="1" fill="#a57d01"/>
  <rect x="19" y="36" width="1" height="1" fill="#a57d01"/>
  <rect x="20" y="36" width="1" height="1" fill="#a57d01"/>
  <rect x="21" y="36" width="1" height="1" fill="#a57d01"/>
  <rect x="22" y="36" width="1" height="1" fill="#a57d01"/>
  <rect x="23" y="36" width="1" height="1" fill="#a57d01"/>
  <rect x="24" y="36" width="1" height="1" fill="#a57d01"/>
  <rect x="25" y="36" width="1" height="1" fill="#a57d01"/>
  <rect x="26" y="36" width="1" height="1" fill="#a57d01"/>
  <rect x="27" y="36" width="1" height="1" fill="#a57d01"/>
  <rect x="28" y="36" width="1" height="1" fill="#a57d01"/>
  <rect x="29" y="36" width="1" height="1" fill="#a57d01"/>
  <rect x="30" y="36" width="1" height="1" fill="#a57d01"/>
  <rect x="31" y="36" width="1" height="1" fill="#a57d01"/>
  <rect x="32" y="36" width="1" height="1" fill="#a57d01"/>
  <rect x="33" y="36" width="1" height="1" fill="#a57d01"/>
  <rect x="34" y="36" width="1" height="1" fill="#a57d01"/>
  <rect x="36" y="36" width="1" height="1" fill="#a57d01"/>
  <rect x="35" y="36" width="1" height="1" fill="#a57d01"/>
  <rect x="6" y="35" width="1" height="1" fill="#a57d01"/>
  <rect x="6" y="34" width="1" height="1" fill="#a57d01"/>
  <rect x="7" y="35" width="1" height="1" fill="#a57d01"/>
  <rect x="8" y="35" width="1" height="1" fill="#a57d01"/>
  <rect x="9" y="35" width="1" height="1" fill="#a57d01"/>
  <rect x="10" y="35" width="1" height="1" fill="#a57d01"/>
  <rect x="11" y="35" width="1" height="1" fill="#a57d01"/>
  <rect x="12" y="35" width="1" height="1" fill="#a57d01"/>
  <rect x="13" y="35" width="1" height="1" fill="#a57d01"/>
  <rect x="14" y="35" width="1" height="1" fill="#a57d01"/>
  <rect x="15" y="35" width="1" height="1" fill="#a57d01"/>
  <rect x="16" y="35" width="1" height="1" fill="#a57d01"/>
  <rect x="17" y="35" width="1" height="1" fill="#a57d01"/>
  <rect x="18" y="35" width="1" height="1" fill="#a57d01"/>
  <rect x="19" y="35" width="1" height="1" fill="#a57d01"/>
  <rect x="20" y="35" width="1" height="1" fill="#a57d01"/>
  <rect x="21" y="35" width="1" height="1" fill="#a57d01"/>
  <rect x="22" y="35" width="1" height="1" fill="#a57d01"/>
  <rect x="23" y="35" width="1" height="1" fill="#a57d01"/>
  <rect x="24" y="35" width="1" height="1" fill="#a57d01"/>
  <rect x="25" y="35" width="1" height="1" fill="#a57d01"/>
  <rect x="26" y="35" width="1" height="1" fill="#a57d01"/>
  <rect x="27" y="35" width="1" height="1" fill="#a57d01"/>
  <rect x="28" y="35" width="1" height="1" fill="#a57d01"/>
  <rect x="29" y="35" width="1" height="1" fill="#a57d01"/>
  <rect x="30" y="35" width="1" height="1" fill="#a57d01"/>
  <rect x="31" y="35" width="1" height="1" fill="#a57d01"/>
  <rect x="32" y="35" width="1" height="1" fill="#a57d01"/>
  <rect x="33" y="35" width="1" height="1" fill="#a57d01"/>
  <rect x="34" y="35" width="1" height="1" fill="#a57d01"/>
  <rect x="36" y="35" width="1" height="1" fill="#a57d01"/>
  <rect x="35" y="35" width="1" height="1" fill="#a57d01"/>
  <rect x="7" y="34" width="1" height="1" fill="#a57d01"/>
  <rect x="8" y="34" width="1" height="1" fill="#a57d01"/>
  <rect x="9" y="34" width="1" height="1" fill="#a57d01"/>
  <rect x="10" y="34" width="1" height="1" fill="#a57d01"/>
  <rect x="11" y="34" width="1" height="1" fill="#a57d01"/>
  <rect x="12" y="34" width="1" height="1" fill="#a57d01"/>
  <rect x="13" y="34" width="1" height="1" fill="#a57d01"/>
  <rect x="14" y="34" width="1" height="1" fill="#a57d01"/>
  <rect x="7" y="33" width="1" height="1" fill="#a57d01"/>
  <rect x="8" y="33" width="1" height="1" fill="#a57d01"/>
  <rect x="9" y="33" width="1" height="1" fill="#a57d01"/>
  <rect x="10" y="33" width="1" height="1" fill="#a57d01"/>
  <rect x="11" y="33" width="1" height="1" fill="#a57d01"/>
  <rect x="12" y="33" width="1" height="1" fill="#a57d01"/>
  <rect x="7" y="32" width="1" height="1" fill="#a57d01"/>
  <rect x="8" y="32" width="1" height="1" fill="#a57d01"/>
  <rect x="9" y="32" width="1" height="1" fill="#a57d01"/>
  <rect x="10" y="32" width="1" height="1" fill="#a57d01"/>
  <rect x="11" y="32" width="1" height="1" fill="#a57d01"/>
  <rect x="8" y="31" width="1" height="1" fill="#a57d01"/>
  <rect x="9" y="31" width="1" height="1" fill="#a57d01"/>
  <rect x="10" y="31" width="1" height="1" fill="#a57d01"/>
  <rect x="11" y="31" width="1" height="1" fill="#a57d01"/>
  <rect x="9" y="30" width="1" height="1" fill="#a57d01"/>
  <rect x="10" y="30" width="1" height="1" fill="#a57d01"/>
  <rect x="11" y="30" width="1" height="1" fill="#a57d01"/>
  <rect x="9" y="29" width="1" height="1" fill="#a57d01"/>
  <rect x="10" y="29" width="1" height="1" fill="#a57d01"/>
  <rect x="11" y="29" width="1" height="1" fill="#a57d01"/>
  <rect x="10" y="28" width="1" height="1" fill="#a57d01"/>
  <rect x="11" y="28" width="1" height="1" fill="#a57d01"/>
  <rect x="11" y="27" width="1" height="1" fill="#a57d01"/>
  <rect x="12" y="27" width="1" height="1" fill="#a57d01"/>
  <rect x="12" y="26" width="1" height="1" fill="#a57d01"/>
  <rect x="13" y="26" width="1" height="1" fill="#a57d01"/>
  <rect x="13" y="25" width="1" height="1" fill="#a57d01"/>
  <rect x="14" y="25" width="1" height="1" fill="#a57d01"/>
  <rect x="13" y="24" width="1" height="1" fill="#a57d01"/>
  <rect x="14" y="24" width="1" height="1" fill="#a57d01"/>
  <rect x="15" y="24" width="1" height="1" fill="#a57d01"/>
  <rect x="13" y="23" width="1" height="1" fill="#a57d01"/>
  <rect x="14" y="23" width="1" height="1" fill="#a57d01"/>
  <rect x="15" y="23" width="1" height="1" fill="#a57d01"/>
  <rect x="13" y="22" width="1" height="1" fill="#a57d01"/>
  <rect x="14" y="22" width="1" height="1" fill="#a57d01"/>
  <rect x="15" y="22" width="1" height="1" fill="#a57d01"/>
  <rect x="13" y="21" width="1" height="1" fill="#a57d01"/>
  <rect x="14" y="21" width="1" height="1" fill="#a57d01"/>
  <rect x="15" y="21" width="1" height="1" fill="#a57d01"/>
  <rect x="16" y="23" width="1" height="1" fill="#a57d01"/>
  <rect x="16" y="22" width="1" height="1" fill="#a57d01"/>
  <rect x="16" y="21" width="1" height="1" fill="#a57d01"/>
  <rect x="17" y="21" width="1" height="1" fill="#a57d01"/>
  <rect x="18" y="21" width="1" height="1" fill="#a57d01"/>
  <rect x="19" y="21" width="1" height="1" fill="#a57d01"/>
  <rect x="20" y="21" width="1" height="1" fill="#a57d01"/>
  <rect x="21" y="21" width="1" height="1" fill="#a57d01"/>
  <rect x="22" y="20" width="1" height="1" fill="#a57d01"/>
  <rect x="23" y="19" width="1" height="1" fill="#a57d01"/>
  <rect x="13" y="20" width="1" height="1" fill="#a57d01"/>
  <rect x="12" y="21" width="1" height="1" fill="#a57d01"/>
  <rect x="12" y="20" width="1" height="1" fill="#a57d01"/>
  <rect x="14" y="20" width="1" height="1" fill="#a57d01"/>
  <rect x="13" y="19" width="1" height="1" fill="#a57d01"/>
  <rect x="12" y="19" width="1" height="1" fill="#a57d01"/>
  <rect x="13" y="18" width="1" height="1" fill="#a57d01"/>
  <rect x="12" y="18" width="1" height="1" fill="#a57d01"/>
  <rect x="11" y="18" width="1" height="1" fill="#a57d01"/>
  <rect x="13" y="17" width="1" height="1" fill="#a57d01"/>
  <rect x="12" y="17" width="1" height="1" fill="#a57d01"/>
  <rect x="11" y="17" width="1" height="1" fill="#a57d01"/>
  <rect x="13" y="16" width="1" height="1" fill="#a57d01"/>
  <rect x="12" y="16" width="1" height="1" fill="#a57d01"/>
  <rect x="12" y="15" width="1" height="1" fill="#a57d01"/>
  <rect x="12" y="14" width="1" height="1" fill="#a57d01"/>
  <rect x="12" y="13" width="1" height="1" fill="#a57d01"/>
  <rect x="12" y="12" width="1" height="1" fill="#a57d01"/>
  <rect x="12" y="11" width="1" height="1" fill="#a57d01"/>
  <rect x="12" y="10" width="1" height="1" fill="#a57d01"/>
  <rect x="13" y="10" width="1" height="1" fill="#a57d01"/>
  <rect x="13" y="9" width="1" height="1" fill="#a57d01"/>
  <rect x="13" y="8" width="1" height="1" fill="#a57d01"/>
  <rect x="14" y="8" width="1" height="1" fill="#a57d01"/>
  <rect x="14" y="7" width="1" height="1" fill="#a57d01"/>
  <rect x="15" y="7" width="1" height="1" fill="#a57d01"/>
  <rect x="14" y="6" width="1" height="1" fill="#a57d01"/>
  <rect x="15" y="6" width="1" height="1" fill="#a57d01"/>
  <rect x="16" y="6" width="1" height="1" fill="#a57d01"/>
  <rect x="16" y="5" width="1" height="1" fill="#a57d01"/>
  <rect x="17" y="6" width="1" height="1" fill="#a57d01"/>
  <rect x="17" y="5" width="1" height="1" fill="#a57d01"/>
  <rect x="18" y="6" width="1" height="1" fill="#a57d01"/>
  <rect x="18" y="5" width="1" height="1" fill="#a57d01"/>
  <rect x="19" y="6" width="1" height="1" fill="#a57d01"/>
  <rect x="19" y="5" width="1" height="1" fill="#a57d01"/>
  <rect x="20" y="6" width="1" height="1" fill="#a57d01"/>
  <rect x="20" y="5" width="1" height="1" fill="#a57d01"/>
  <rect x="21" y="6" width="1" height="1" fill="#a57d01"/>
  <rect x="21" y="5" width="1" height="1" fill="#a57d01"/>
  <rect x="18" y="4" width="1" height="1" fill="#a57d01"/>
  <rect x="19" y="4" width="1" height="1" fill="#a57d01"/>
  <rect x="20" y="4" width="1" height="1" fill="#a57d01"/>
  <rect x="21" y="4" width="1" height="1" fill="#a57d01"/>
  <rect x="22" y="6" width="1" height="1" fill="#a57d01"/>
  <rect x="22" y="5" width="1" height="1" fill="#a57d01"/>
  <rect x="23" y="6" width="1" height="1" fill="#a57d01"/>
  <rect x="22" y="7" width="1" height="1" fill="#a57d01"/>
  <rect x="21" y="7" width="1" height="1" fill="#a57d01"/>
  <rect x="23" y="7" width="1" height="1" fill="#a57d01"/>
  <rect x="24" y="6" width="1" height="1" fill="#a57d01"/>
  <rect x="24" y="7" width="1" height="1" fill="#a57d01"/>
  <rect x="23" y="8" width="1" height="1" fill="#a57d01"/>
  <rect x="24" y="8" width="1" height="1" fill="#a57d01"/>
  <rect x="25" y="7" width="1" height="1" fill="#a57d01"/>
  <rect x="25" y="6" width="1" height="1" fill="#a57d01"/>
  <rect x="25" y="8" width="1" height="1" fill="#a57d01"/>
  <rect x="26" y="8" width="1" height="1" fill="#a57d01"/>
  <rect x="24" y="9" width="1" height="1" fill="#a57d01"/>
  <rect x="25" y="9" width="1" height="1" fill="#a57d01"/>
  <rect x="26" y="9" width="1" height="1" fill="#a57d01"/>
  <rect x="24" y="10" width="1" height="1" fill="#a57d01"/>
  <rect x="25" y="10" width="1" height="1" fill="#a57d01"/>
  <rect x="26" y="10" width="1" height="1" fill="#a57d01"/>
  <rect x="25" y="11" width="1" height="1" fill="#a57d01"/>
  <rect x="26" y="11" width="1" height="1" fill="#a57d01"/>
  <rect x="25" y="12" width="1" height="1" fill="#a57d01"/>
  <rect x="26" y="12" width="1" height="1" fill="#a57d01"/>
  <rect x="25" y="13" width="1" height="1" fill="#a57d01"/>
  <rect x="26" y="13" width="1" height="1" fill="#a57d01"/>
  <rect x="25" y="14" width="1" height="1" fill="#a57d01"/>
  <rect x="26" y="14" width="1" height="1" fill="#a57d01"/>
  <rect x="25" y="15" width="1" height="1" fill="#a57d01"/>
  <rect x="26" y="15" width="1" height="1" fill="#a57d01"/>
  <rect x="25" y="16" width="1" height="1" fill="#a57d01"/>
  <rect x="26" y="16" width="1" height="1" fill="#a57d01"/>
  <rect x="25" y="17" width="1" height="1" fill="#a57d01"/>
  <rect x="24" y="17" width="1" height="1" fill="#a57d01"/>
  <rect x="26" y="17" width="1" height="1" fill="#a57d01"/>
  <rect x="25" y="18" width="1" height="1" fill="#a57d01"/>
  <rect x="24" y="18" width="1" height="1" fill="#a57d01"/>
  <rect x="26" y="18" width="1" height="1" fill="#a57d01"/>
  <rect x="25" y="19" width="1" height="1" fill="#a57d01"/>
  <rect x="26" y="19" width="1" height="1" fill="#a57d01"/>
  <rect x="27" y="12" width="1" height="1" fill="#a57d01"/>
  <rect x="27" y="13" width="1" height="1" fill="#a57d01"/>
  <rect x="27" y="14" width="1" height="1" fill="#a57d01"/>
  <rect x="27" y="15" width="1" height="1" fill="#a57d01"/>
  <rect x="27" y="16" width="1" height="1" fill="#a57d01"/>
  <rect x="27" y="17" width="1" height="1" fill="#a57d01"/>
  <rect x="27" y="18" width="1" height="1" fill="#a57d01"/>
  <rect x="27" y="19" width="1" height="1" fill="#a57d01"/>
  <rect x="28" y="19" width="1" height="1" fill="#a57d01"/>
  <rect x="28" y="18" width="1" height="1" fill="#a57d01"/>
  <rect x="25" y="20" width="1" height="1" fill="#a57d01"/>
  <rect x="26" y="20" width="1" height="1" fill="#a57d01"/>
  <rect x="25" y="21" width="1" height="1" fill="#a57d01"/>
  <rect x="26" y="21" width="1" height="1" fill="#a57d01"/>
  <rect x="25" y="22" width="1" height="1" fill="#a57d01"/>
  <rect x="26" y="22" width="1" height="1" fill="#a57d01"/>
  <rect x="25" y="23" width="1" height="1" fill="#a57d01"/>
  <rect x="26" y="23" width="1" height="1" fill="#a57d01"/>
  <rect x="25" y="24" width="1" height="1" fill="#a57d01"/>
  <rect x="26" y="24" width="1" height="1" fill="#a57d01"/>
  <rect x="25" y="25" width="1" height="1" fill="#a57d01"/>
  <rect x="26" y="25" width="1" height="1" fill="#a57d01"/>
  <rect x="25" y="26" width="1" height="1" fill="#a57d01"/>
  <rect x="26" y="26" width="1" height="1" fill="#a57d01"/>
  <rect x="25" y="27" width="1" height="1" fill="#a57d01"/>
  <rect x="26" y="27" width="1" height="1" fill="#a57d01"/>
  <rect x="25" y="28" width="1" height="1" fill="#a57d01"/>
  <rect x="26" y="28" width="1" height="1" fill="#a57d01"/>
  <rect x="25" y="29" width="1" height="1" fill="#a57d01"/>
  <rect x="26" y="29" width="1" height="1" fill="#a57d01"/>
  <rect x="25" y="30" width="1" height="1" fill="#a57d01"/>
  <rect x="26" y="30" width="1" height="1" fill="#a57d01"/>
  <rect x="25" y="31" width="1" height="1" fill="#a57d01"/>
  <rect x="24" y="31" width="1" height="1" fill="#a57d01"/>
  <rect x="26" y="31" width="1" height="1" fill="#a57d01"/>
  <rect x="25" y="32" width="1" height="1" fill="#a57d01"/>
  <rect x="26" y="32" width="1" height="1" fill="#a57d01"/>
  <rect x="25" y="33" width="1" height="1" fill="#a57d01"/>
  <rect x="24" y="32" width="1" height="1" fill="#a57d01"/>
  <rect x="24" y="33" width="1" height="1" fill="#a57d01"/>
  <rect x="23" y="32" width="1" height="1" fill="#a57d01"/>
  <rect x="23" y="33" width="1" height="1" fill="#a57d01"/>
  <rect x="22" y="33" width="1" height="1" fill="#a57d01"/>
  <rect x="26" y="33" width="1" height="1" fill="#a57d01"/>
  <rect x="27" y="20" width="1" height="1" fill="#a57d01"/>
  <rect x="27" y="21" width="1" height="1" fill="#a57d01"/>
  <rect x="27" y="22" width="1" height="1" fill="#a57d01"/>
  <rect x="27" y="23" width="1" height="1" fill="#a57d01"/>
  <rect x="27" y="24" width="1" height="1" fill="#a57d01"/>
  <rect x="27" y="25" width="1" height="1" fill="#a57d01"/>
  <rect x="27" y="26" width="1" height="1" fill="#a57d01"/>
  <rect x="27" y="27" width="1" height="1" fill="#a57d01"/>
  <rect x="27" y="28" width="1" height="1" fill="#a57d01"/>
  <rect x="27" y="29" width="1" height="1" fill="#a57d01"/>
  <rect x="27" y="30" width="1" height="1" fill="#a57d01"/>
  <rect x="27" y="31" width="1" height="1" fill="#a57d01"/>
  <rect x="27" y="32" width="1" height="1" fill="#a57d01"/>
  <rect x="27" y="33" width="1" height="1" fill="#a57d01"/>
  <rect x="28" y="20" width="1" height="1" fill="#a57d01"/>
  <rect x="28" y="21" width="1" height="1" fill="#a57d01"/>
  <rect x="28" y="22" width="1" height="1" fill="#a57d01"/>
  <rect x="28" y="23" width="1" height="1" fill="#a57d01"/>
  <rect x="28" y="24" width="1" height="1" fill="#a57d01"/>
  <rect x="28" y="25" width="1" height="1" fill="#a57d01"/>
  <rect x="28" y="26" width="1" height="1" fill="#a57d01"/>
  <rect x="28" y="27" width="1" height="1" fill="#a57d01"/>
  <rect x="28" y="28" width="1" height="1" fill="#a57d01"/>
  <rect x="28" y="29" width="1" height="1" fill="#a57d01"/>
  <rect x="28" y="30" width="1" height="1" fill="#a57d01"/>
  <rect x="28" y="31" width="1" height="1" fill="#a57d01"/>
  <rect x="28" y="32" width="1" height="1" fill="#a57d01"/>
  <rect x="28" y="33" width="1" height="1" fill="#a57d01"/>
  <rect x="29" y="26" width="1" height="1" fill="#a57d01"/>
  <rect x="29" y="27" width="1" height="1" fill="#a57d01"/>
  <rect x="29" y="28" width="1" height="1" fill="#a57d01"/>
  <rect x="29" y="29" width="1" height="1" fill="#a57d01"/>
  <rect x="29" y="30" width="1" height="1" fill="#a57d01"/>
  <rect x="29" y="31" width="1" height="1" fill="#a57d01"/>
  <rect x="29" y="32" width="1" height="1" fill="#a57d01"/>
  <rect x="29" y="33" width="1" height="1" fill="#a57d01"/>
  <rect x="30" y="27" width="1" height="1" fill="#a57d01"/>
  <rect x="30" y="28" width="1" height="1" fill="#a57d01"/>
  <rect x="30" y="29" width="1" height="1" fill="#a57d01"/>
  <rect x="30" y="30" width="1" height="1" fill="#a57d01"/>
  <rect x="30" y="31" width="1" height="1" fill="#a57d01"/>
  <rect x="30" y="32" width="1" height="1" fill="#a57d01"/>
  <rect x="30" y="33" width="1" height="1" fill="#a57d01"/>
  <rect x="31" y="28" width="1" height="1" fill="#a57d01"/>
  <rect x="31" y="29" width="1" height="1" fill="#a57d01"/>
  <rect x="31" y="30" width="1" height="1" fill="#a57d01"/>
  <rect x="31" y="31" width="1" height="1" fill="#a57d01"/>
  <rect x="31" y="32" width="1" height="1" fill="#a57d01"/>
  <rect x="31" y="33" width="1" height="1" fill="#a57d01"/>
  <rect x="32" y="29" width="1" height="1" fill="#a57d01"/>
  <rect x="32" y="30" width="1" height="1" fill="#a57d01"/>
  <rect x="32" y="31" width="1" height="1" fill="#a57d01"/>
  <rect x="32" y="32" width="1" height="1" fill="#a57d01"/>
  <rect x="32" y="33" width="1" height="1" fill="#a57d01"/>
  <rect x="33" y="30" width="1" height="1" fill="#a57d01"/>
  <rect x="33" y="31" width="1" height="1" fill="#a57d01"/>
  <rect x="33" y="32" width="1" height="1" fill="#a57d01"/>
  <rect x="33" y="33" width="1" height="1" fill="#a57d01"/>
  <rect x="34" y="31" width="1" height="1" fill="#a57d01"/>
  <rect x="34" y="32" width="1" height="1" fill="#a57d01"/>
  <rect x="34" y="33" width="1" height="1" fill="#a57d01"/>
  <rect x="35" y="32" width="1" height="1" fill="#a57d01"/>
  <rect x="35" y="33" width="1" height="1" fill="#a57d01"/>
  <rect x="23" y="5" width="1" height="1" fill="#a57d01"/>
  <rect x="11" y="16" width="1" height="1" fill="#a57d01"/>
  <rect x="14" y="19" width="1" height="1" fill="#a57d01"/>
  <rect x="15" y="20" width="1" height="1" fill="#a57d01"/>
  <rect x="12" y="32" width="1" height="1" fill="#a57d01"/>
  <rect x="13" y="33" width="1" height="1" fill="#a57d01"/>
  <rect x="14" y="33" width="1" height="1" fill="#a57d01"/>
  <rect x="15" y="34" width="1" height="1" fill="#a57d01"/>
  <rect x="22" y="34" width="1" height="1" fill="#a57d01"/>
  <rect x="21" y="34" width="1" height="1" fill="#a57d01"/>
  <rect x="20" y="34" width="1" height="1" fill="#a57d01"/>
  <rect x="19" y="34" width="1" height="1" fill="#a57d01"/>
  <rect x="18" y="34" width="1" height="1" fill="#a57d01"/>
  <rect x="17" y="34" width="1" height="1" fill="#a57d01"/>
  <rect x="16" y="34" width="1" height="1" fill="#a57d01"/>
  <rect x="23" y="34" width="1" height="1" fill="#a57d01"/>
  <rect x="24" y="34" width="1" height="1" fill="#a57d01"/>
  <rect x="25" y="34" width="1" height="1" fill="#a57d01"/>
  <rect x="26" y="34" width="1" height="1" fill="#a57d01"/>
  <rect x="27" y="34" width="1" height="1" fill="#a57d01"/>
  <rect x="28" y="34" width="1" height="1" fill="#a57d01"/>
  <rect x="29" y="34" width="1" height="1" fill="#a57d01"/>
  <rect x="30" y="34" width="1" height="1" fill="#a57d01"/>
  <rect x="31" y="34" width="1" height="1" fill="#a57d01"/>
  <rect x="32" y="34" width="1" height="1" fill="#a57d01"/>
  <rect x="33" y="34" width="1" height="1" fill="#a57d01"/>
  <rect x="34" y="34" width="1" height="1" fill="#a57d01"/>
  <rect x="36" y="34" width="1" height="1" fill="#a57d01"/>
  <rect x="35" y="34" width="1" height="1" fill="#a57d01"/>
  <rect x="35" y="39" width="1" height="1" fill="#a57d01"/>
</svg>
