<svg xmlns="http://www.w3.org/2000/svg" width="80" height="80" viewBox="0 0 80 80">
  <path d="M70.225,37.675v-6.2H69.45v-1.55h-.775V27.6H67.9V26.05h-.775V24.5H66.35v-.775h-.775v-1.55H64.8V21.4h-.775v-.775H63.25V19.85h-.775v-.775H61.7V18.3h-.775v-.775H60.15V16.75h-.775v-.775H58.6V15.2h-.775v-.775h-1.55V13.65h-1.55v-.775h-1.55V12.1h-1.55v-.775h-1.55V10.55h-1.55V9.775h-6.2V9h-4.65v.775h-6.2v.775h-1.55v.775h-1.55V12.1h-1.55v.775h-1.55v.775h-1.55v.775h-1.55V15.2H21.4v.775h-.775v.775H19.85v.775h-.775V18.3H18.3v.775h-.775v.775H16.75v.775h-.775V21.4H15.2v.775h-.775v1.55H13.65V24.5h-.775v1.55H12.1V27.6h-.775v2.325H10.55v1.55H9.775v6.2H9v4.65h.775v6.2h.775v1.55h.775V52.4H12.1v1.55h.775V55.5h.775v.775h.775v1.55H15.2V58.6h.775v.775h.775v.775h.775v.775H18.3V61.7h.775v.775h.775v.775h.775v.775H21.4V64.8h.775v.775h1.55v.775h1.55v.775h1.55V67.9h1.55v.775h1.55v.775h1.55v.775h6.2V71h4.65v-.775h6.2V69.45h1.55v-.775h1.55V67.9h1.55v-.775h1.55V66.35h1.55v-.775h1.55V64.8H58.6v-.775h.775V63.25h.775v-.775h.775V61.7H61.7v-.775h.775V60.15h.775v-.775h.775V58.6H64.8v-.775h.775v-1.55h.775V55.5h.775V53.95H67.9V52.4h.775V50.075h.775v-1.55h.775v-6.2H71v-4.65ZM26.05,16.75H48.525v.775h3.1V18.3h1.55v.775h.775v.775h.775v.775H55.5V21.4h.775v.775h.775v.775h.775v2.325H58.6v9.3h-.775v1.55H57.05V36.9h-.775v.775H55.5v.775h-.775v.775H53.95v1.55h.775v.775H55.5v.775h.775V43.1h.775v.775h.775v1.55H58.6v9.3h-.775V57.05H57.05v.775h-.775V58.6H55.5v.775h-.775v.775H53.95v.775h-.775V61.7h-1.55v.775h-3.1v.775H25.275V16.75Z" fill="#a57d01"/>
</svg>
