<svg xmlns="http://www.w3.org/2000/svg" width="40" height="40" viewBox="0 0 40 40">
  <rect x="17" width="1" height="1" fill="#a57d01"/>
  <rect x="13" y="1" width="1" height="1" fill="#a57d01"/>
  <rect x="14" y="1" width="1" height="1" fill="#a57d01"/>
  <rect x="15" y="1" width="1" height="1" fill="#a57d01"/>
  <rect x="16" y="1" width="1" height="1" fill="#a57d01"/>
  <rect x="17" y="1" width="1" height="1" fill="#a57d01"/>
  <rect x="18" y="1" width="1" height="1" fill="#a57d01"/>
  <rect x="19" y="1" width="1" height="1" fill="#a57d01"/>
  <rect x="20" y="1" width="1" height="1" fill="#a57d01"/>
  <rect x="21" y="1" width="1" height="1" fill="#a57d01"/>
  <rect x="22" y="1" width="1" height="1" fill="#a57d01"/>
  <rect x="23" y="1" width="1" height="1" fill="#a57d01"/>
  <rect x="24" y="1" width="1" height="1" fill="#a57d01"/>
  <rect x="25" y="1" width="1" height="1" fill="#a57d01"/>
  <rect x="26" y="1" width="1" height="1" fill="#a57d01"/>
  <rect x="13" y="2" width="1" height="1" fill="#a57d01"/>
  <rect x="14" y="2" width="1" height="1" fill="#a57d01"/>
  <rect x="11" y="2" width="1" height="1" fill="#a57d01"/>
  <rect x="12" y="2" width="1" height="1" fill="#a57d01"/>
  <rect x="27" y="2" width="1" height="1" fill="#a57d01"/>
  <rect x="28" y="2" width="1" height="1" fill="#a57d01"/>
  <rect x="15" y="2" width="1" height="1" fill="#a57d01"/>
  <rect x="16" y="2" width="1" height="1" fill="#a57d01"/>
  <rect x="17" y="2" width="1" height="1" fill="#a57d01"/>
  <rect x="18" y="2" width="1" height="1" fill="#a57d01"/>
  <rect x="19" y="2" width="1" height="1" fill="#a57d01"/>
  <rect x="20" y="2" width="1" height="1" fill="#a57d01"/>
  <rect x="21" y="2" width="1" height="1" fill="#a57d01"/>
  <rect x="22" y="2" width="1" height="1" fill="#a57d01"/>
  <rect x="23" y="2" width="1" height="1" fill="#a57d01"/>
  <rect x="24" y="2" width="1" height="1" fill="#a57d01"/>
  <rect x="25" y="2" width="1" height="1" fill="#a57d01"/>
  <rect x="26" y="2" width="1" height="1" fill="#a57d01"/>
  <rect x="13" y="3" width="1" height="1" fill="#a57d01"/>
  <rect x="14" y="3" width="1" height="1" fill="#a57d01"/>
  <rect x="11" y="3" width="1" height="1" fill="#a57d01"/>
  <rect x="12" y="3" width="1" height="1" fill="#a57d01"/>
  <rect x="9" y="3" width="1" height="1" fill="#a57d01"/>
  <rect x="10" y="3" width="1" height="1" fill="#a57d01"/>
  <rect x="27" y="3" width="1" height="1" fill="#a57d01"/>
  <rect x="28" y="3" width="1" height="1" fill="#a57d01"/>
  <rect x="29" y="3" width="1" height="1" fill="#a57d01"/>
  <rect x="30" y="3" width="1" height="1" fill="#a57d01"/>
  <rect x="15" y="3" width="1" height="1" fill="#a57d01"/>
  <rect x="16" y="3" width="1" height="1" fill="#a57d01"/>
  <rect x="17" y="3" width="1" height="1" fill="#a57d01"/>
  <rect x="18" y="3" width="1" height="1" fill="#a57d01"/>
  <rect x="19" y="3" width="1" height="1" fill="#a57d01"/>
  <rect x="20" y="3" width="1" height="1" fill="#a57d01"/>
  <rect x="21" y="3" width="1" height="1" fill="#a57d01"/>
  <rect x="22" y="3" width="1" height="1" fill="#a57d01"/>
  <rect x="23" y="3" width="1" height="1" fill="#a57d01"/>
  <rect x="24" y="3" width="1" height="1" fill="#a57d01"/>
  <rect x="25" y="3" width="1" height="1" fill="#a57d01"/>
  <rect x="26" y="3" width="1" height="1" fill="#a57d01"/>
  <rect x="13" y="4" width="1" height="1" fill="#a57d01"/>
  <rect x="14" y="4" width="1" height="1" fill="#a57d01"/>
  <rect x="11" y="4" width="1" height="1" fill="#a57d01"/>
  <rect x="12" y="4" width="1" height="1" fill="#a57d01"/>
  <rect x="9" y="4" width="1" height="1" fill="#a57d01"/>
  <rect x="8" y="4" width="1" height="1" fill="#a57d01"/>
  <rect x="9" y="5" width="1" height="1" fill="#a57d01"/>
  <rect x="8" y="5" width="1" height="1" fill="#a57d01"/>
  <rect x="9" y="6" width="1" height="1" fill="#a57d01"/>
  <rect x="8" y="6" width="1" height="1" fill="#a57d01"/>
  <rect x="9" y="7" width="1" height="1" fill="#a57d01"/>
  <rect x="8" y="7" width="1" height="1" fill="#a57d01"/>
  <rect x="9" y="8" width="1" height="1" fill="#a57d01"/>
  <rect x="8" y="8" width="1" height="1" fill="#a57d01"/>
  <rect x="9" y="9" width="1" height="1" fill="#a57d01"/>
  <rect x="8" y="9" width="1" height="1" fill="#a57d01"/>
  <rect x="9" y="10" width="1" height="1" fill="#a57d01"/>
  <rect x="8" y="10" width="1" height="1" fill="#a57d01"/>
  <rect x="9" y="11" width="1" height="1" fill="#a57d01"/>
  <rect x="8" y="11" width="1" height="1" fill="#a57d01"/>
  <rect x="9" y="12" width="1" height="1" fill="#a57d01"/>
  <rect x="8" y="12" width="1" height="1" fill="#a57d01"/>
  <rect x="9" y="13" width="1" height="1" fill="#a57d01"/>
  <rect x="8" y="13" width="1" height="1" fill="#a57d01"/>
  <rect x="9" y="14" width="1" height="1" fill="#a57d01"/>
  <rect x="8" y="14" width="1" height="1" fill="#a57d01"/>
  <rect x="9" y="15" width="1" height="1" fill="#a57d01"/>
  <rect x="8" y="15" width="1" height="1" fill="#a57d01"/>
  <rect x="9" y="16" width="1" height="1" fill="#a57d01"/>
  <rect x="8" y="16" width="1" height="1" fill="#a57d01"/>
  <rect x="9" y="17" width="1" height="1" fill="#a57d01"/>
  <rect x="8" y="17" width="1" height="1" fill="#a57d01"/>
  <rect x="9" y="18" width="1" height="1" fill="#a57d01"/>
  <rect x="8" y="18" width="1" height="1" fill="#a57d01"/>
  <rect x="9" y="19" width="1" height="1" fill="#a57d01"/>
  <rect x="8" y="19" width="1" height="1" fill="#a57d01"/>
  <rect x="9" y="20" width="1" height="1" fill="#a57d01"/>
  <rect x="8" y="20" width="1" height="1" fill="#a57d01"/>
  <rect x="9" y="21" width="1" height="1" fill="#a57d01"/>
  <rect x="8" y="21" width="1" height="1" fill="#a57d01"/>
  <rect x="1" y="17" width="1" height="1" fill="#a57d01"/>
  <rect x="1" y="18" width="1" height="1" fill="#a57d01"/>
  <rect x="1" y="19" width="1" height="1" fill="#a57d01"/>
  <rect x="1" y="20" width="1" height="1" fill="#a57d01"/>
  <rect y="18" width="1" height="1" fill="#a57d01"/>
  <rect y="17" width="1" height="1" fill="#a57d01"/>
  <rect y="19" width="1" height="1" fill="#a57d01"/>
  <rect y="20" width="1" height="1" fill="#a57d01"/>
  <rect y="21" width="1" height="1" fill="#a57d01"/>
  <rect y="22" width="1" height="1" fill="#a57d01"/>
  <rect x="39" y="18" width="1" height="1" fill="#a57d01"/>
  <rect x="39" y="17" width="1" height="1" fill="#a57d01"/>
  <rect x="39" y="19" width="1" height="1" fill="#a57d01"/>
  <rect x="39" y="20" width="1" height="1" fill="#a57d01"/>
  <rect x="39" y="21" width="1" height="1" fill="#a57d01"/>
  <rect x="39" y="22" width="1" height="1" fill="#a57d01"/>
  <rect x="1" y="21" width="1" height="1" fill="#a57d01"/>
  <rect x="9" y="22" width="1" height="1" fill="#a57d01"/>
  <rect x="8" y="22" width="1" height="1" fill="#a57d01"/>
  <rect x="9" y="23" width="1" height="1" fill="#a57d01"/>
  <rect x="8" y="23" width="1" height="1" fill="#a57d01"/>
  <rect x="9" y="24" width="1" height="1" fill="#a57d01"/>
  <rect x="8" y="24" width="1" height="1" fill="#a57d01"/>
  <rect x="9" y="25" width="1" height="1" fill="#a57d01"/>
  <rect x="8" y="25" width="1" height="1" fill="#a57d01"/>
  <rect x="9" y="26" width="1" height="1" fill="#a57d01"/>
  <rect x="8" y="26" width="1" height="1" fill="#a57d01"/>
  <rect x="9" y="27" width="1" height="1" fill="#a57d01"/>
  <rect x="8" y="27" width="1" height="1" fill="#a57d01"/>
  <rect x="9" y="28" width="1" height="1" fill="#a57d01"/>
  <rect x="8" y="28" width="1" height="1" fill="#a57d01"/>
  <rect x="9" y="29" width="1" height="1" fill="#a57d01"/>
  <rect x="8" y="29" width="1" height="1" fill="#a57d01"/>
  <rect x="9" y="30" width="1" height="1" fill="#a57d01"/>
  <rect x="8" y="30" width="1" height="1" fill="#a57d01"/>
  <rect x="9" y="31" width="1" height="1" fill="#a57d01"/>
  <rect x="8" y="31" width="1" height="1" fill="#a57d01"/>
  <rect x="9" y="32" width="1" height="1" fill="#a57d01"/>
  <rect x="8" y="32" width="1" height="1" fill="#a57d01"/>
  <rect x="9" y="33" width="1" height="1" fill="#a57d01"/>
  <rect x="8" y="33" width="1" height="1" fill="#a57d01"/>
  <rect x="9" y="34" width="1" height="1" fill="#a57d01"/>
  <rect x="10" y="5" width="1" height="1" fill="#a57d01"/>
  <rect x="10" y="6" width="1" height="1" fill="#a57d01"/>
  <rect x="10" y="7" width="1" height="1" fill="#a57d01"/>
  <rect x="10" y="8" width="1" height="1" fill="#a57d01"/>
  <rect x="10" y="9" width="1" height="1" fill="#a57d01"/>
  <rect x="10" y="10" width="1" height="1" fill="#a57d01"/>
  <rect x="10" y="11" width="1" height="1" fill="#a57d01"/>
  <rect x="10" y="12" width="1" height="1" fill="#a57d01"/>
  <rect x="10" y="13" width="1" height="1" fill="#a57d01"/>
  <rect x="10" y="14" width="1" height="1" fill="#a57d01"/>
  <rect x="10" y="15" width="1" height="1" fill="#a57d01"/>
  <rect x="10" y="16" width="1" height="1" fill="#a57d01"/>
  <rect x="10" y="17" width="1" height="1" fill="#a57d01"/>
  <rect x="10" y="18" width="1" height="1" fill="#a57d01"/>
  <rect x="10" y="19" width="1" height="1" fill="#a57d01"/>
  <rect x="10" y="20" width="1" height="1" fill="#a57d01"/>
  <rect x="10" y="21" width="1" height="1" fill="#a57d01"/>
  <rect x="10" y="22" width="1" height="1" fill="#a57d01"/>
  <rect x="10" y="23" width="1" height="1" fill="#a57d01"/>
  <rect x="10" y="24" width="1" height="1" fill="#a57d01"/>
  <rect x="10" y="25" width="1" height="1" fill="#a57d01"/>
  <rect x="10" y="26" width="1" height="1" fill="#a57d01"/>
  <rect x="10" y="27" width="1" height="1" fill="#a57d01"/>
  <rect x="10" y="28" width="1" height="1" fill="#a57d01"/>
  <rect x="10" y="29" width="1" height="1" fill="#a57d01"/>
  <rect x="10" y="30" width="1" height="1" fill="#a57d01"/>
  <rect x="10" y="31" width="1" height="1" fill="#a57d01"/>
  <rect x="10" y="32" width="1" height="1" fill="#a57d01"/>
  <rect x="10" y="33" width="1" height="1" fill="#a57d01"/>
  <rect x="10" y="34" width="1" height="1" fill="#a57d01"/>
  <rect x="8" y="34" width="1" height="1" fill="#a57d01"/>
  <rect x="7" y="5" width="1" height="1" fill="#a57d01"/>
  <rect x="7" y="6" width="1" height="1" fill="#a57d01"/>
  <rect x="7" y="7" width="1" height="1" fill="#a57d01"/>
  <rect x="7" y="8" width="1" height="1" fill="#a57d01"/>
  <rect x="7" y="9" width="1" height="1" fill="#a57d01"/>
  <rect x="7" y="10" width="1" height="1" fill="#a57d01"/>
  <rect x="7" y="11" width="1" height="1" fill="#a57d01"/>
  <rect x="7" y="12" width="1" height="1" fill="#a57d01"/>
  <rect x="7" y="13" width="1" height="1" fill="#a57d01"/>
  <rect x="7" y="14" width="1" height="1" fill="#a57d01"/>
  <rect x="7" y="15" width="1" height="1" fill="#a57d01"/>
  <rect x="7" y="16" width="1" height="1" fill="#a57d01"/>
  <rect x="7" y="17" width="1" height="1" fill="#a57d01"/>
  <rect x="7" y="18" width="1" height="1" fill="#a57d01"/>
  <rect x="7" y="19" width="1" height="1" fill="#a57d01"/>
  <rect x="7" y="20" width="1" height="1" fill="#a57d01"/>
  <rect x="7" y="21" width="1" height="1" fill="#a57d01"/>
  <rect x="7" y="22" width="1" height="1" fill="#a57d01"/>
  <rect x="7" y="23" width="1" height="1" fill="#a57d01"/>
  <rect x="7" y="24" width="1" height="1" fill="#a57d01"/>
  <rect x="7" y="25" width="1" height="1" fill="#a57d01"/>
  <rect x="7" y="26" width="1" height="1" fill="#a57d01"/>
  <rect x="7" y="27" width="1" height="1" fill="#a57d01"/>
  <rect x="7" y="28" width="1" height="1" fill="#a57d01"/>
  <rect x="7" y="29" width="1" height="1" fill="#a57d01"/>
  <rect x="7" y="30" width="1" height="1" fill="#a57d01"/>
  <rect x="7" y="31" width="1" height="1" fill="#a57d01"/>
  <rect x="7" y="32" width="1" height="1" fill="#a57d01"/>
  <rect x="7" y="33" width="1" height="1" fill="#a57d01"/>
  <rect x="6" y="6" width="1" height="1" fill="#a57d01"/>
  <rect x="6" y="7" width="1" height="1" fill="#a57d01"/>
  <rect x="6" y="8" width="1" height="1" fill="#a57d01"/>
  <rect x="6" y="9" width="1" height="1" fill="#a57d01"/>
  <rect x="6" y="10" width="1" height="1" fill="#a57d01"/>
  <rect x="6" y="11" width="1" height="1" fill="#a57d01"/>
  <rect x="6" y="12" width="1" height="1" fill="#a57d01"/>
  <rect x="6" y="13" width="1" height="1" fill="#a57d01"/>
  <rect x="6" y="14" width="1" height="1" fill="#a57d01"/>
  <rect x="6" y="15" width="1" height="1" fill="#a57d01"/>
  <rect x="6" y="16" width="1" height="1" fill="#a57d01"/>
  <rect x="6" y="17" width="1" height="1" fill="#a57d01"/>
  <rect x="6" y="18" width="1" height="1" fill="#a57d01"/>
  <rect x="6" y="19" width="1" height="1" fill="#a57d01"/>
  <rect x="6" y="20" width="1" height="1" fill="#a57d01"/>
  <rect x="6" y="21" width="1" height="1" fill="#a57d01"/>
  <rect x="6" y="22" width="1" height="1" fill="#a57d01"/>
  <rect x="6" y="23" width="1" height="1" fill="#a57d01"/>
  <rect x="6" y="24" width="1" height="1" fill="#a57d01"/>
  <rect x="6" y="25" width="1" height="1" fill="#a57d01"/>
  <rect x="6" y="26" width="1" height="1" fill="#a57d01"/>
  <rect x="6" y="27" width="1" height="1" fill="#a57d01"/>
  <rect x="6" y="28" width="1" height="1" fill="#a57d01"/>
  <rect x="6" y="29" width="1" height="1" fill="#a57d01"/>
  <rect x="6" y="30" width="1" height="1" fill="#a57d01"/>
  <rect x="6" y="31" width="1" height="1" fill="#a57d01"/>
  <rect x="6" y="32" width="1" height="1" fill="#a57d01"/>
  <rect x="5" y="7" width="1" height="1" fill="#a57d01"/>
  <rect x="5" y="8" width="1" height="1" fill="#a57d01"/>
  <rect x="5" y="9" width="1" height="1" fill="#a57d01"/>
  <rect x="5" y="10" width="1" height="1" fill="#a57d01"/>
  <rect x="5" y="11" width="1" height="1" fill="#a57d01"/>
  <rect x="5" y="12" width="1" height="1" fill="#a57d01"/>
  <rect x="5" y="13" width="1" height="1" fill="#a57d01"/>
  <rect x="5" y="14" width="1" height="1" fill="#a57d01"/>
  <rect x="5" y="15" width="1" height="1" fill="#a57d01"/>
  <rect x="5" y="16" width="1" height="1" fill="#a57d01"/>
  <rect x="5" y="17" width="1" height="1" fill="#a57d01"/>
  <rect x="5" y="18" width="1" height="1" fill="#a57d01"/>
  <rect x="5" y="19" width="1" height="1" fill="#a57d01"/>
  <rect x="5" y="20" width="1" height="1" fill="#a57d01"/>
  <rect x="5" y="21" width="1" height="1" fill="#a57d01"/>
  <rect x="5" y="22" width="1" height="1" fill="#a57d01"/>
  <rect x="5" y="23" width="1" height="1" fill="#a57d01"/>
  <rect x="5" y="24" width="1" height="1" fill="#a57d01"/>
  <rect x="5" y="25" width="1" height="1" fill="#a57d01"/>
  <rect x="5" y="26" width="1" height="1" fill="#a57d01"/>
  <rect x="5" y="27" width="1" height="1" fill="#a57d01"/>
  <rect x="5" y="28" width="1" height="1" fill="#a57d01"/>
  <rect x="5" y="29" width="1" height="1" fill="#a57d01"/>
  <rect x="5" y="30" width="1" height="1" fill="#a57d01"/>
  <rect x="5" y="31" width="1" height="1" fill="#a57d01"/>
  <rect x="4" y="8" width="1" height="1" fill="#a57d01"/>
  <rect x="4" y="9" width="1" height="1" fill="#a57d01"/>
  <rect x="4" y="10" width="1" height="1" fill="#a57d01"/>
  <rect x="4" y="11" width="1" height="1" fill="#a57d01"/>
  <rect x="4" y="12" width="1" height="1" fill="#a57d01"/>
  <rect x="4" y="13" width="1" height="1" fill="#a57d01"/>
  <rect x="4" y="14" width="1" height="1" fill="#a57d01"/>
  <rect x="4" y="15" width="1" height="1" fill="#a57d01"/>
  <rect x="4" y="16" width="1" height="1" fill="#a57d01"/>
  <rect x="4" y="17" width="1" height="1" fill="#a57d01"/>
  <rect x="4" y="18" width="1" height="1" fill="#a57d01"/>
  <rect x="4" y="19" width="1" height="1" fill="#a57d01"/>
  <rect x="4" y="20" width="1" height="1" fill="#a57d01"/>
  <rect x="4" y="21" width="1" height="1" fill="#a57d01"/>
  <rect x="4" y="22" width="1" height="1" fill="#a57d01"/>
  <rect x="4" y="23" width="1" height="1" fill="#a57d01"/>
  <rect x="4" y="24" width="1" height="1" fill="#a57d01"/>
  <rect x="4" y="25" width="1" height="1" fill="#a57d01"/>
  <rect x="4" y="26" width="1" height="1" fill="#a57d01"/>
  <rect x="4" y="27" width="1" height="1" fill="#a57d01"/>
  <rect x="4" y="28" width="1" height="1" fill="#a57d01"/>
  <rect x="4" y="29" width="1" height="1" fill="#a57d01"/>
  <rect x="4" y="30" width="1" height="1" fill="#a57d01"/>
  <rect x="3" y="9" width="1" height="1" fill="#a57d01"/>
  <rect x="3" y="10" width="1" height="1" fill="#a57d01"/>
  <rect x="3" y="11" width="1" height="1" fill="#a57d01"/>
  <rect x="3" y="12" width="1" height="1" fill="#a57d01"/>
  <rect x="3" y="13" width="1" height="1" fill="#a57d01"/>
  <rect x="3" y="14" width="1" height="1" fill="#a57d01"/>
  <rect x="3" y="15" width="1" height="1" fill="#a57d01"/>
  <rect x="3" y="16" width="1" height="1" fill="#a57d01"/>
  <rect x="3" y="17" width="1" height="1" fill="#a57d01"/>
  <rect x="3" y="18" width="1" height="1" fill="#a57d01"/>
  <rect x="3" y="19" width="1" height="1" fill="#a57d01"/>
  <rect x="3" y="20" width="1" height="1" fill="#a57d01"/>
  <rect x="3" y="21" width="1" height="1" fill="#a57d01"/>
  <rect x="3" y="22" width="1" height="1" fill="#a57d01"/>
  <rect x="3" y="23" width="1" height="1" fill="#a57d01"/>
  <rect x="3" y="24" width="1" height="1" fill="#a57d01"/>
  <rect x="3" y="25" width="1" height="1" fill="#a57d01"/>
  <rect x="3" y="26" width="1" height="1" fill="#a57d01"/>
  <rect x="3" y="27" width="1" height="1" fill="#a57d01"/>
  <rect x="3" y="28" width="1" height="1" fill="#a57d01"/>
  <rect x="2" y="11" width="1" height="1" fill="#a57d01"/>
  <rect x="2" y="12" width="1" height="1" fill="#a57d01"/>
  <rect x="2" y="13" width="1" height="1" fill="#a57d01"/>
  <rect x="2" y="14" width="1" height="1" fill="#a57d01"/>
  <rect x="2" y="15" width="1" height="1" fill="#a57d01"/>
  <rect x="2" y="16" width="1" height="1" fill="#a57d01"/>
  <rect x="1" y="13" width="1" height="1" fill="#a57d01"/>
  <rect x="1" y="14" width="1" height="1" fill="#a57d01"/>
  <rect x="1" y="15" width="1" height="1" fill="#a57d01"/>
  <rect x="1" y="16" width="1" height="1" fill="#a57d01"/>
  <rect x="2" y="17" width="1" height="1" fill="#a57d01"/>
  <rect x="2" y="18" width="1" height="1" fill="#a57d01"/>
  <rect x="2" y="19" width="1" height="1" fill="#a57d01"/>
  <rect x="2" y="20" width="1" height="1" fill="#a57d01"/>
  <rect x="2" y="21" width="1" height="1" fill="#a57d01"/>
  <rect x="2" y="22" width="1" height="1" fill="#a57d01"/>
  <rect x="2" y="23" width="1" height="1" fill="#a57d01"/>
  <rect x="2" y="24" width="1" height="1" fill="#a57d01"/>
  <rect x="2" y="25" width="1" height="1" fill="#a57d01"/>
  <rect x="2" y="26" width="1" height="1" fill="#a57d01"/>
  <rect x="1" y="22" width="1" height="1" fill="#a57d01"/>
  <rect x="1" y="23" width="1" height="1" fill="#a57d01"/>
  <rect x="1" y="24" width="1" height="1" fill="#a57d01"/>
  <rect x="1" y="25" width="1" height="1" fill="#a57d01"/>
  <rect x="1" y="26" width="1" height="1" fill="#a57d01"/>
  <rect x="2" y="27" width="1" height="1" fill="#a57d01"/>
  <rect x="2" y="28" width="1" height="1" fill="#a57d01"/>
  <rect x="3" y="29" width="1" height="1" fill="#a57d01"/>
  <rect x="3" y="30" width="1" height="1" fill="#a57d01"/>
  <rect x="4" y="31" width="1" height="1" fill="#a57d01"/>
  <rect x="5" y="32" width="1" height="1" fill="#a57d01"/>
  <rect x="6" y="33" width="1" height="1" fill="#a57d01"/>
  <rect x="7" y="34" width="1" height="1" fill="#a57d01"/>
  <rect x="9" y="35" width="1" height="1" fill="#a57d01"/>
  <rect x="10" y="35" width="1" height="1" fill="#a57d01"/>
  <rect x="11" y="35" width="1" height="1" fill="#a57d01"/>
  <rect x="12" y="35" width="1" height="1" fill="#a57d01"/>
  <rect x="13" y="35" width="1" height="1" fill="#a57d01"/>
  <rect x="14" y="35" width="1" height="1" fill="#a57d01"/>
  <rect x="15" y="35" width="1" height="1" fill="#a57d01"/>
  <rect x="16" y="35" width="1" height="1" fill="#a57d01"/>
  <rect x="17" y="35" width="1" height="1" fill="#a57d01"/>
  <rect x="18" y="35" width="1" height="1" fill="#a57d01"/>
  <rect x="19" y="35" width="1" height="1" fill="#a57d01"/>
  <rect x="20" y="35" width="1" height="1" fill="#a57d01"/>
  <rect x="21" y="35" width="1" height="1" fill="#a57d01"/>
  <rect x="22" y="35" width="1" height="1" fill="#a57d01"/>
  <rect x="23" y="35" width="1" height="1" fill="#a57d01"/>
  <rect x="24" y="35" width="1" height="1" fill="#a57d01"/>
  <rect x="25" y="35" width="1" height="1" fill="#a57d01"/>
  <rect x="26" y="35" width="1" height="1" fill="#a57d01"/>
  <rect x="27" y="35" width="1" height="1" fill="#a57d01"/>
  <rect x="28" y="35" width="1" height="1" fill="#a57d01"/>
  <rect x="29" y="35" width="1" height="1" fill="#a57d01"/>
  <rect x="30" y="35" width="1" height="1" fill="#a57d01"/>
  <rect x="9" y="36" width="1" height="1" fill="#a57d01"/>
  <rect x="10" y="36" width="1" height="1" fill="#a57d01"/>
  <rect x="11" y="36" width="1" height="1" fill="#a57d01"/>
  <rect x="12" y="36" width="1" height="1" fill="#a57d01"/>
  <rect x="13" y="36" width="1" height="1" fill="#a57d01"/>
  <rect x="14" y="36" width="1" height="1" fill="#a57d01"/>
  <rect x="15" y="36" width="1" height="1" fill="#a57d01"/>
  <rect x="16" y="36" width="1" height="1" fill="#a57d01"/>
  <rect x="17" y="36" width="1" height="1" fill="#a57d01"/>
  <rect x="18" y="36" width="1" height="1" fill="#a57d01"/>
  <rect x="19" y="36" width="1" height="1" fill="#a57d01"/>
  <rect x="20" y="36" width="1" height="1" fill="#a57d01"/>
  <rect x="21" y="36" width="1" height="1" fill="#a57d01"/>
  <rect x="22" y="36" width="1" height="1" fill="#a57d01"/>
  <rect x="23" y="36" width="1" height="1" fill="#a57d01"/>
  <rect x="24" y="36" width="1" height="1" fill="#a57d01"/>
  <rect x="25" y="36" width="1" height="1" fill="#a57d01"/>
  <rect x="26" y="36" width="1" height="1" fill="#a57d01"/>
  <rect x="27" y="36" width="1" height="1" fill="#a57d01"/>
  <rect x="28" y="36" width="1" height="1" fill="#a57d01"/>
  <rect x="11" y="37" width="1" height="1" fill="#a57d01"/>
  <rect x="12" y="37" width="1" height="1" fill="#a57d01"/>
  <rect x="13" y="37" width="1" height="1" fill="#a57d01"/>
  <rect x="14" y="37" width="1" height="1" fill="#a57d01"/>
  <rect x="15" y="37" width="1" height="1" fill="#a57d01"/>
  <rect x="16" y="37" width="1" height="1" fill="#a57d01"/>
  <rect x="17" y="37" width="1" height="1" fill="#a57d01"/>
  <rect x="18" y="37" width="1" height="1" fill="#a57d01"/>
  <rect x="19" y="37" width="1" height="1" fill="#a57d01"/>
  <rect x="20" y="37" width="1" height="1" fill="#a57d01"/>
  <rect x="21" y="37" width="1" height="1" fill="#a57d01"/>
  <rect x="22" y="37" width="1" height="1" fill="#a57d01"/>
  <rect x="23" y="37" width="1" height="1" fill="#a57d01"/>
  <rect x="24" y="37" width="1" height="1" fill="#a57d01"/>
  <rect x="25" y="37" width="1" height="1" fill="#a57d01"/>
  <rect x="26" y="37" width="1" height="1" fill="#a57d01"/>
  <rect x="13" y="38" width="1" height="1" fill="#a57d01"/>
  <rect x="14" y="38" width="1" height="1" fill="#a57d01"/>
  <rect x="15" y="38" width="1" height="1" fill="#a57d01"/>
  <rect x="16" y="38" width="1" height="1" fill="#a57d01"/>
  <rect x="17" y="38" width="1" height="1" fill="#a57d01"/>
  <rect x="18" y="38" width="1" height="1" fill="#a57d01"/>
  <rect x="19" y="38" width="1" height="1" fill="#a57d01"/>
  <rect x="20" y="38" width="1" height="1" fill="#a57d01"/>
  <rect x="21" y="38" width="1" height="1" fill="#a57d01"/>
  <rect x="22" y="38" width="1" height="1" fill="#a57d01"/>
  <rect x="23" y="38" width="1" height="1" fill="#a57d01"/>
  <rect x="24" y="38" width="1" height="1" fill="#a57d01"/>
  <rect x="25" y="38" width="1" height="1" fill="#a57d01"/>
  <rect x="26" y="38" width="1" height="1" fill="#a57d01"/>
  <rect x="27" y="37" width="1" height="1" fill="#a57d01"/>
  <rect x="28" y="37" width="1" height="1" fill="#a57d01"/>
  <rect x="29" y="36" width="1" height="1" fill="#a57d01"/>
  <rect x="30" y="36" width="1" height="1" fill="#a57d01"/>
  <rect x="31" y="35" width="1" height="1" fill="#a57d01"/>
  <rect x="8" y="35" width="1" height="1" fill="#a57d01"/>
  <rect x="10" y="4" width="1" height="1" fill="#a57d01"/>
  <rect x="27" y="4" width="1" height="1" fill="#a57d01"/>
  <rect x="27" y="5" width="1" height="1" fill="#a57d01"/>
  <rect x="28" y="5" width="1" height="1" fill="#a57d01"/>
  <rect x="29" y="5" width="1" height="1" fill="#a57d01"/>
  <rect x="30" y="5" width="1" height="1" fill="#a57d01"/>
  <rect x="31" y="5" width="1" height="1" fill="#a57d01"/>
  <rect x="32" y="5" width="1" height="1" fill="#a57d01"/>
  <rect x="29" y="6" width="1" height="1" fill="#a57d01"/>
  <rect x="30" y="6" width="1" height="1" fill="#a57d01"/>
  <rect x="31" y="6" width="1" height="1" fill="#a57d01"/>
  <rect x="32" y="6" width="1" height="1" fill="#a57d01"/>
  <rect x="33" y="6" width="1" height="1" fill="#a57d01"/>
  <rect x="30" y="7" width="1" height="1" fill="#a57d01"/>
  <rect x="31" y="7" width="1" height="1" fill="#a57d01"/>
  <rect x="32" y="7" width="1" height="1" fill="#a57d01"/>
  <rect x="33" y="7" width="1" height="1" fill="#a57d01"/>
  <rect x="34" y="7" width="1" height="1" fill="#a57d01"/>
  <rect x="31" y="8" width="1" height="1" fill="#a57d01"/>
  <rect x="32" y="8" width="1" height="1" fill="#a57d01"/>
  <rect x="33" y="8" width="1" height="1" fill="#a57d01"/>
  <rect x="34" y="8" width="1" height="1" fill="#a57d01"/>
  <rect x="35" y="8" width="1" height="1" fill="#a57d01"/>
  <rect x="32" y="9" width="1" height="1" fill="#a57d01"/>
  <rect x="33" y="9" width="1" height="1" fill="#a57d01"/>
  <rect x="34" y="9" width="1" height="1" fill="#a57d01"/>
  <rect x="35" y="9" width="1" height="1" fill="#a57d01"/>
  <rect x="36" y="9" width="1" height="1" fill="#a57d01"/>
  <rect x="32" y="10" width="1" height="1" fill="#a57d01"/>
  <rect x="33" y="10" width="1" height="1" fill="#a57d01"/>
  <rect x="34" y="10" width="1" height="1" fill="#a57d01"/>
  <rect x="35" y="10" width="1" height="1" fill="#a57d01"/>
  <rect x="36" y="10" width="1" height="1" fill="#a57d01"/>
  <rect x="32" y="11" width="1" height="1" fill="#a57d01"/>
  <rect x="33" y="11" width="1" height="1" fill="#a57d01"/>
  <rect x="34" y="11" width="1" height="1" fill="#a57d01"/>
  <rect x="35" y="11" width="1" height="1" fill="#a57d01"/>
  <rect x="36" y="11" width="1" height="1" fill="#a57d01"/>
  <rect x="37" y="11" width="1" height="1" fill="#a57d01"/>
  <rect x="32" y="12" width="1" height="1" fill="#a57d01"/>
  <rect x="33" y="12" width="1" height="1" fill="#a57d01"/>
  <rect x="34" y="12" width="1" height="1" fill="#a57d01"/>
  <rect x="35" y="12" width="1" height="1" fill="#a57d01"/>
  <rect x="36" y="12" width="1" height="1" fill="#a57d01"/>
  <rect x="37" y="12" width="1" height="1" fill="#a57d01"/>
  <rect x="32" y="13" width="1" height="1" fill="#a57d01"/>
  <rect x="33" y="13" width="1" height="1" fill="#a57d01"/>
  <rect x="34" y="13" width="1" height="1" fill="#a57d01"/>
  <rect x="35" y="13" width="1" height="1" fill="#a57d01"/>
  <rect x="36" y="13" width="1" height="1" fill="#a57d01"/>
  <rect x="37" y="13" width="1" height="1" fill="#a57d01"/>
  <rect x="38" y="13" width="1" height="1" fill="#a57d01"/>
  <rect x="32" y="14" width="1" height="1" fill="#a57d01"/>
  <rect x="33" y="14" width="1" height="1" fill="#a57d01"/>
  <rect x="34" y="14" width="1" height="1" fill="#a57d01"/>
  <rect x="35" y="14" width="1" height="1" fill="#a57d01"/>
  <rect x="36" y="14" width="1" height="1" fill="#a57d01"/>
  <rect x="37" y="14" width="1" height="1" fill="#a57d01"/>
  <rect x="38" y="14" width="1" height="1" fill="#a57d01"/>
  <rect x="32" y="15" width="1" height="1" fill="#a57d01"/>
  <rect x="33" y="15" width="1" height="1" fill="#a57d01"/>
  <rect x="34" y="15" width="1" height="1" fill="#a57d01"/>
  <rect x="35" y="15" width="1" height="1" fill="#a57d01"/>
  <rect x="36" y="15" width="1" height="1" fill="#a57d01"/>
  <rect x="37" y="15" width="1" height="1" fill="#a57d01"/>
  <rect x="38" y="15" width="1" height="1" fill="#a57d01"/>
  <rect x="32" y="16" width="1" height="1" fill="#a57d01"/>
  <rect x="33" y="16" width="1" height="1" fill="#a57d01"/>
  <rect x="34" y="16" width="1" height="1" fill="#a57d01"/>
  <rect x="35" y="16" width="1" height="1" fill="#a57d01"/>
  <rect x="36" y="16" width="1" height="1" fill="#a57d01"/>
  <rect x="37" y="16" width="1" height="1" fill="#a57d01"/>
  <rect x="38" y="16" width="1" height="1" fill="#a57d01"/>
  <rect x="32" y="17" width="1" height="1" fill="#a57d01"/>
  <rect x="31" y="17" width="1" height="1" fill="#a57d01"/>
  <rect x="31" y="18" width="1" height="1" fill="#a57d01"/>
  <rect x="31" y="19" width="1" height="1" fill="#a57d01"/>
  <rect x="31" y="20" width="1" height="1" fill="#a57d01"/>
  <rect x="30" y="19" width="1" height="1" fill="#a57d01"/>
  <rect x="30" y="20" width="1" height="1" fill="#a57d01"/>
  <rect x="29" y="19" width="1" height="1" fill="#a57d01"/>
  <rect x="29" y="20" width="1" height="1" fill="#a57d01"/>
  <rect x="31" y="21" width="1" height="1" fill="#a57d01"/>
  <rect x="31" y="22" width="1" height="1" fill="#a57d01"/>
  <rect x="33" y="17" width="1" height="1" fill="#a57d01"/>
  <rect x="34" y="17" width="1" height="1" fill="#a57d01"/>
  <rect x="35" y="17" width="1" height="1" fill="#a57d01"/>
  <rect x="36" y="17" width="1" height="1" fill="#a57d01"/>
  <rect x="37" y="17" width="1" height="1" fill="#a57d01"/>
  <rect x="38" y="17" width="1" height="1" fill="#a57d01"/>
  <rect x="32" y="18" width="1" height="1" fill="#a57d01"/>
  <rect x="33" y="18" width="1" height="1" fill="#a57d01"/>
  <rect x="34" y="18" width="1" height="1" fill="#a57d01"/>
  <rect x="35" y="18" width="1" height="1" fill="#a57d01"/>
  <rect x="36" y="18" width="1" height="1" fill="#a57d01"/>
  <rect x="37" y="18" width="1" height="1" fill="#a57d01"/>
  <rect x="38" y="18" width="1" height="1" fill="#a57d01"/>
  <rect x="32" y="19" width="1" height="1" fill="#a57d01"/>
  <rect x="33" y="19" width="1" height="1" fill="#a57d01"/>
  <rect x="34" y="19" width="1" height="1" fill="#a57d01"/>
  <rect x="35" y="19" width="1" height="1" fill="#a57d01"/>
  <rect x="36" y="19" width="1" height="1" fill="#a57d01"/>
  <rect x="37" y="19" width="1" height="1" fill="#a57d01"/>
  <rect x="38" y="19" width="1" height="1" fill="#a57d01"/>
  <rect x="32" y="20" width="1" height="1" fill="#a57d01"/>
  <rect x="33" y="20" width="1" height="1" fill="#a57d01"/>
  <rect x="34" y="20" width="1" height="1" fill="#a57d01"/>
  <rect x="35" y="20" width="1" height="1" fill="#a57d01"/>
  <rect x="36" y="20" width="1" height="1" fill="#a57d01"/>
  <rect x="37" y="20" width="1" height="1" fill="#a57d01"/>
  <rect x="38" y="20" width="1" height="1" fill="#a57d01"/>
  <rect x="32" y="21" width="1" height="1" fill="#a57d01"/>
  <rect x="33" y="21" width="1" height="1" fill="#a57d01"/>
  <rect x="34" y="21" width="1" height="1" fill="#a57d01"/>
  <rect x="35" y="21" width="1" height="1" fill="#a57d01"/>
  <rect x="36" y="21" width="1" height="1" fill="#a57d01"/>
  <rect x="37" y="21" width="1" height="1" fill="#a57d01"/>
  <rect x="38" y="21" width="1" height="1" fill="#a57d01"/>
  <rect x="32" y="22" width="1" height="1" fill="#a57d01"/>
  <rect x="33" y="22" width="1" height="1" fill="#a57d01"/>
  <rect x="34" y="22" width="1" height="1" fill="#a57d01"/>
  <rect x="35" y="22" width="1" height="1" fill="#a57d01"/>
  <rect x="36" y="22" width="1" height="1" fill="#a57d01"/>
  <rect x="37" y="22" width="1" height="1" fill="#a57d01"/>
  <rect x="38" y="22" width="1" height="1" fill="#a57d01"/>
  <rect x="32" y="23" width="1" height="1" fill="#a57d01"/>
  <rect x="33" y="23" width="1" height="1" fill="#a57d01"/>
  <rect x="34" y="23" width="1" height="1" fill="#a57d01"/>
  <rect x="35" y="23" width="1" height="1" fill="#a57d01"/>
  <rect x="36" y="23" width="1" height="1" fill="#a57d01"/>
  <rect x="37" y="23" width="1" height="1" fill="#a57d01"/>
  <rect x="38" y="23" width="1" height="1" fill="#a57d01"/>
  <rect x="32" y="24" width="1" height="1" fill="#a57d01"/>
  <rect x="33" y="24" width="1" height="1" fill="#a57d01"/>
  <rect x="34" y="24" width="1" height="1" fill="#a57d01"/>
  <rect x="35" y="24" width="1" height="1" fill="#a57d01"/>
  <rect x="36" y="24" width="1" height="1" fill="#a57d01"/>
  <rect x="37" y="24" width="1" height="1" fill="#a57d01"/>
  <rect x="38" y="24" width="1" height="1" fill="#a57d01"/>
  <rect x="32" y="25" width="1" height="1" fill="#a57d01"/>
  <rect x="33" y="25" width="1" height="1" fill="#a57d01"/>
  <rect x="34" y="25" width="1" height="1" fill="#a57d01"/>
  <rect x="35" y="25" width="1" height="1" fill="#a57d01"/>
  <rect x="36" y="25" width="1" height="1" fill="#a57d01"/>
  <rect x="37" y="25" width="1" height="1" fill="#a57d01"/>
  <rect x="38" y="25" width="1" height="1" fill="#a57d01"/>
  <rect x="38" y="26" width="1" height="1" fill="#a57d01"/>
  <rect x="32" y="26" width="1" height="1" fill="#a57d01"/>
  <rect x="33" y="26" width="1" height="1" fill="#a57d01"/>
  <rect x="34" y="26" width="1" height="1" fill="#a57d01"/>
  <rect x="35" y="26" width="1" height="1" fill="#a57d01"/>
  <rect x="36" y="26" width="1" height="1" fill="#a57d01"/>
  <rect x="37" y="26" width="1" height="1" fill="#a57d01"/>
  <rect x="32" y="27" width="1" height="1" fill="#a57d01"/>
  <rect x="33" y="27" width="1" height="1" fill="#a57d01"/>
  <rect x="34" y="27" width="1" height="1" fill="#a57d01"/>
  <rect x="35" y="27" width="1" height="1" fill="#a57d01"/>
  <rect x="36" y="27" width="1" height="1" fill="#a57d01"/>
  <rect x="37" y="27" width="1" height="1" fill="#a57d01"/>
  <rect x="32" y="28" width="1" height="1" fill="#a57d01"/>
  <rect x="33" y="28" width="1" height="1" fill="#a57d01"/>
  <rect x="34" y="28" width="1" height="1" fill="#a57d01"/>
  <rect x="35" y="28" width="1" height="1" fill="#a57d01"/>
  <rect x="36" y="28" width="1" height="1" fill="#a57d01"/>
  <rect x="32" y="29" width="1" height="1" fill="#a57d01"/>
  <rect x="33" y="29" width="1" height="1" fill="#a57d01"/>
  <rect x="34" y="29" width="1" height="1" fill="#a57d01"/>
  <rect x="35" y="29" width="1" height="1" fill="#a57d01"/>
  <rect x="36" y="29" width="1" height="1" fill="#a57d01"/>
  <rect x="32" y="30" width="1" height="1" fill="#a57d01"/>
  <rect x="33" y="30" width="1" height="1" fill="#a57d01"/>
  <rect x="34" y="30" width="1" height="1" fill="#a57d01"/>
  <rect x="35" y="30" width="1" height="1" fill="#a57d01"/>
  <rect x="32" y="31" width="1" height="1" fill="#a57d01"/>
  <rect x="31" y="31" width="1" height="1" fill="#a57d01"/>
  <rect x="33" y="31" width="1" height="1" fill="#a57d01"/>
  <rect x="34" y="31" width="1" height="1" fill="#a57d01"/>
  <rect x="32" y="32" width="1" height="1" fill="#a57d01"/>
  <rect x="31" y="32" width="1" height="1" fill="#a57d01"/>
  <rect x="30" y="32" width="1" height="1" fill="#a57d01"/>
  <rect x="33" y="32" width="1" height="1" fill="#a57d01"/>
  <rect x="32" y="33" width="1" height="1" fill="#a57d01"/>
  <rect x="31" y="33" width="1" height="1" fill="#a57d01"/>
  <rect x="30" y="33" width="1" height="1" fill="#a57d01"/>
  <rect x="29" y="33" width="1" height="1" fill="#a57d01"/>
  <rect x="32" y="34" width="1" height="1" fill="#a57d01"/>
  <rect x="31" y="34" width="1" height="1" fill="#a57d01"/>
  <rect x="30" y="34" width="1" height="1" fill="#a57d01"/>
  <rect x="29" y="34" width="1" height="1" fill="#a57d01"/>
  <rect x="28" y="34" width="1" height="1" fill="#a57d01"/>
  <rect x="27" y="34" width="1" height="1" fill="#a57d01"/>
  <rect x="33" y="33" width="1" height="1" fill="#a57d01"/>
  <rect x="34" y="32" width="1" height="1" fill="#a57d01"/>
  <rect x="35" y="31" width="1" height="1" fill="#a57d01"/>
  <rect x="36" y="30" width="1" height="1" fill="#a57d01"/>
  <rect x="37" y="28" width="1" height="1" fill="#a57d01"/>
  <rect x="28" y="4" width="1" height="1" fill="#a57d01"/>
  <rect x="29" y="4" width="1" height="1" fill="#a57d01"/>
  <rect x="30" y="4" width="1" height="1" fill="#a57d01"/>
  <rect x="31" y="4" width="1" height="1" fill="#a57d01"/>
  <rect x="15" y="4" width="1" height="1" fill="#a57d01"/>
  <rect x="16" y="4" width="1" height="1" fill="#a57d01"/>
  <rect x="17" y="4" width="1" height="1" fill="#a57d01"/>
  <rect x="18" y="4" width="1" height="1" fill="#a57d01"/>
  <rect x="19" y="4" width="1" height="1" fill="#a57d01"/>
  <rect x="20" y="4" width="1" height="1" fill="#a57d01"/>
  <rect x="21" y="4" width="1" height="1" fill="#a57d01"/>
  <rect x="22" y="4" width="1" height="1" fill="#a57d01"/>
  <rect x="23" y="4" width="1" height="1" fill="#a57d01"/>
  <rect x="24" y="4" width="1" height="1" fill="#a57d01"/>
  <rect x="25" y="4" width="1" height="1" fill="#a57d01"/>
  <rect x="26" y="4" width="1" height="1" fill="#a57d01"/>
  <rect x="18" width="1" height="1" fill="#a57d01"/>
  <rect x="19" width="1" height="1" fill="#a57d01"/>
  <rect x="20" width="1" height="1" fill="#a57d01"/>
  <rect x="21" width="1" height="1" fill="#a57d01"/>
  <rect x="22" width="1" height="1" fill="#a57d01"/>
  <rect x="17" y="39" width="1" height="1" fill="#a57d01"/>
  <rect x="18" y="39" width="1" height="1" fill="#a57d01"/>
  <rect x="19" y="39" width="1" height="1" fill="#a57d01"/>
  <rect x="20" y="39" width="1" height="1" fill="#a57d01"/>
  <rect x="21" y="39" width="1" height="1" fill="#a57d01"/>
  <rect x="22" y="39" width="1" height="1" fill="#a57d01"/>
</svg>
