<svg xmlns="http://www.w3.org/2000/svg" width="40" height="40" viewBox="0 0 40 40">
  <rect x="1" y="13" width="1" height="1" fill="#a57d01"/>
  <rect x="1" y="14" width="1" height="1" fill="#a57d01"/>
  <rect x="2" y="13" width="1" height="1" fill="#a57d01"/>
  <rect x="2" y="14" width="1" height="1" fill="#a57d01"/>
  <rect x="3" y="13" width="1" height="1" fill="#a57d01"/>
  <rect x="3" y="14" width="1" height="1" fill="#a57d01"/>
  <rect x="4" y="13" width="1" height="1" fill="#a57d01"/>
  <rect x="4" y="14" width="1" height="1" fill="#a57d01"/>
  <rect x="5" y="13" width="1" height="1" fill="#a57d01"/>
  <rect x="5" y="14" width="1" height="1" fill="#a57d01"/>
  <rect x="6" y="13" width="1" height="1" fill="#a57d01"/>
  <rect x="10" y="12" width="1" height="1" fill="#a57d01"/>
  <rect x="10" y="13" width="1" height="1" fill="#a57d01"/>
  <rect x="10" y="16" width="1" height="1" fill="#a57d01"/>
  <rect x="10" y="17" width="1" height="1" fill="#a57d01"/>
  <rect x="10" y="18" width="1" height="1" fill="#a57d01"/>
  <rect x="10" y="19" width="1" height="1" fill="#a57d01"/>
  <rect x="10" y="20" width="1" height="1" fill="#a57d01"/>
  <rect x="10" y="21" width="1" height="1" fill="#a57d01"/>
  <rect x="10" y="22" width="1" height="1" fill="#a57d01"/>
  <rect x="10" y="23" width="1" height="1" fill="#a57d01"/>
  <rect x="9" y="12" width="1" height="1" fill="#a57d01"/>
  <rect x="9" y="13" width="1" height="1" fill="#a57d01"/>
  <rect x="9" y="16" width="1" height="1" fill="#a57d01"/>
  <rect x="9" y="17" width="1" height="1" fill="#a57d01"/>
  <rect x="9" y="18" width="1" height="1" fill="#a57d01"/>
  <rect x="9" y="19" width="1" height="1" fill="#a57d01"/>
  <rect x="9" y="20" width="1" height="1" fill="#a57d01"/>
  <rect x="9" y="21" width="1" height="1" fill="#a57d01"/>
  <rect x="9" y="22" width="1" height="1" fill="#a57d01"/>
  <rect x="9" y="23" width="1" height="1" fill="#a57d01"/>
  <rect x="15" y="23" width="1" height="1" fill="#a57d01"/>
  <rect x="16" y="23" width="1" height="1" fill="#a57d01"/>
  <rect x="15" y="22" width="1" height="1" fill="#a57d01"/>
  <rect x="16" y="22" width="1" height="1" fill="#a57d01"/>
  <rect x="15" y="21" width="1" height="1" fill="#a57d01"/>
  <rect x="16" y="21" width="1" height="1" fill="#a57d01"/>
  <rect x="15" y="20" width="1" height="1" fill="#a57d01"/>
  <rect x="16" y="20" width="1" height="1" fill="#a57d01"/>
  <rect x="15" y="19" width="1" height="1" fill="#a57d01"/>
  <rect x="16" y="19" width="1" height="1" fill="#a57d01"/>
  <rect x="15" y="18" width="1" height="1" fill="#a57d01"/>
  <rect x="15" y="17" width="1" height="1" fill="#a57d01"/>
  <rect x="15" y="16" width="1" height="1" fill="#a57d01"/>
  <rect x="15" y="15" width="1" height="1" fill="#a57d01"/>
  <rect x="14" y="15" width="1" height="1" fill="#a57d01"/>
  <rect x="13" y="15" width="1" height="1" fill="#a57d01"/>
  <rect x="13" y="16" width="1" height="1" fill="#a57d01"/>
  <rect x="13" y="17" width="1" height="1" fill="#a57d01"/>
  <rect x="14" y="18" width="1" height="1" fill="#a57d01"/>
  <rect x="16" y="18" width="1" height="1" fill="#a57d01"/>
  <rect x="16" y="17" width="1" height="1" fill="#a57d01"/>
  <rect x="17" y="17" width="1" height="1" fill="#a57d01"/>
  <rect x="18" y="17" width="1" height="1" fill="#a57d01"/>
  <rect x="18" y="16" width="1" height="1" fill="#a57d01"/>
  <rect x="19" y="17" width="1" height="1" fill="#a57d01"/>
  <rect x="19" y="16" width="1" height="1" fill="#a57d01"/>
  <rect x="20" y="17" width="1" height="1" fill="#a57d01"/>
  <rect x="20" y="18" width="1" height="1" fill="#a57d01"/>
  <rect x="20" y="19" width="1" height="1" fill="#a57d01"/>
  <rect x="20" y="20" width="1" height="1" fill="#a57d01"/>
  <rect x="20" y="21" width="1" height="1" fill="#a57d01"/>
  <rect x="20" y="22" width="1" height="1" fill="#a57d01"/>
  <rect x="20" y="23" width="1" height="1" fill="#a57d01"/>
  <rect x="28" y="16" width="1" height="1" fill="#a57d01"/>
  <rect x="27" y="16" width="1" height="1" fill="#a57d01"/>
  <rect x="26" y="16" width="1" height="1" fill="#a57d01"/>
  <rect x="25" y="16" width="1" height="1" fill="#a57d01"/>
  <rect x="24" y="17" width="1" height="1" fill="#a57d01"/>
  <rect x="24" y="18" width="1" height="1" fill="#a57d01"/>
  <rect x="24" y="19" width="1" height="1" fill="#a57d01"/>
  <rect x="24" y="20" width="1" height="1" fill="#a57d01"/>
  <rect x="24" y="21" width="1" height="1" fill="#a57d01"/>
  <rect x="23" y="18" width="1" height="1" fill="#a57d01"/>
  <rect x="23" y="19" width="1" height="1" fill="#a57d01"/>
  <rect x="23" y="20" width="1" height="1" fill="#a57d01"/>
  <rect x="23" y="21" width="1" height="1" fill="#a57d01"/>
  <rect x="30" y="18" width="1" height="1" fill="#a57d01"/>
  <rect x="30" y="19" width="1" height="1" fill="#a57d01"/>
  <rect x="30" y="20" width="1" height="1" fill="#a57d01"/>
  <rect x="30" y="21" width="1" height="1" fill="#a57d01"/>
  <rect x="29" y="18" width="1" height="1" fill="#a57d01"/>
  <rect x="29" y="17" width="1" height="1" fill="#a57d01"/>
  <rect x="32" y="13" width="1" height="1" fill="#a57d01"/>
  <rect x="33" y="13" width="1" height="1" fill="#a57d01"/>
  <rect x="32" y="14" width="1" height="1" fill="#a57d01"/>
  <rect x="32" y="15" width="1" height="1" fill="#a57d01"/>
  <rect x="38" y="16" width="1" height="1" fill="#a57d01"/>
  <rect x="37" y="16" width="1" height="1" fill="#a57d01"/>
  <rect x="36" y="16" width="1" height="1" fill="#a57d01"/>
  <rect x="35" y="16" width="1" height="1" fill="#a57d01"/>
  <rect x="35" y="17" width="1" height="1" fill="#a57d01"/>
  <rect x="34" y="17" width="1" height="1" fill="#a57d01"/>
  <rect x="35" y="18" width="1" height="1" fill="#a57d01"/>
  <rect x="35" y="19" width="1" height="1" fill="#a57d01"/>
  <rect x="36" y="19" width="1" height="1" fill="#a57d01"/>
  <rect x="37" y="19" width="1" height="1" fill="#a57d01"/>
  <rect x="37" y="20" width="1" height="1" fill="#a57d01"/>
  <rect x="38" y="20" width="1" height="1" fill="#a57d01"/>
  <rect x="38" y="21" width="1" height="1" fill="#a57d01"/>
  <rect x="39" y="21" width="1" height="1" fill="#a57d01"/>
  <rect x="38" y="22" width="1" height="1" fill="#a57d01"/>
  <rect x="34" y="22" width="1" height="1" fill="#a57d01"/>
  <rect x="35" y="23" width="1" height="1" fill="#a57d01"/>
  <rect x="36" y="23" width="1" height="1" fill="#a57d01"/>
  <rect x="37" y="23" width="1" height="1" fill="#a57d01"/>
  <rect x="38" y="23" width="1" height="1" fill="#a57d01"/>
  <rect x="39" y="22" width="1" height="1" fill="#a57d01"/>
  <rect x="34" y="18" width="1" height="1" fill="#a57d01"/>
  <rect x="33" y="14" width="1" height="1" fill="#a57d01"/>
  <rect x="29" y="19" width="1" height="1" fill="#a57d01"/>
  <rect x="29" y="20" width="1" height="1" fill="#a57d01"/>
  <rect x="29" y="21" width="1" height="1" fill="#a57d01"/>
  <rect x="24" y="22" width="1" height="1" fill="#a57d01"/>
  <rect x="25" y="23" width="1" height="1" fill="#a57d01"/>
  <rect x="26" y="23" width="1" height="1" fill="#a57d01"/>
  <rect x="27" y="23" width="1" height="1" fill="#a57d01"/>
  <rect x="28" y="23" width="1" height="1" fill="#a57d01"/>
  <rect x="29" y="22" width="1" height="1" fill="#a57d01"/>
  <rect x="20" y="16" width="1" height="1" fill="#a57d01"/>
  <rect x="6" y="14" width="1" height="1" fill="#a57d01"/>
  <rect x="5" y="15" width="1" height="1" fill="#a57d01"/>
  <rect x="6" y="15" width="1" height="1" fill="#a57d01"/>
  <rect x="5" y="16" width="1" height="1" fill="#a57d01"/>
  <rect x="6" y="16" width="1" height="1" fill="#a57d01"/>
  <rect x="5" y="17" width="1" height="1" fill="#a57d01"/>
  <rect x="6" y="17" width="1" height="1" fill="#a57d01"/>
  <rect x="5" y="18" width="1" height="1" fill="#a57d01"/>
  <rect x="6" y="18" width="1" height="1" fill="#a57d01"/>
  <rect x="5" y="19" width="1" height="1" fill="#a57d01"/>
  <rect x="6" y="19" width="1" height="1" fill="#a57d01"/>
  <rect x="5" y="20" width="1" height="1" fill="#a57d01"/>
  <rect x="6" y="20" width="1" height="1" fill="#a57d01"/>
  <rect x="5" y="21" width="1" height="1" fill="#a57d01"/>
  <rect x="6" y="21" width="1" height="1" fill="#a57d01"/>
  <rect x="5" y="22" width="1" height="1" fill="#a57d01"/>
  <rect x="6" y="22" width="1" height="1" fill="#a57d01"/>
  <rect x="5" y="23" width="1" height="1" fill="#a57d01"/>
  <rect x="6" y="23" width="1" height="1" fill="#a57d01"/>
  <rect x="1" y="23" width="1" height="1" fill="#a57d01"/>
  <rect x="1" y="24" width="1" height="1" fill="#a57d01"/>
  <rect x="2" y="24" width="1" height="1" fill="#a57d01"/>
  <rect x="2" y="25" width="1" height="1" fill="#a57d01"/>
  <rect x="3" y="24" width="1" height="1" fill="#a57d01"/>
  <rect x="3" y="25" width="1" height="1" fill="#a57d01"/>
  <rect x="4" y="24" width="1" height="1" fill="#a57d01"/>
  <rect x="4" y="25" width="1" height="1" fill="#a57d01"/>
  <rect x="5" y="24" width="1" height="1" fill="#a57d01"/>
</svg>
