<svg xmlns="http://www.w3.org/2000/svg" width="1920" height="1080" viewBox="0 0 1920 1080">
  <g>
    <g>
      <g>
        <g>
          <path d="M578.8,659c-31.74,0-58.507-13.494-78.921-37.374a3.472,3.472,0,0,1-.315-4.109l19.91-31.6a3.446,3.446,0,0,1,5.352-.613c16.964,17.086,36.576,26.1,52.85,26.1,21.738,0,34.855-13.491,34.855-38.227V404.98a3.455,3.455,0,0,0-3.455-3.454H525.658a3.455,3.455,0,0,1-3.454-3.454V360.383a3.455,3.455,0,0,1,3.454-3.455H659.665a3.454,3.454,0,0,1,3.454,3.455V574.3C663.119,628.267,630.889,659,578.8,659Z" fill="#e8bc28"/>
          <path d="M765.534,361.425c0,15.741-10.868,26.984-26.237,26.984s-26.234-11.243-26.234-26.984,10.869-26.984,26.234-26.984S765.534,345.684,765.534,361.425Zm-1.875,60.8v193.6a3.455,3.455,0,0,1-3.455,3.455H718.393a3.454,3.454,0,0,1-3.454-3.455V422.22a3.454,3.454,0,0,1,3.454-3.455H760.2A3.455,3.455,0,0,1,763.659,422.22Z" fill="#e8bc28"/>
          <path d="M1281.924,383.162c0,8.245-3,14.992-7.121,21.362l-21.839,33.3a3.454,3.454,0,0,1-2.888,1.56h-17.3a3.454,3.454,0,0,1-3.185-4.791l12.608-30.064c-7.121-4.872-10.493-12.743-10.493-21.362,0-15.366,10.869-26.234,25.11-26.234C1270.307,356.928,1281.924,366.3,1281.924,383.162Z" fill="#e8bc28"/>
        </g>
        <path d="M937.905,421.736l.007-.007c-3.736,0-5.4.32-6.97,2.126-7.148,9.232-38.4,42.994-44.511,42.994,0-25.959-9.6-68.963-56.884-68.963-25.356,0-42.176,17.993-42.176,44.248,0,42.272,33.936,57.352,53.25,57.352V615.82a3.454,3.454,0,0,0,3.455,3.454h41.61a3.456,3.456,0,0,0,3.455-3.463l-.28-119.692c15.917-7.832,29.792-17.433,47.386-38.408a.622.622,0,0,1,.825-.118c11.183,7.77,13.705,23.5,13.705,32.105V615.82a3.454,3.454,0,0,0,3.455,3.454H996.28a3.454,3.454,0,0,0,3.455-3.454v-132.6C992.823,434.116,955.78,422.186,937.905,421.736ZM841.9,468.875c-8.058-1.34-15.931-3.957-21.081-9.4s-7.719-11.224-7.719-17.338q0-6.266,3.468-10.069a11.436,11.436,0,0,1,8.84-3.8c11.283,0,16.492,13.539,16.492,19.656Z" fill="#e8bc28"/>
        <path d="M1223.105,519.652c0,57.784-39.322,102.854-98.183,102.854-59.223,0-98.545-45.07-98.545-102.854,0-57.431,39.322-102.132,98.545-102.132C1183.783,417.52,1223.105,462.221,1223.105,519.652Zm-148.7.722c0,36.968,16.057,75.375,50.514,75.375,34.1,0,50.152-38.407,50.152-75.375,0-36.616-16.057-75.343-50.152-75.343C1090.465,445.031,1074.408,483.758,1074.408,520.374Z" fill="#e8bc28"/>
      </g>
      <path d="M1349.024,454.857c-14.322,0-24.552,5.239-24.552,17.584,0,33.671,96.5,16.087,96.5,87.918,0,40.779-33.076,60.608-71.945,60.608-26.709,0-54.374-9.1-73.436-26.274a3.689,3.689,0,0,1-.829-4.206l12.51-27.756a3,3,0,0,1,4.71-1.222c16.625,14.07,40.11,22.045,58.748,22.045,15.344,0,26.936-5.611,26.936-18.7,0-37.039-95.129-16.835-94.79-87.918,0-41.154,32.053-60.234,68.877-60.234,22.84,0,46.616,7.195,64.459,19.616a3.645,3.645,0,0,1,1.121,4.455l-13.282,29.148a3.01,3.01,0,0,1-4.348,1.46C1382.692,460.892,1363.87,454.857,1349.024,454.857Z" fill="#e8bc28"/>
    </g>
    <g>
      <path d="M762.241,674.419V689.57h-21.07v55.185H722.809V689.57h-20.87V674.419Z" fill="#e8bc28"/>
      <path d="M808.1,674.419v28.7h28.394v-28.7h18.361v70.336H836.494V717.764H808.1v26.991H789.737V674.419Z" fill="#e8bc28"/>
      <path d="M935.429,732.314h-30.4l-4.917,12.441H881.248l30.2-70.336h18.864l29.5,70.336H940.245Zm-5.418-14.048-9.633-25.083-9.833,25.083Z" fill="#e8bc28"/>
      <path d="M1004.563,674.419v70.336H986.2V674.419Z" fill="#e8bc28"/>
      <path d="M1121.858,689.471c-10.837,0-19.063,8.528-19.063,19.765,0,11.339,8.226,19.967,19.063,19.967,5.82,0,12.542-3.211,17.458-8.228l10.737,11.54c-7.526,7.925-18.763,13.044-29.2,13.044-21.17,0-36.924-15.453-36.924-36.122,0-20.267,16.154-35.519,37.626-35.519a40.347,40.347,0,0,1,28.395,12.041L1139.316,698.7C1134.7,693.083,1127.978,689.471,1121.858,689.471Z" fill="#e8bc28"/>
      <path d="M1224,732.314h-30.4l-4.917,12.441h-18.862l30.2-70.336h18.863l29.5,70.336h-19.566Zm-5.418-14.048-9.632-25.083-9.834,25.083Z" fill="#e8bc28"/>
      <path d="M1327.353,674.419l-.1,14.65h-34.113V704.72h31.5v14.65h-31.5v25.385h-18.363V674.419Z" fill="#e8bc28"/>
      <path d="M1411.235,674.419v14.65h-37.123v13.143h33.512v14.55l-33.512.1v13.245h38.127v14.649h-56.49V674.419Z" fill="#e8bc28"/>
    </g>
  </g>
</svg>
