<svg xmlns="http://www.w3.org/2000/svg" width="1862.266" height="627.758" viewBox="0 0 1862.266 627.758">
  <g>
    <path d="M140.553,41.408V283.494H93.171V41.408H0V0H233.724V41.408Z"/>
    <path d="M254.835,43.4V0h45.391V43.4Zm0,240.1V81.226h45.391V283.494Z"/>
    <path d="M624.731,158.867V283.494H579.342V163.248c0-35.835-13.938-50.171-36.632-50.171-26.678,0-42.6,22.7-42.6,61.321v109.1H454.715V158.469c0-28.668-12.74-45.392-36.232-45.392-27.076,0-42.6,23.1-42.6,62.115v108.3H330.487V81.226h43.4v24.288h.8c14.335-19.509,32.251-29.066,56.141-29.066,27.873,0,49.372,12.74,59.724,36.629,14.733-23.091,34.242-36.629,64.9-36.629C598.454,76.448,624.731,104.318,624.731,158.867Z"/>
    <path d="M842.536,182.359c0,65.7-38.223,107.106-99.54,107.106s-99.94-41.408-99.94-107.106S681.679,75.252,743,75.252,842.536,116.663,842.536,182.359Zm-151.7,0c0,43.8,19.909,71.272,52.16,71.272s52.158-27.473,52.158-71.272S775.248,111.087,743,111.087,690.836,138.56,690.836,182.359Z"/>
    <path d="M967.57,246.862V282.3a100.951,100.951,0,0,1-25.483,3.583c-42.6,0-61.317-17.916-61.317-62.112v-107.9H846.925V81.226H880.77V30.659h45.391V81.226h39.418v34.64H926.161V217c0,22.694,7.564,31.851,27.473,31.851C958.81,248.852,964.384,248.057,967.57,246.862Z"/>
    <path d="M1041.627,105.116c14.335-19.512,35.437-28.668,58.134-28.668,45.786,0,73.66,27.87,73.66,83.216v123.83h-45.392V163.645c0-36.232-15.528-50.568-41.011-50.568-25.88,0-46.186,19.512-46.186,58.135V283.494H995.44V0h45.392V105.116Z"/>
    <path d="M1299.255,292.253c-19.111,51.363-41.411,66.891-88.392,66.891a90.49,90.49,0,0,1-22.7-2.785v-37.03a66.778,66.778,0,0,0,19.114,2.785c24.685,0,35.438-9.156,44.992-37.027L1178.214,81.226h48.574l50.568,150.505h.8l52.16-150.5H1377.3Z"/>
    <path d="M121.839,338.29c94.765,0,148.515,50.966,148.515,141.749S216.6,621.785,121.839,621.785H31.059V338.29Zm-43.4,242.086h42.6c66.093,0,99.938-34.241,99.938-100.337S187.137,379.7,121.044,379.7h-42.6Z"/>
    <path d="M312.168,443.8H287.484l16.323-55.741H288.279V338.29h45.789v49.773Z"/>
    <path d="M407.327,443.406c14.336-19.508,35.437-28.668,58.134-28.668,45.787,0,73.66,27.873,73.66,83.217v123.83H493.729V501.938c0-36.235-15.528-50.567-41.01-50.567-25.88,0-46.187,19.508-46.187,58.131V621.785H361.14V338.29h45.392V443.406Z"/>
    <path d="M758.916,520.652c0,65.695-38.223,107.106-99.54,107.106s-99.94-41.411-99.94-107.106,38.623-107.106,99.94-107.106S758.916,454.954,758.916,520.652Zm-151.7,0c0,43.8,19.909,71.272,52.16,71.272s52.158-27.473,52.158-71.272-19.906-71.272-52.158-71.272S607.216,476.853,607.216,520.652Z"/>
    <path d="M917.791,560.865h46.584c-7.564,36.235-40.213,66.893-93.168,66.893-61.718,0-97.95-44.2-97.95-109.5,0-59.724,35.835-104.715,97.152-104.715,46.187,0,79.634,26.675,90.783,68.881,3.981,12.742,5.574,27.873,5.574,47.382H818.249c1.592,45.789,24.687,64.5,52.958,64.5C897.087,594.312,913.81,580.376,917.791,560.865Zm-98.745-60.917H921.374c-3.185-35.437-23.889-52.958-50.965-52.958C842.936,446.99,823.027,464.908,819.046,499.948Z"/>
    <path d="M1122.055,484.417h-14.73c0-35.434-21.1-56.141-57.337-56.141-30.261,0-52.16,15.528-52.16,40.613,0,27.075,17.518,32.649,54.946,41.011,44.994,9.954,75.255,19.114,75.255,59.727,0,33.444-29.066,56.539-70.874,56.539-49.373,0-77.643-27.076-78.041-73.263H993.45c0,38.223,23.092,60.122,63.7,60.122,32.649,0,56.538-17.121,56.538-42.6,0-29.864-19.111-36.633-64.9-46.985-37.427-8.361-65.3-16.323-65.3-53.75,0-33.049,28.268-54.549,66.493-54.549C1094.98,415.138,1121.658,441.019,1122.055,484.417Z"/>
    <path d="M1226.382,607.849V620.99a93.18,93.18,0,0,1-15.528,1.592c-29.861,0-42.206-14.335-42.206-49.772V432.259h-37.825V419.517h37.825V372.932h14.336v46.585h41.408v12.742h-41.408V572.81c0,26.28,7.961,36.632,29.463,36.632A67.105,67.105,0,0,0,1226.382,607.849Z"/>
    <path d="M1251.47,542.551V419.517h14.336V542.151c0,50.568,21.5,70.874,57.333,70.874,35.04,0,65.3-26.678,65.3-69.679V419.517h14.333V621.785H1388.44V585.552h-.8c-11.945,25.086-36.629,40.216-66.1,40.216C1277.35,625.768,1251.47,598.292,1251.47,542.551Z"/>
    <path d="M1580.759,621.785v-43.4h-.4c-10.753,29.463-35.04,47.382-67.291,47.382-52.161,0-84.81-40.216-84.81-105.116,0-65.3,32.649-105.514,84.81-105.514,31.854,0,56.538,17.916,67.291,47.383h.4V338.29h14.333V621.785ZM1442.994,520.652c0,56.936,27.473,92.373,71.272,92.373,41.408,0,67.288-35.437,67.288-92.373,0-57.337-25.88-92.774-67.288-92.774C1470.467,427.878,1442.994,463.315,1442.994,520.652Z"/>
    <path d="M1637.3,370.542V338.29h14.332v32.252Zm0,251.243V419.517h14.332V621.785Z"/>
    <path d="M1862.266,520.652c0,65.695-33.444,105.514-88.79,105.514-54.946,0-88.393-39.819-88.393-105.514s33.447-105.514,88.393-105.514C1828.822,415.138,1862.266,454.954,1862.266,520.652Zm-162.45,0c0,57.734,27.473,92.373,73.66,92.373,46.584,0,74.06-34.639,74.06-92.373s-27.476-92.376-74.06-92.376C1727.289,428.276,1699.816,462.918,1699.816,520.652Z"/>
  </g>
</svg>
