<svg xmlns="http://www.w3.org/2000/svg" width="1920" height="202.532" viewBox="0 0 1920 202.532">
  <g>
    <path d="M79.453,23.162V160.011H52.668V23.162H0V-.246H132.124V23.162Z"/>
    <path d="M144.056,24.287V-.246h25.661V24.287Zm0,135.724V45.671h25.661v114.34Z"/>
    <path d="M353.157,89.561v70.45H327.5V92.038c0-20.259-7.877-28.361-20.708-28.361-15.081,0-24.082,12.83-24.082,34.662v61.672H257.048V89.336c0-16.206-7.2-25.659-20.481-25.659-15.305,0-24.085,13.055-24.085,35.111v61.223H186.824V45.671h24.534V59.4h.45c8.1-11.03,18.23-16.433,31.735-16.433,15.758,0,27.911,7.2,33.763,20.709,8.327-13.056,19.357-20.709,36.688-20.709C338.3,42.968,353.157,58.725,353.157,89.561Z"/>
    <path d="M476.283,102.841c0,37.139-21.607,60.547-56.269,60.547S363.52,139.98,363.52,102.841s21.831-60.547,56.494-60.547S476.283,65.7,476.283,102.841Zm-85.754,0c0,24.758,11.255,40.29,29.485,40.29S449.5,127.6,449.5,102.841s-11.252-40.29-29.485-40.29S390.529,78.082,390.529,102.841Z"/>
    <path d="M546.963,139.305v20.032a57.054,57.054,0,0,1-14.4,2.026c-24.086,0-34.663-10.128-34.663-35.112v-61H478.765V45.671H497.9V17.085h25.658V45.671H545.84V65.253H523.555v57.171c0,12.828,4.276,18.006,15.531,18.006A25.429,25.429,0,0,0,546.963,139.305Z"/>
    <path d="M588.829,59.176c8.106-11.03,20.034-16.208,32.865-16.208,25.883,0,41.638,15.757,41.638,47.044v70H637.674V92.262c0-20.483-8.78-28.585-23.183-28.585-14.632,0-26.111,11.029-26.111,32.861v63.473H562.722V-.246H588.38V59.176Z"/>
    <path d="M734.468,164.964C723.662,194,711.056,202.778,684.5,202.778a51.205,51.205,0,0,1-12.83-1.575V180.27a37.793,37.793,0,0,0,10.805,1.575c13.954,0,20.031-5.177,25.433-20.932L666.041,45.671H693.5l28.586,85.08h.45l29.487-85.08h26.561Z"/>
    <path d="M886.626-.246c53.569,0,83.956,28.811,83.956,80.129s-30.387,80.128-83.956,80.128H835.309V-.246ZM862.094,136.6h24.082c37.366,0,56.494-19.357,56.494-56.72s-19.128-56.721-56.494-56.721H862.094Z"/>
    <path d="M994.218,59.4H980.264l9.225-31.512h-8.776V-.246H1006.6V27.889Z"/>
    <path d="M1048.009,59.176c8.106-11.03,20.034-16.208,32.865-16.208,25.883,0,41.638,15.757,41.638,47.044v70h-25.658V92.262c0-20.483-8.78-28.585-23.183-28.585-14.632,0-26.111,11.029-26.111,32.861v63.473H1021.9V-.246h25.658V59.176Z"/>
    <path d="M1246.762,102.841c0,37.139-21.607,60.547-56.27,60.547S1134,139.98,1134,102.841s21.832-60.547,56.494-60.547S1246.762,65.7,1246.762,102.841Zm-85.754,0c0,24.758,11.254,40.29,29.484,40.29s29.485-15.532,29.485-40.29-11.252-40.29-29.485-40.29S1161.008,78.082,1161.008,102.841Z"/>
    <path d="M1336.573,125.573h26.336c-4.276,20.484-22.734,37.815-52.668,37.815-34.89,0-55.371-24.984-55.371-61.9,0-33.763,20.256-59.2,54.919-59.2,26.11,0,45.018,15.081,51.319,38.939,2.25,7.2,3.152,15.756,3.152,26.784H1280.3c.9,25.887,13.954,36.464,29.937,36.464C1324.87,144.481,1334.323,136.6,1336.573,125.573Zm-55.82-34.436H1338.6c-1.8-20.032-13.5-29.935-28.81-29.935C1294.258,61.2,1283,71.329,1280.753,91.137Z"/>
    <path d="M1497.062,82.359h-8.327c0-20.032-11.932-31.738-32.412-31.738-17.107,0-29.488,8.78-29.488,22.959,0,15.305,9.9,18.458,31.06,23.183,25.437,5.627,42.544,10.8,42.544,33.764,0,18.907-16.433,31.961-40.065,31.961-27.912,0-43.892-15.306-44.117-41.415h8.1c0,21.607,13.055,33.988,36.014,33.988,18.454,0,31.959-9.678,31.959-24.085,0-16.882-10.8-20.708-36.688-26.56-21.157-4.725-36.913-9.228-36.913-30.385,0-18.681,15.98-30.836,37.591-30.836C1481.756,43.2,1496.837,57.825,1497.062,82.359Z"/>
    <path d="M1560.538,152.134v7.428a52.716,52.716,0,0,1-8.78.9c-16.878,0-23.857-8.1-23.857-28.135V52.873h-21.382v-7.2H1527.9V19.336h8.1V45.671h23.408v7.2H1536v79.454c0,14.855,4.5,20.707,16.657,20.707A37.959,37.959,0,0,0,1560.538,152.134Z"/>
    <path d="M1574.72,115.221V45.671h8.1V115c0,28.586,12.154,40.065,32.413,40.065,19.806,0,36.912-15.081,36.912-39.391v-70h8.1v114.34h-8.1V139.529h-.449c-6.754,14.181-20.708,22.734-37.365,22.734C1589.348,162.263,1574.72,146.731,1574.72,115.221Z"/>
    <path d="M1760.867,160.011V135.478h-.225c-6.08,16.656-19.81,26.785-38.04,26.785-29.488,0-47.942-22.734-47.942-59.422,0-36.914,18.454-59.646,47.942-59.646,18.006,0,31.96,10.129,38.04,26.783h.225V-.246h8.1V160.011Zm-77.88-57.17c0,32.186,15.53,52.22,40.289,52.22,23.408,0,38.04-20.034,38.04-52.22,0-32.412-14.632-52.445-38.04-52.445C1698.517,50.4,1682.987,70.429,1682.987,102.841Z"/>
    <path d="M1792.829,17.984V-.246h8.1v18.23Zm0,142.027V45.671h8.1v114.34Z"/>
    <path d="M1920,102.841c0,37.139-18.907,59.647-50.193,59.647-31.061,0-49.968-22.508-49.968-59.647S1838.746,43.2,1869.807,43.2C1901.093,43.2,1920,65.7,1920,102.841Zm-91.834,0c0,32.637,15.53,52.22,41.641,52.22,26.332,0,41.866-19.583,41.866-52.22s-15.534-52.22-41.866-52.22C1843.7,50.621,1828.166,70.2,1828.166,102.841Z"/>
  </g>
</svg>
