<svg xmlns="http://www.w3.org/2000/svg" width="1920" height="1080" viewBox="0 0 1920 1080">
  <rect width="1920" height="1094.539"/>
  <g>
    <circle cx="1104.645" cy="428.968" r="21.978" transform="translate(285.602 1285.368) rotate(-67.5)" fill="#fff"/>
    <path d="M1442.467,440.535l-66.577.179,5.066-26.913a9.034,9.034,0,0,0-8.878-10.7h-31.121a9.033,9.033,0,0,0-8.878,7.363l-5.721,30.388-19.055.051a4.517,4.517,0,0,0-4.505,4.517V454.7a4.517,4.517,0,0,0,4.518,4.517H1322.9l-8.759,46.526-43.511,43.421,13.543-72.481a8.436,8.436,0,0,0-8.293-9.986h-32.342a8.412,8.412,0,0,0-6.938,3.686l-39.648,39.648,6.231-33.348a8.436,8.436,0,0,0-8.293-9.986h-32.343a8.436,8.436,0,0,0-8.292,6.887l-6.41,34.3-47.228,47.129,14.637-78.333a8.436,8.436,0,0,0-8.293-9.986H1074.62c-.016,0-.031,0-.046,0H1010c-.032,0-.071,0-.1,0-2.856,0-5.452,3.634-5.452,11.422s9.086,24.4,9.086,42.831-.26,45.427-28.295,45.427c-12.2,0-18-17.652-18-33.486s10.347-62.041,24.92-62.041c0-2.336.087-10.47-18.863-10.47-15.4,0-43.823,25.746-50.835,64.538l-30,29.91,14.5-77.592a9.034,9.034,0,0,0-8.881-10.694H866.946a9.02,9.02,0,0,0-8.52,6.089l-.126.033-32.441,32.59,10.441-55.9a9.035,9.035,0,0,0-8.881-10.693H796.293a9.033,9.033,0,0,0-8.881,7.375l-36.36,194.679a9.035,9.035,0,0,0,8.881,10.693h31.126a9.035,9.035,0,0,0,8.881-7.376l20.04-107.3,32.457-32.69L838.131,580.6a9.034,9.034,0,0,0,8.881,10.693h31.126a9.022,9.022,0,0,0,8.311-5.546l.047.969,34.868-34.866c4.527,39.964,38.847,43.6,48.3,43.6,10.124,0,59.531-5.192,59.531-74.761,0-17.305-1.962-29.093-4.648-37.116h39.916L1046.2,581.308a8.436,8.436,0,0,0,8.292,9.986h32.343a8.414,8.414,0,0,0,8.069-6.087l47.016-45.6-7.792,41.7a8.436,8.436,0,0,0,8.293,9.986h32.343a8.436,8.436,0,0,0,8.292-6.886l8.057-43.118,38.718-38.718-14.713,78.736a8.437,8.437,0,0,0,8.293,9.986h32.343a8.436,8.436,0,0,0,8.293-6.886l.733-3.925,43.378-42.944L1288.736,640.7a9.035,9.035,0,0,0,8.879,10.706h31.121a9.035,9.035,0,0,0,8.879-7.363l34.793-184.829h60.427a4.517,4.517,0,0,0,3.194-1.323l9.645-9.644A4.518,4.518,0,0,0,1442.467,440.535Z" fill="#fff"/>
    <path d="M706.334,466.694H675.208a9.03,9.03,0,0,0-7.732,4.369L628.036,510.5l6.188-33.114a9.034,9.034,0,0,0-8.881-10.694H602.928v-.155H530.211v.157l-.053,0c-2.855,0-5.451,3.634-5.451,11.422s9.086,24.4,9.086,42.831-.26,45.427-28.3,45.427c-12.2,0-18-17.652-18-33.486s10.347-62.041,24.92-62.041c0-2.336.087-10.47-18.863-10.47-17.652,0-52.436,33.833-52.436,82.375s38.678,52.7,48.8,52.7,59.531-5.192,59.531-74.761c0-17.424-1.99-29.249-4.7-37.275h38.841L565.431,580.6a9.034,9.034,0,0,0,8.881,10.693h31.125a9.034,9.034,0,0,0,8.881-7.375l7.877-42.155,38.718-38.718L646.421,580.6a9.035,9.035,0,0,0,8.881,10.693h31.126a9.035,9.035,0,0,0,8.881-7.375l19.905-106.531A9.034,9.034,0,0,0,706.334,466.694Z" fill="#fff"/>
  </g>
</svg>
