<svg xmlns="http://www.w3.org/2000/svg" width="1920" height="1080" viewBox="0 0 1920 1080">
  <g>
    <g>
      <g>
        <g>
          <path d="M566.293,652.351c-32.117,0-59.2-13.655-79.859-37.819a3.513,3.513,0,0,1-.319-4.157L506.261,578.4a3.488,3.488,0,0,1,5.416-.621c17.166,17.29,37.011,26.413,53.479,26.413,22,0,35.269-13.652,35.269-38.682V395.312a3.5,3.5,0,0,0-3.5-3.5h-84.4a3.5,3.5,0,0,1-3.5-3.5V350.184a3.5,3.5,0,0,1,3.5-3.5h135.6a3.5,3.5,0,0,1,3.5,3.5v216.46C651.619,621.254,619.005,652.351,566.293,652.351Z"/>
          <path d="M755.252,351.239c0,15.928-11,27.305-26.55,27.305s-26.546-11.377-26.546-27.305,11-27.3,26.546-27.3S755.252,335.31,755.252,351.239Zm-1.9,61.517v195.9a3.5,3.5,0,0,1-3.5,3.5H707.55a3.5,3.5,0,0,1-3.5-3.5v-195.9a3.5,3.5,0,0,1,3.5-3.495h42.308A3.5,3.5,0,0,1,753.354,412.756Z"/>
          <path d="M1277.78,373.235c0,8.342-3.032,15.169-7.2,21.615l-22.1,33.691a3.5,3.5,0,0,1-2.923,1.578h-17.507a3.5,3.5,0,0,1-3.224-4.847l12.758-30.422c-7.2-4.93-10.618-12.894-10.618-21.615,0-15.55,11-26.546,25.409-26.546C1266.025,346.689,1277.78,356.169,1277.78,373.235Z"/>
        </g>
        <path d="M929.671,412.266l.008-.006c-3.781,0-5.461.323-7.054,2.151-7.232,9.342-38.854,43.506-45.04,43.506,0-26.268-9.718-69.783-57.559-69.783-25.658,0-42.678,18.206-42.678,44.773,0,42.775,34.339,58.034,53.883,58.034V608.658a3.5,3.5,0,0,0,3.5,3.5l42.105,0a3.5,3.5,0,0,0,3.5-3.5l-.283-121.115c16.107-7.925,30.146-17.64,47.95-38.865a.63.63,0,0,1,.834-.119c11.317,7.862,13.869,23.776,13.869,32.487V608.658a3.5,3.5,0,0,0,3.5,3.5h42.549a3.5,3.5,0,0,0,3.5-3.5V474.484C985.242,424.794,947.759,412.723,929.671,412.266Zm-97.149,47.7c-8.154-1.355-16.121-4-21.332-9.514s-7.811-11.358-7.811-17.545q0-6.339,3.51-10.188a11.57,11.57,0,0,1,8.945-3.85c11.417,0,16.688,13.7,16.688,19.89Z"/>
        <path d="M1218.263,511.347c0,58.471-39.79,104.077-99.351,104.077-59.927,0-99.716-45.606-99.716-104.077,0-58.114,39.789-103.347,99.716-103.347C1178.473,408,1218.263,453.233,1218.263,511.347Zm-150.465.73c0,37.408,16.247,76.272,51.114,76.272,34.5,0,50.749-38.864,50.749-76.272,0-37.051-16.248-76.238-50.749-76.238C1084.045,435.839,1067.8,475.026,1067.8,512.077Z"/>
      </g>
      <path d="M1345.678,445.782c-14.492,0-24.843,5.3-24.843,17.793,0,34.071,97.643,16.278,97.643,88.963,0,41.264-33.468,61.328-72.8,61.328-27.026,0-55.02-9.2-74.308-26.585a3.732,3.732,0,0,1-.839-4.256l12.658-28.087a3.031,3.031,0,0,1,4.766-1.237c16.823,14.238,40.587,22.308,59.447,22.308,15.526,0,27.256-5.678,27.256-18.928,0-37.479-96.26-17.035-95.917-88.963,0-41.643,32.434-60.95,69.7-60.95,23.111,0,47.17,7.28,65.225,19.849a3.688,3.688,0,0,1,1.134,4.508l-13.439,29.5a3.046,3.046,0,0,1-4.4,1.477C1379.746,451.889,1360.7,445.782,1345.678,445.782Z"/>
    </g>
    <g>
      <path d="M751.92,667.956v15.331H730.6V739.13h-18.58V683.287H690.9V667.956Z"/>
      <path d="M798.321,667.956v29.038h28.733V667.956h18.581V739.13H827.054V711.818H798.321V739.13h-18.58V667.956Z"/>
      <path d="M927.165,726.54H896.4l-4.975,12.59H872.338L902.9,667.956h19.088l29.85,71.174h-19.8Zm-5.482-14.215-9.747-25.383-9.951,25.383Z"/>
      <path d="M997.122,667.956V739.13H978.541V667.956Z"/>
      <path d="M1115.811,683.186c-10.965,0-19.291,8.63-19.291,20,0,11.474,8.326,20.205,19.291,20.205,5.889,0,12.691-3.249,17.667-8.325l10.864,11.676c-7.615,8.021-18.987,13.2-29.546,13.2-21.423,0-37.364-15.636-37.364-36.551,0-20.51,16.347-35.943,38.074-35.943a40.835,40.835,0,0,1,28.734,12.184l-10.762,12.9C1128.807,686.841,1122,683.186,1115.811,683.186Z"/>
      <path d="M1219.171,726.54h-30.764l-4.976,12.59h-19.087l30.561-71.174h19.088l29.85,71.174h-19.8Zm-5.483-14.215-9.747-25.383-9.95,25.383Z"/>
      <path d="M1323.75,667.956l-.1,14.824h-34.521v15.839h31.881v14.823h-31.881V739.13h-18.58V667.956Z"/>
      <path d="M1408.63,667.956V682.78h-37.566v13.3h33.912V710.8l-33.912.1v13.4h38.582V739.13h-57.163V667.956Z"/>
    </g>
  </g>
</svg>
