<svg xmlns="http://www.w3.org/2000/svg" width="1920" height="1080" viewBox="0 0 1920 1080">
  <rect width="1920" height="1094.539"/>
  <g>
    <g>
      <path d="M1263.848,586.142c-21.279,0-34,13.511-36.182,33.389h69.757C1296.226,600.648,1285.11,586.142,1263.848,586.142Z" fill="#fff"/>
      <path d="M1298.992,621.007h-72.979l.184-1.639c2.378-21.731,16.462-34.706,37.656-34.706,20.247,0,33.684,13.327,35.046,34.775Zm-69.655-2.955h66.492c-1.789-19.093-13.656-30.435-31.976-30.435C1244.852,587.617,1232.062,598.959,1229.337,618.052Z" fill="#fff"/>
    </g>
    <g>
      <path d="M1030.556,648.738c0,11.529,8.349,18.487,22.459,18.487,19.676,0,34.579-14.312,34.579-33.187v-8.35l-36.375,3.973C1038.112,631.052,1030.556,638.01,1030.556,648.738Z" fill="#fff"/>
      <path d="M1053.019,668.7c-15,0-23.942-7.463-23.942-19.959,0-11.578,8.012-19.07,21.98-20.554l38.013-4.144v10C1089.07,653.8,1073.567,668.7,1053.019,668.7Zm33.1-41.367-34.735,3.792c-12.294,1.311-19.347,7.729-19.347,17.616,0,10.805,7.653,17,20.986,17,18.862,0,33.1-13.628,33.1-31.705Z" fill="#fff"/>
    </g>
    <g>
      <path d="M1206.347,437.016c-21.278,0-34,13.512-36.181,33.39h69.757C1238.726,451.523,1227.609,437.016,1206.347,437.016Z" fill="#fff"/>
      <path d="M1241.493,471.886h-72.979l.184-1.639c2.378-21.731,16.462-34.706,37.644-34.706,20.259,0,33.7,13.327,35.058,34.775Zm-69.655-2.955h66.492c-1.79-19.093-13.656-30.435-31.988-30.435C1187.353,438.5,1174.551,449.838,1171.838,468.931Z" fill="#fff"/>
    </g>
    <g>
      <path d="M1006.721,437.413c-23.852,0-39.547,16.691-39.547,40.339s15.7,40.348,39.547,40.348c23.641,0,39.336-16.7,39.336-40.348S1030.362,437.413,1006.721,437.413Z" fill="#fff"/>
      <path d="M1006.717,519.579c-24.161,0-41.026-17.2-41.026-41.829s16.865-41.817,41.026-41.817c24.034,0,40.819,17.194,40.819,41.817S1030.751,519.579,1006.717,519.579Zm0-80.691c-22.775,0-38.071,15.619-38.071,38.862s15.3,38.873,38.071,38.873c22.649,0,37.864-15.624,37.864-38.873S1029.366,438.888,1006.717,438.888Z" fill="#fff"/>
    </g>
    <g>
      <path d="M890.589,518.5c22.459,0,37.572-16.5,37.572-40.744s-15.113-40.736-37.572-40.736c-22.848,0-37.945,16.1-37.945,40.736S867.741,518.5,890.589,518.5Z" fill="#fff"/>
      <path d="M890.588,519.971c-23.584,0-39.422-16.969-39.422-42.221S867,435.541,890.588,435.541c23.353,0,39.052,16.963,39.052,42.209S913.941,519.971,890.588,519.971Zm0-81.475c-22.153,0-36.467,15.411-36.467,39.254s14.314,39.266,36.467,39.266c21.587,0,36.1-15.78,36.1-39.266S912.175,438.5,890.588,438.5Z" fill="#fff"/>
    </g>
    <g>
      <path d="M1283.02,302.789H654.943c-127.694,0-231.211,103.517-231.211,231.21S527.249,765.21,654.943,765.21H1283.02c117.778,0,213.255-95.478,213.255-213.255V516.043C1496.275,398.266,1400.8,302.789,1283.02,302.789Zm-196.348,83.953c6.553,0,11.116,4.57,11.116,11.124S1093.225,409,1086.672,409c-6.57,0-11.133-4.571-11.133-11.133S1080.1,386.742,1086.672,386.742Zm5.954,41.334v99.36h-12.119v-99.36ZM841.317,388.328h12.12v59.416c7.541-13.907,21.651-22.054,39.142-22.054,28.414,0,48.3,21.464,48.3,52.062s-19.886,52.071-48.3,52.071c-17.88,0-32.394-8.147-39.142-21.86v19.473h-12.12Zm-69.58,209.033c0,46.8-31.866,81.588-86.562,81.588H561.791v-289.9H685.175c54.7,0,86.562,34.783,86.562,81.587,0,30.231-14.062,52.6-36.014,63.362C758.08,545.178,771.737,567.552,771.737,597.361Zm226.569,79.2h-12.33v-59.62c0-19.271-9.142-30.8-27.216-30.8-23.657,0-33.592,18.082-33.592,43.721v46.7H912.854V617.541c0-19.676-9.547-31.4-27.621-31.4-23.447,0-32.993,18.478-32.993,44.514v45.906H840.12V577.2h11.731v21.262c4.968-14.9,17.88-23.649,34.968-23.649,17.685,0,29.805,8.94,34.174,26.626,7.362-18.673,21.068-26.626,38.754-26.626,25.242,0,38.559,15.5,38.559,43.915ZM954.65,477.752c0-30.2,21.86-52.062,52.071-52.062s52.055,21.86,52.055,52.062-21.845,52.071-52.055,52.071S954.65,507.963,954.65,477.752Zm145.064,198.81h-12.12V657.485c-6.359,13.317-19.482,21.262-36.569,21.262-20.275,0-33.188-11.926-33.188-30.2,0-17.1,11.926-28.22,31.8-30.008l32.783-3.179c3.786-.2,5.178-1.594,5.178-4.378v-3.373c0-14.506-9.142-21.861-26.246-21.861-16.488,0-26.618,6.36-29.206,18.681l-10.923-5.768c4.175-15.7,17.686-23.843,39.547-23.843,26.019,0,38.948,11.926,38.948,36.367Zm22.944-288.234h12.509V527.436h-12.509Zm66.6,288.234-36.359-47.694L1134.8,646.95v29.612h-12.119V537.453H1134.8v93.8l52.265-54.052h17.087l-43.122,43.317,44.125,56.043Zm-32-198.211c0-29.612,19.079-52.661,48.884-52.661,31.408,0,46.909,23.446,46.909,50.873v3.576h-83.462v1.392c.582,23.648,17.087,36.965,37.75,36.965,14.9,0,25.437-6.958,33.188-15.307l6.359,9.539c-8.349,8.746-21.068,17.1-39.142,17.1C1177.723,529.823,1157.253,509.549,1157.253,478.351Zm153.293,150.914h-83.462v1.391c.582,23.649,17.088,36.966,37.751,36.966,14.9,0,25.436-6.958,33.187-15.308l6.359,9.539c-8.349,8.746-21.068,17.1-39.142,17.1-30.016,0-50.485-20.275-50.485-51.473,0-29.611,19.077-52.661,48.883-52.661,31.408,0,46.909,23.446,46.909,50.873ZM1326.622,439.4a45.209,45.209,0,0,0-9.936-1.2c-23.252,0-30.6,19.279-30.6,43.527v45.7h-12.12v-99.36H1285.7v20.469c5.162-15.307,16.295-22.855,31.2-22.855a55.546,55.546,0,0,1,9.725.792Zm57.5,149.125a45.253,45.253,0,0,0-9.935-1.2c-23.253,0-30.6,19.28-30.6,43.527v45.7h-12.135V577.2h11.731v20.469c5.161-15.308,16.294-22.856,31.2-22.856a55.631,55.631,0,0,1,9.741.793Z" fill="#fff"/>
      <path d="M1283.015,766.689H654.947c-128.308,0-232.7-104.384-232.7-232.692s104.39-232.686,232.7-232.686h628.068c118.4,0,214.736,96.332,214.736,214.735v35.907C1497.751,670.357,1401.419,766.689,1283.015,766.689ZM654.947,304.266C528.266,304.266,425.2,407.322,425.2,534S528.266,763.733,654.947,763.733h628.068c116.776,0,211.781-95,211.781-211.78V516.046c0-116.776-95.005-211.78-211.781-211.78Zm610.291,376.162c-31.075,0-51.958-21.28-51.958-52.951,0-31.877,20.709-54.139,50.354-54.139,29.4,0,48.391,20.547,48.391,52.35v5.056h-83.461c.554,21.166,15.122,35.4,36.27,35.4,12.34,0,22.845-4.854,32.1-14.834l1.27-1.373,8.057,12.086-.808.854C1294.49,674.356,1280.58,680.428,1265.238,680.428Zm-1.6-104.135c-27.913,0-47.4,21.05-47.4,51.184,0,29.9,19.694,50,49,50,14.349,0,26.874-5.31,37.252-15.792l-4.676-7.012c-9.535,9.7-20.34,14.429-32.98,14.429-22.9,0-38.66-15.434-39.225-38.406v-2.9h83.46v-2.1C1309.069,602.9,1297.168,576.293,1263.634,576.293ZM685.18,680.428H560.311V387.571H685.18c52.65,0,88.032,33.384,88.032,83.068,0,28.548-12.456,51.474-34.3,63.369,21.841,12.1,34.3,35.024,34.3,63.352C773.212,647.044,737.83,680.428,685.18,680.428Zm-121.913-2.955H685.18c51.681,0,85.076-31.445,85.076-80.113,0-28.242-12.825-50.856-35.2-62.042l-2.678-1.333,2.689-1.316c22.36-10.949,35.185-33.563,35.185-62.03,0-48.668-33.395-80.113-85.076-80.113H563.267Zm487.755,2.753c-21.056,0-34.666-12.438-34.666-31.681,0-17.841,12.387-29.61,33.154-31.48l32.772-3.18c3.556-.191,3.833-1.374,3.833-2.9v-3.377c0-13.523-8.335-20.38-24.761-20.38-15.977,0-25.327,5.887-27.775,17.506l-.4,1.916-13.69-7.232.3-1.137c4.352-16.317,18.516-24.94,40.98-24.94,26.827,0,40.426,12.732,40.426,37.846v66.855h-15.076V663.061C1078.738,674.039,1066.248,680.226,1051.022,680.226Zm10.332-95.957c18.135,0,27.716,8.07,27.716,23.336v3.377c0,3.7-2.147,5.616-6.568,5.852l-32.727,3.175c-19.081,1.714-30.464,12.386-30.464,28.536,0,17.448,12.445,28.726,31.711,28.726,16.2,0,29.032-7.446,35.243-20.421l2.8-5.887v24.121h9.166v-63.9c0-23.48-12.26-34.891-37.471-34.891-20.744,0-33.454,7.272-37.806,21.615l8.2,4.329C1034.491,590.468,1044.892,584.269,1061.354,584.269Zm283.709,93.77h-15.088V575.727h14.684v14.741c5.991-11.237,16.149-17.13,29.725-17.13a57.014,57.014,0,0,1,10,.813l1.224.214v16l-1.8-.4a43.412,43.412,0,0,0-9.616-1.166c-19.324,0-29.124,14.147-29.124,42.054Zm-12.133-2.955h9.177V630.86c0-29.864,10.794-45.009,32.08-45.009a44.387,44.387,0,0,1,8.462.86v-9.847a55.516,55.516,0,0,0-8.265-.571c-14.684,0-24.981,7.555-29.806,21.852l-2.875,8.537v-28h-8.773ZM1208.2,678.039H1188.53l-.45-.583-35.335-46.348-16.461,16.456v30.475h-15.076V535.976h15.076V627.6l50.157-51.872h21.275l-44.709,44.9Zm-18.216-2.955h12.121L1159.059,620.4l41.546-41.719h-12.917l-54.36,56.224V538.932h-9.165V675.084h9.165V646.34l19.717-19.711Zm-190.2,2.955H984.5v-61.1c0-13.379-4.468-29.327-25.731-29.327-26.539,0-32.115,22.972-32.115,42.244v48.178H911.378v-60.5c0-19.295-9.281-29.921-26.146-29.921-26.043,0-31.515,23.405-31.515,43.041v47.381H838.641V575.727h14.684v15.74c6.453-11.474,18.516-18.129,33.488-18.129,17.385,0,29.217,8.19,34.458,23.762,7.526-15.774,20.455-23.762,38.475-23.762,25.812,0,40.034,16.12,40.034,45.389Zm-12.329-2.955h9.373V618.727c0-27.762-12.825-42.434-37.078-42.434-18.077,0-30.648,8.646-37.378,25.69l-1.7,4.306-1.109-4.5c-4.132-16.681-15.457-25.5-32.749-25.5-16.531,0-28.767,8.254-33.569,22.637l-2.874,8.623V578.682H841.6v96.4h9.166V630.658c0-29.662,12.236-46,34.47-46,18.493,0,29.1,11.982,29.1,32.876v57.546H923.7V629.861c0-29.148,12.456-45.2,35.07-45.2,18.493,0,28.686,11.463,28.686,32.282ZM1207.739,531.3c-31.076,0-51.958-21.28-51.958-52.951,0-31.877,20.709-54.139,50.353-54.139,29.4,0,48.392,20.547,48.392,52.35v5.056h-83.461c.554,21.166,15.122,35.4,36.27,35.4,12.329,0,22.833-4.854,32.1-14.834l1.281-1.373,8.046,12.086-.808.854C1236.818,525.4,1223.288,531.3,1207.739,531.3Zm-1.605-104.135c-27.912,0-47.4,21.05-47.4,51.184,0,29.9,19.694,50,49,50,14.337,0,26.862-5.31,37.251-15.792l-4.675-7.012c-9.546,9.7-20.351,14.429-32.98,14.429-22.9,0-38.66-15.434-39.225-38.406v-2.9h83.46v-2.1C1251.57,453.774,1239.669,427.166,1206.134,427.166ZM1006.717,531.3c-31.029,0-53.551-22.521-53.551-53.551s22.522-53.539,53.551-53.539,53.54,22.515,53.54,53.539S1037.735,531.3,1006.717,531.3Zm0-104.135c-29.321,0-50.6,21.275-50.6,50.584s21.275,50.6,50.6,50.6,50.585-21.281,50.585-50.6S1036.027,427.166,1006.717,427.166ZM892.585,531.3c-16.2,0-29.875-6.6-37.667-17.9v15.509H839.842V386.849h15.076v55.716c8.3-11.728,21.748-18.354,37.667-18.354,29.309,0,49.776,22.013,49.776,53.539S921.894,531.3,892.585,531.3Zm-40.622-29.69,2.805,5.7c6.476,13.171,20.617,21.032,37.817,21.032,27.566,0,46.821-20.807,46.821-50.6s-19.255-50.584-46.821-50.584c-16.715,0-30.51,7.757-37.84,21.28l-2.782,5.12V389.805H842.8V525.957h9.166Zm435.6,27.3h-15.076V426.6h14.683v14.753c6-11.249,16.161-17.142,29.725-17.142a56.022,56.022,0,0,1,9.985.819l1.224.214v16l-1.8-.4a43.833,43.833,0,0,0-9.616-1.16c-19.324,0-29.124,14.147-29.124,42.048Zm-12.121-2.955h9.165V481.733c0-29.864,10.794-45,32.08-45a44.387,44.387,0,0,1,8.462.86v-9.847a54.332,54.332,0,0,0-8.254-.577c-14.672,0-24.969,7.555-29.806,21.852l-2.874,8.513V429.555h-8.773Zm-138.8,2.955h-15.457V386.849h15.457Zm-12.5-2.955h9.546V389.805h-9.546Zm-30.037,2.955h-15.076V426.6H1094.1Zm-12.121-2.955h9.166v-96.4h-9.166Zm4.687-115.478c-7.423,0-12.606-5.189-12.606-12.611s5.183-12.606,12.606-12.606,12.594,5.183,12.594,12.606S1094.08,410.479,1086.669,410.479Zm0-22.262c-5.772,0-9.651,3.879-9.651,9.651s3.879,9.656,9.651,9.656,9.639-3.879,9.639-9.656S1092.429,388.217,1086.669,388.217Z" fill="#fff"/>
    </g>
  </g>
</svg>
