<svg xmlns="http://www.w3.org/2000/svg" width="1920" height="1080" viewBox="0 0 1920 1080">
  <path d="M960,277.224c-142.69,0-258.776,116.085-258.776,258.776a258.979,258.979,0,0,0,4.239,46.355c0,.581-.043,1.155-.043,1.739h.007c0,.086-.007.169-.007.255h.4C728.536,704,833.837,794.776,960,794.776c142.69,0,258.776-116.086,258.776-258.776S1102.69,277.224,960,277.224Zm0,462.047c-97.679,0-179.465-69.265-198.879-161.251.118-2.064.3-4.111.535-6.143a66.352,66.352,0,0,1,132.053,9.315h55.505a121.935,121.935,0,0,0-59.256-104.523,109.579,109.579,0,0,1,89.761,104.523h55.529A165.141,165.141,0,0,0,938.827,434.3c70.622,12.162,124.715,73.177,126.108,146.89h55.5c-1.566-113.1-94-204.64-207.47-204.64a206.231,206.231,0,0,0-111.806,32.83A202.951,202.951,0,0,1,960,332.728c112.083,0,203.272,91.188,203.272,203.272S1072.083,739.271,960,739.271Z" fill="#222221"/>
</svg>
