<svg xmlns="http://www.w3.org/2000/svg" width="1920" height="1080" viewBox="0 0 1920 1080">
  <g>
    <polygon points="643.411 704.635 643.411 690.638 642.718 689.96 622.951 689.96 622.261 690.638 622.261 707.978 626.78 712.3 626.78 712.919 609.271 712.919 609.271 712.3 613.789 707.978 613.789 673.729 609.271 669.414 609.271 668.795 626.78 668.795 626.78 669.414 622.261 673.729 622.261 686.077 622.951 686.754 642.718 686.754 643.411 686.077 643.411 673.729 638.891 669.414 638.891 668.795 656.4 668.795 656.4 669.414 651.88 673.729 651.88 712.919 643.411 704.635" fill="#fff"/>
    <g>
      <path d="M721.785,689.96l.69.678h6.715c5.21,0,9.1-2.9,9.1-9.191s-4.016-9.441-9.1-9.441h-6.715l-.69.678Zm-8.472-16.231-4.519-4.314v-.622h22.594c5.207,0,15.375,1.669,15.375,12.282,0,7.588-6.277,11.416-12.615,12.468l4.52.617,12.049,21.412-7.471-2.653-5.834-4.816L727.5,693.849h-5.022l-.69.678v13.451L726.3,712.3v.619H708.794V712.3l4.519-4.322Z" fill="#fff"/>
      <path d="M774.9,671.261c-9.287,0-13.934,8.212-13.934,19.562s4.647,19.628,13.934,19.628,13.934-8.271,13.934-19.628-4.647-19.562-13.934-19.562m0,42.4c-13.053,0-23.1-9.936-23.1-22.834,0-12.833,10.043-22.768,23.1-22.768S798,677.99,798,690.823c0,12.9-10.043,22.834-23.1,22.834" fill="#fff"/>
    </g>
    <polygon points="801.728 669.414 801.728 668.794 819.237 668.794 819.237 669.414 814.717 673.728 814.717 709.03 815.409 709.708 829.906 709.708 836.937 702.18 837.561 702.18 835.992 712.918 801.728 712.918 801.728 712.299 806.248 707.98 806.248 673.728 801.728 669.414" fill="#fff"/>
    <g>
      <path d="M853.212,709.03l.688.678h7.28c10.481-.061,15.062-7.713,15.062-18.818,0-11.238-4.581-18.885-15.062-18.885H853.9l-.688.678Zm-12.994,3.888V712.3l4.52-4.321v-34.25l-4.52-4.314V668.8h22.029c13.618,0,22.719,9.255,22.719,22.1,0,12.773-9.1,22.028-22.719,22.028Z" fill="#fff"/>
      <path d="M625.965,766.888c-6.088,0-13.119-1.975-16.694-6.23V748.5h1.943c1.948,7.958,5.586,15.179,14.435,15.179,6.216,0,8.159-4.383,8.159-8.89,0-10.305-23.409-5.306-23.409-21.909,0-8.45,9.1-11.6,15.816-11.6a25.369,25.369,0,0,1,12.3,2.834v10.187h-1.442c-.881-5.738-4.958-9.815-10.605-9.815-4.08,0-7.721,2.347-7.721,7.1,0,10.305,23.6,6.355,23.6,21.476,0,7.838-6.338,13.824-16.378,13.824" fill="#fff"/>
    </g>
    <polygon points="659.937 730.422 659.937 739.305 660.627 739.985 680.394 739.985 681.087 739.305 681.087 726.959 676.567 722.645 676.567 722.026 694.076 722.026 694.076 722.645 689.556 726.959 689.556 761.214 694.076 765.53 694.076 766.149 676.567 766.149 676.567 765.53 681.087 761.214 681.087 743.868 680.394 743.191 660.627 743.191 659.937 743.868 659.937 761.214 664.456 765.53 664.456 766.149 646.947 766.149 646.947 765.53 651.465 761.214 651.465 722.026 659.937 730.422" fill="#fff"/>
    <path d="M724.665,748.747,718.2,733.318l-.377-3.022-.377,2.1-6.839,16.354Zm5.273,12.468-4.079-9.263H709.417l-3.955,9.263,4.08,4.316v.617H696.866v-.617l5.019-4.316L718.828,720.6h3.14l17.007,40.612,5.083,4.316v.617H725.984v-.617Z" fill="#fff"/>
    <path d="M1315.5,295.071h-4.674v7.52h4.674c2.831,0,4.39-1.111,4.39-3.479v-.558c0-2.367-1.559-3.483-4.39-3.483m3.967,10.724,4.388,9.609h-4.107l-3.967-9.191h-4.955V315.4h-3.967V291.45h9.348c4.532,0,7.648,2.508,7.648,6.825v1.113a6.427,6.427,0,0,1-4.388,6.407m-4.109,14.484a16.853,16.853,0,1,0-17.137-16.853,16.963,16.963,0,0,0,17.137,16.853m0-37.044a20.195,20.195,0,1,1-20.534,20.191,20.379,20.379,0,0,1,20.534-20.191" fill="#fff"/>
    <g>
      <path d="M686.989,695.516l-6.465-15.429-.375-3.023-.376,2.1-6.843,16.354Zm5.274,12.463-4.082-9.255h-16.44l-3.957,9.255,4.082,4.321v.619H659.188V712.3l5.021-4.321,16.944-40.608h3.137l17.01,40.608,5.082,4.321v.619H688.308V712.3Z" fill="#fff"/>
      <g>
        <path d="M759.461,743.192l.69.677h6.715c5.21,0,9.1-2.9,9.1-9.191s-4.018-9.443-9.1-9.443h-6.715l-.69.68Zm-8.472-16.232-4.52-4.317v-.619h22.594c5.208,0,15.378,1.664,15.378,12.282,0,7.586-6.279,11.416-12.617,12.466l4.519.614,12.05,21.417-7.469-2.655-5.836-4.814-9.916-14.254h-5.021l-.69.678v13.456l4.517,4.317v.617H746.469v-.617l4.52-4.317Z" fill="#fff"/>
        <path d="M803.354,744.732l.687.685h3.83c7.155,0,10.858-2.719,10.858-10.126s-3.7-10.055-10.858-10.055h-3.83l-.687.68Zm6.587-22.707c7.031,0,17.26,1.914,17.26,13.266s-10.229,13.332-17.26,13.332h-5.9l-.687.678v11.914l4.517,4.317v.617H790.364v-.617l4.515-4.317V726.961l-4.515-4.317v-.619Z" fill="#fff"/>
        <path d="M622.95,658.008h6.269c6.646,0,9.647-4.5,9.647-9.864,0-5.92-3.38-9.309-9.647-9.309H622.95l-.7.68V657.33Zm-.7-22.812.7.678h5.635c5.147,0,8.536-2.464,8.536-7.581,0-5.8-3.206-7.951-8.536-7.951H622.95l-.7.678Zm7.586-18.062c8.963,0,15.735,3.328,15.735,11.159,0,5.362-4.821,8.631-9.025,9.248,4.766.739,11.1,4.191,11.1,10.6,0,9-6.331,13.072-14.611,13.072H609.278V660.6l4.512-4.314V622.065l-4.512-4.312v-.619Z" fill="#fff"/>
      </g>
      <polygon points="660.769 661.216 660.769 660.6 665.291 656.283 665.291 642.166 652.559 622.065 647.422 617.753 647.422 617.134 666.353 617.134 666.353 617.753 662.658 622.065 669.987 633.721 670.804 638.032 671.499 634.766 679.452 622.065 675.38 617.753 675.38 617.134 688.357 617.134 688.357 617.753 683.282 622.065 673.756 637.357 673.756 656.283 678.271 660.6 678.271 661.216 660.769 661.216" fill="#fff"/>
      <path d="M996.322,493.7v-7.978c0-53.853-21.906-90.552-70.183-90.552s-70.18,36.7-70.18,90.552V493.7c0,53.853,21.909,90.553,70.18,90.553s70.183-36.7,70.183-90.553m-157.4,0v-7.978c0-57.842,25.964-105.712,87.217-105.712s87.22,47.87,87.22,105.712V493.7c0,57.842-25.961,105.71-87.22,105.71s-87.217-47.868-87.217-105.71" fill="#fff"/>
      <polygon points="1096.766 595.425 1074.047 595.425 1024.555 384 1041.188 384 1085.813 579.467 1142.199 384 1162.483 384 1218.872 579.467 1263.495 384 1280.128 384 1230.637 595.425 1207.919 595.425 1152.342 403.55 1096.766 595.425" fill="#fff"/>
      <polygon points="800.384 284.275 800.384 595.424 816.613 595.424 816.613 304.711 800.384 284.275" fill="#fff"/>
      <polygon points="776.043 299.433 776.043 284.276 613.776 284.276 613.776 583.018 629.819 595.425 630.002 595.425 630.002 444.238 755.759 444.238 755.759 429.078 630.002 429.078 630.002 299.433 776.043 299.433" fill="#fff"/>
    </g>
  </g>
</svg>
