<svg xmlns="http://www.w3.org/2000/svg" width="1920" height="1080" viewBox="0 0 1920 1080">
  <g>
    <g>
      <path d="M663.16,576.021l-68.154-46.458,92.847-133.487,3.071-14.382L663.136,234.9l-34.3-7.26L470.653,456.753l-.024-.012L460.911,470.9l1.645,8,.121.566,26.251,148.7,8.007,12.393L670.418,758.828,699.784,739.6,671.125,588.187Zm-23.6,49.685L511.683,538.537l-3.972-22.5,50.051,34.12h0l77.494,52.825ZM563.614,508.164l-11.347-7.735,96.181-138.853,3.663,19.352Zm70.651-221.515,4.264,22.525L520.873,479.028l-13.214-9.007ZM524.95,613.683l-4.038-22.874L649.552,678.5l4.374,23.106Z" fill="#fff"/>
      <path d="M1248.875,583.86l-28.659,151.413,29.366,19.227,173.483-118.262,8.007-12.394,26.251-148.7.121-.566,1.645-8-9.718-14.159-.024.011L1291.162,223.312l-34.3,7.26-27.788,146.8,3.071,14.381,92.847,133.488-68.154,46.458Zm35.868,14.795,77.494-52.825h0l50.051-34.119-3.972,22.5-127.876,87.17ZM1267.889,376.6l3.663-19.352L1367.733,496.1l-11.347,7.734Zm144.452,89.093-13.214,9.007L1281.471,304.847l4.264-22.525ZM1266.074,697.278l4.374-23.106,128.64-87.69-4.038,22.874Z" fill="#fff"/>
    </g>
    <polygon points="1070.048 441.519 1039.088 580.339 999.932 453.151 961.983 453.086 924.035 453.151 884.879 580.339 853.919 441.519 750.396 418.253 826.004 735.029 918.459 735.029 961.983 599.382 1005.508 735.029 1097.963 735.029 1173.571 418.253 1070.048 441.519" fill="#fff"/>
  </g>
</svg>
