<svg xmlns="http://www.w3.org/2000/svg" width="1920" height="1080" viewBox="0 0 1920 1080">
  <rect width="1920" height="1094.539"/>
  <g>
    <g>
      <path d="M448.584,817.047a13.689,13.689,0,0,1-9.015-3.347c-11.192-9.391-12.062-35.841-12.062-43.724,0-13.408,5.477-51.182,23.108-54.291a13.048,13.048,0,0,1,11.113,2.946c11.814,9.912,12.155,40.525,12.155,43.982,0,2.051-.255,50.263-22.465,54.178A16.376,16.376,0,0,1,448.584,817.047Zm4.61-96.971a10.187,10.187,0,0,0-1.776.161h0c-13.551,2.389-19.289,36.55-19.289,49.739,0,14.507,2.727,33.735,10.411,40.182a9.338,9.338,0,0,0,8.075,2.08c15.3-2.7,18.645-36.736,18.645-49.625,0-10.94-2.195-33.47-10.5-40.44A8.4,8.4,0,0,0,453.194,720.076Z" fill="#fff"/>
      <path d="M497.651,826.326h-4.3a.164.164,0,0,1-.164-.164V727.97a.164.164,0,0,1,.135-.162l10.124-1.786c3.188-.559,16.7-.648,23.868,5.371a12.076,12.076,0,0,1,4.541,9.616V766.7c0,6.854-11.017,19.3-20.539,20.977l-13.368,2.08a.164.164,0,0,0-.139.162v36.239A.164.164,0,0,1,497.651,826.326Zm.163-94.479v53.067a.165.165,0,0,0,.189.162l12.561-1.955c7.478-1.318,16.673-11.962,16.673-16.417V741.009a7.544,7.544,0,0,0-2.89-6.075c-5.439-4.565-17.129-4.883-20.093-4.36l-6.3,1.112A.164.164,0,0,0,497.814,731.847Z" fill="#fff"/>
      <g>
        <path d="M550.874,808.887V707.971a.163.163,0,0,1,.136-.161l32.768-5.779a.163.163,0,0,1,.19.133l.746,4.229a.162.162,0,0,1-.133.19l-28.949,5.1a.164.164,0,0,0-.135.161v91.529a.163.163,0,0,0,.192.161l28.089-4.952a.163.163,0,0,1,.19.132l.746,4.23a.163.163,0,0,1-.133.19l-33.514,5.91A.164.164,0,0,1,550.874,808.887Z" fill="#fff"/>
        <rect x="552.984" y="743.596" width="26.546" height="4.623" rx="0.164" transform="translate(-121.029 109.777) rotate(-10.01)" fill="#fff"/>
      </g>
      <g>
        <path d="M904.212,756.411V655.5a.164.164,0,0,1,.135-.161l32.768-5.779a.164.164,0,0,1,.19.133l.747,4.23a.165.165,0,0,1-.133.19l-28.949,5.1a.162.162,0,0,0-.136.161V750.9a.164.164,0,0,0,.192.161l28.089-4.953a.164.164,0,0,1,.19.133l.747,4.23a.165.165,0,0,1-.133.19L904.4,756.572A.163.163,0,0,1,904.212,756.411Z" fill="#fff"/>
        <rect x="906.315" y="691.051" width="27.342" height="4.623" rx="0.164" transform="translate(-106.512 170.46) rotate(-10.01)" fill="#fff"/>
      </g>
      <g>
        <path d="M1434.218,643.3V542.385a.162.162,0,0,1,.136-.161l32.768-5.777a.164.164,0,0,1,.19.133l.746,4.23a.164.164,0,0,1-.133.19l-28.949,5.1a.162.162,0,0,0-.135.161v91.527a.164.164,0,0,0,.192.162L1467.122,633a.164.164,0,0,1,.19.133l.746,4.23a.163.163,0,0,1-.133.189l-33.515,5.91A.163.163,0,0,1,1434.218,643.3Z" fill="#fff"/>
        <rect x="1436.289" y="577.569" width="31.636" height="4.623" rx="0.164" transform="translate(-78.688 261.222) rotate(-10.01)" fill="#fff"/>
      </g>
      <path d="M608.313,787.158h-4.295a.164.164,0,0,1-.164-.164v-96.26a.164.164,0,0,1,.128-.16l4.143-.935a.164.164,0,0,1,.184.089l37.63,79.065a.164.164,0,0,0,.312-.07V683.291a.163.163,0,0,1,.164-.163h4.3a.164.164,0,0,1,.164.163v96.261a.163.163,0,0,1-.128.159l-4.143.936a.165.165,0,0,1-.184-.09l-37.63-79.064a.164.164,0,0,0-.312.07v85.431A.163.163,0,0,1,608.313,787.158Z" fill="#fff"/>
      <g>
        <path d="M723.114,768.6l-4.132-1.175a.164.164,0,0,1-.113-.2L747.7,665.853a.162.162,0,0,1,.163-.119l4.23.154a.164.164,0,0,1,.155.131l19.213,92.87a.165.165,0,0,1-.128.194l-4.207.87a.164.164,0,0,1-.193-.127l-17.194-83.115a.164.164,0,0,0-.318-.011l-26.1,91.788A.164.164,0,0,1,723.114,768.6Z" fill="#fff"/>
        <rect x="734.666" y="714.914" width="25.545" height="4.623" rx="0.164" transform="translate(-113.286 140.832) rotate(-10.01)" fill="#fff"/>
      </g>
      <g>
        <path d="M790.854,776.572h-4.3a.163.163,0,0,1-.163-.163V678.217a.164.164,0,0,1,.135-.161l43.367-7.648a.165.165,0,0,1,.19.133l.747,4.23a.165.165,0,0,1-.133.19l-39.549,6.973a.164.164,0,0,0-.135.161v94.314A.163.163,0,0,1,790.854,776.572Z" fill="#fff"/>
        <rect x="788.422" y="714.496" width="37.507" height="4.623" rx="0.164" transform="translate(-112.304 151.208) rotate(-10.01)" fill="#fff"/>
      </g>
      <g>
        <rect x="860.611" y="655.447" width="4.622" height="96.554" rx="0.164" fill="#fff"/>
        <rect x="829.982" y="653.135" width="65.88" height="4.623" rx="0.164" transform="translate(-100.79 159.964) rotate(-10.01)" fill="#fff"/>
      </g>
      <g>
        <path d="M965.826,724.308h-4.3a.165.165,0,0,1-.164-.164V625.95a.164.164,0,0,1,.136-.161L971.628,624c3.185-.556,16.692-.649,23.866,5.371a12.077,12.077,0,0,1,4.541,9.617v13.489c0,6.853-11.016,19.3-20.538,20.979l-13.369,2.078a.164.164,0,0,0-.138.162v48.444A.165.165,0,0,1,965.826,724.308Zm.164-94.479v40.862a.164.164,0,0,0,.189.162L978.74,668.9c7.478-1.319,16.673-11.963,16.673-16.418V638.992a7.547,7.547,0,0,0-2.89-6.076c-5.441-4.566-17.134-4.882-20.092-4.36l-6.306,1.112A.164.164,0,0,0,965.99,629.829Z" fill="#fff"/>
        <rect x="986.098" y="669.409" width="4.623" height="50.669" rx="0.164" transform="translate(-186.199 412.047) rotate(-21.571)" fill="#fff"/>
      </g>
      <g>
        <path d="M1378.053,662.6h-4.294a.163.163,0,0,1-.164-.164V564.239a.162.162,0,0,1,.135-.161l10.125-1.787c3.185-.557,16.694-.647,23.866,5.371a12.076,12.076,0,0,1,4.542,9.617v13.49c0,6.852-11.017,19.3-20.538,20.978l-13.369,2.079a.163.163,0,0,0-.139.161v48.444A.163.163,0,0,1,1378.053,662.6Zm.164-94.478v40.861a.164.164,0,0,0,.189.162l12.561-1.953c7.478-1.32,16.673-11.964,16.673-16.418v-13.49a7.545,7.545,0,0,0-2.89-6.076c-5.442-4.566-17.129-4.881-20.091-4.359l-6.306,1.111A.164.164,0,0,0,1378.217,568.117Z" fill="#fff"/>
        <rect x="1398.325" y="607.696" width="4.623" height="50.669" rx="0.164" transform="translate(-134.639 559.281) rotate(-21.571)" fill="#fff"/>
      </g>
      <g>
        <rect x="1096.169" y="613.911" width="4.622" height="96.554" rx="0.164" fill="#fff"/>
        <rect x="1065.54" y="611.599" width="65.88" height="4.623" rx="0.164" transform="translate(-89.985 200.275) rotate(-10.01)" fill="#fff"/>
      </g>
      <g>
        <rect x="1331.728" y="582.203" width="4.622" height="96.555" rx="0.164" fill="#fff"/>
        <rect x="1301.1" y="579.892" width="65.88" height="4.623" rx="0.164" transform="translate(-80.889 240.736) rotate(-10.01)" fill="#fff"/>
      </g>
      <g>
        <rect x="1134.985" y="616.605" width="4.622" height="96.555" rx="0.164" fill="#fff"/>
        <rect x="1175.134" y="609.526" width="4.622" height="96.555" rx="0.164" fill="#fff"/>
        <rect x="1136.987" y="653.69" width="40.768" height="4.623" rx="0.164" transform="translate(-96.405 211.151) rotate(-10.01)" fill="#fff"/>
      </g>
      <g>
        <path d="M1198.66,694.665V593.749a.162.162,0,0,1,.135-.161l32.769-5.779a.163.163,0,0,1,.189.133l.747,4.229a.163.163,0,0,1-.133.19l-28.949,5.1a.164.164,0,0,0-.135.162v91.528a.163.163,0,0,0,.192.161l28.089-4.952a.162.162,0,0,1,.189.132l.747,4.23a.164.164,0,0,1-.133.19l-33.515,5.91A.164.164,0,0,1,1198.66,694.665Z" fill="#fff"/>
        <rect x="1200.731" y="628.932" width="31.636" height="4.623" rx="0.164" transform="translate(-91.201 221.061) rotate(-10.01)" fill="#fff"/>
      </g>
      <g>
        <path d="M1253.12,675.146l-4.131-1.174a.165.165,0,0,1-.113-.2L1277.7,572.4a.163.163,0,0,1,.164-.119l4.23.154a.164.164,0,0,1,.154.131l19.213,92.869a.164.164,0,0,1-.127.194l-4.207.87a.163.163,0,0,1-.194-.127l-17.194-83.113a.163.163,0,0,0-.317-.012l-26.1,91.787A.163.163,0,0,1,1253.12,675.146Z" fill="#fff"/>
        <rect x="1264.672" y="621.459" width="25.545" height="4.623" rx="0.164" transform="translate(-88.975 231.531) rotate(-10.01)" fill="#fff"/>
      </g>
    </g>
    <polygon points="561.969 654.709 487.277 667.879 487.277 453.681 434.864 462.923 434.864 677.121 434.864 687.603 434.864 687.604 487.277 678.362 487.277 678.362 561.969 665.191 561.969 654.709" fill="#fff"/>
    <polygon points="709.294 425.017 709.294 414.534 634.601 427.704 634.601 427.704 582.189 436.945 582.189 436.946 582.189 447.429 582.189 520.405 582.189 530.887 582.189 651.143 582.189 661.626 582.189 661.627 634.601 652.385 634.601 652.384 709.294 639.214 709.294 628.731 634.601 641.902 634.601 521.645 693.112 511.328 693.112 500.846 634.601 511.163 634.601 438.187 709.294 425.017" fill="#fff"/>
    <polygon points="1282.398 323.963 1282.398 313.48 1207.705 326.651 1207.705 326.65 1155.293 335.892 1155.293 335.892 1155.293 346.375 1155.293 419.351 1155.293 429.833 1155.293 550.09 1155.293 560.572 1155.293 560.573 1207.705 551.331 1207.705 551.33 1282.398 538.16 1282.398 527.678 1207.705 540.848 1207.705 420.592 1266.216 410.275 1266.216 399.792 1207.705 410.109 1207.705 337.133 1282.398 323.963" fill="#fff"/>
    <polygon points="1121.392 341.87 1121.392 495.855 988.557 365.292 971.198 368.353 958.095 370.664 958.095 595.345 971.198 593.034 971.198 438.714 1104.323 569.561 1121.392 566.551 1134.495 564.241 1134.495 339.559 1121.392 341.87" fill="#fff"/>
    <path d="M1484.872,333.966l7.542-12.243s-13.107-48.241-59.166-44.487c-32.053,2.612-78.653,34.125-65.131,78.672,17.3,57,102.374,138.931,63.722,145.747-24.452,4.311-60.989-31.808-65.174-40.66L1360.445,474s25.815,53.376,69.833,44.425c28.22-5.739,72.542-29.724,60.044-78.659-15.47-60.573-98.7-141.073-67.853-146.511C1463.093,286.094,1482.945,326.181,1484.872,333.966Z" fill="#fff"/>
    <path d="M833.433,382.877C766.968,394.6,722.2,456.371,722.2,522.835s44.772,112.451,111.237,100.732S944.67,550.072,944.67,483.607,899.9,371.157,833.433,382.877Zm-44.832,27.9c2.26-1.527,4.58-2.948,6.933-4.307V613.374q-3.535-.793-6.933-1.89ZM833.433,613.74a102.6,102.6,0,0,1-26.9,1.333V400.87a116.549,116.549,0,0,1,26.9-8.166c29.17-5.144,54.489,1.449,73.222,19.066,18.177,17.094,28.188,43.222,28.188,73.57a137.044,137.044,0,0,1-28.188,83.512C887.922,593.074,862.6,608.6,833.433,613.74Z" fill="#fff"/>
    <path d="M1325.316,254.206c-17.276,3.046-28.913,19.1-28.913,36.379s5.017,33.593,38.482,22.917c-7.787,18.143-26.775,25.564-26.775,25.564v11.293c21.411-3.775,46.079-32.576,46.079-68.249C1354.189,261.3,1342.592,251.16,1325.316,254.206Z" fill="#fff"/>
  </g>
</svg>
