<svg xmlns="http://www.w3.org/2000/svg" width="1920" height="1080" viewBox="0 0 1920 1080">
  <g>
    <path d="M588.052,712.841H436.063V358.2H588.052c65.053,0,108.752,41.353,108.752,102.9,0,32.16-12.786,58.64-35.523,74.469,22.737,15.992,35.523,42.445,35.523,74.368C696.8,671.488,653.105,712.841,588.052,712.841ZM450.218,698.686H588.052c57.46,0,94.6-34.838,94.6-88.753,0-31.523-13.64-55.705-38.4-68.083l-12.786-6.393,12.84-6.3c24.364-11.945,38.343-36.75,38.343-68.063,0-53.908-37.137-88.746-94.6-88.746H450.218Z" fill="#fff"/>
    <g>
      <path d="M796.165,422.186c9.907-18.273,28.446-28.978,51.429-28.978,37.333,0,63.462,28.2,63.462,68.4s-26.129,68.416-63.462,68.416c-23.493,0-42.563-10.7-51.429-28.723v25.587H780.241V344.118h15.924Zm48.814-14.1c-30.02,0-49.856,21.154-49.856,53.523s19.836,53.534,49.856,53.534c29.509,0,49.366-21.675,49.366-53.534S874.488,408.09,844.979,408.09Z" fill="#fff"/>
      <path d="M999.374,392.093c39.693,0,68.395,28.722,68.395,68.4s-28.7,68.416-68.395,68.416-68.416-28.723-68.416-68.416S959.681,392.093,999.374,392.093Zm0,15.4c-31.338,0-51.96,21.93-51.96,53s20.622,53.013,51.96,53.013c31.061,0,51.684-21.941,51.684-53.013S1030.435,407.5,999.374,407.5Z" fill="#fff"/>
      <path d="M1087.985,356.651c0-8.611,6-14.617,14.627-14.617,8.61,0,14.606,6.006,14.606,14.617s-6,14.627-14.606,14.627C1093.98,371.278,1087.985,365.272,1087.985,356.651Zm22.451,170.242h-15.924V396.344h15.924Z" fill="#fff"/>
      <path d="M1166.329,526.893H1149.9V344.118h16.434Z" fill="#fff"/>
      <path d="M1259.577,393.208c41.267,0,61.634,30.806,61.634,66.843v4.7H1211.55v1.829c.765,31.072,22.451,48.569,49.6,48.569,19.58,0,33.421-9.142,43.605-20.112l8.355,12.533c-10.971,11.491-27.681,22.461-51.429,22.461-39.438,0-66.332-26.639-66.332-67.629C1195.35,423.494,1220.416,393.208,1259.577,393.208Zm.277,14.882c-27.958,0-44.668,17.753-47.539,43.871h91.654C1302.4,427.15,1287.79,408.09,1259.854,408.09Z" fill="#fff"/>
      <path d="M1405.1,393.208a72.9,72.9,0,0,1,12.778,1.042v16.976a59.369,59.369,0,0,0-13.054-1.573c-30.551,0-40.2,25.332-40.2,57.19v60.05H1348.7V396.344h15.413v26.894C1370.9,403.126,1385.524,393.208,1405.1,393.208Z" fill="#fff"/>
      <path d="M937.419,589.144c33.166,0,50.663,20.367,50.663,57.7v75.985h-16.2V644.5c0-25.321-12.012-40.469-35.76-40.469-31.083,0-44.137,23.758-44.137,57.445v61.358H875.806V645.282c0-25.853-12.543-41.256-36.291-41.256-30.806,0-43.35,24.279-43.35,58.487v60.316H780.241V592.28h15.414v27.936c6.527-19.581,23.492-31.072,45.943-31.072,23.238,0,39.162,11.746,44.9,34.984C896.174,599.593,914.181,589.144,937.419,589.144Z" fill="#fff"/>
      <path d="M1068.574,589.144c34.187,0,51.174,15.669,51.174,47.782v85.9h-15.924V697.763c-8.356,17.5-25.6,27.936-48.049,27.936-26.639,0-43.605-15.669-43.605-39.682,0-22.462,15.669-37.079,41.777-39.428l43.073-4.177c4.975-.266,6.8-2.1,6.8-5.751v-4.433c0-19.06-12.012-28.723-34.485-28.723-21.664,0-34.973,8.355-38.375,24.545l-14.35-7.579C1022.1,599.848,1039.851,589.144,1068.574,589.144Zm-12.544,72.062c-17.22,1.828-27.149,10.97-27.149,25.066,0,15.148,10.97,24.29,29.509,24.29,25.853,0,45.434-18.805,45.434-43.605V655.986Z" fill="#fff"/>
      <path d="M1165.852,683.922v38.907h-15.924V540.054h15.924V663.3l68.671-71.02h22.451l-56.659,56.914,57.977,73.635h-20.9l-47.772-62.665Z" fill="#fff"/>
      <path d="M1331.508,589.144c41.266,0,61.634,30.806,61.634,66.842v4.7H1283.481v1.828c.765,31.072,22.451,48.57,49.6,48.57,19.581,0,33.422-9.142,43.605-20.113l8.356,12.533c-10.971,11.491-27.681,22.462-51.429,22.462-39.438,0-66.333-26.639-66.333-67.629C1267.28,619.429,1292.346,589.144,1331.508,589.144Zm.276,14.882c-27.957,0-44.668,17.752-47.538,43.871H1375.9C1374.326,623.086,1359.72,604.026,1331.784,604.026Z" fill="#fff"/>
      <path d="M1477.014,589.144a73.142,73.142,0,0,1,12.8,1.041v16.977a59.456,59.456,0,0,0-13.054-1.573c-30.551,0-40.2,25.331-40.2,57.19v60.05H1420.61V592.28h15.414v26.894C1442.806,599.062,1457.433,589.144,1477.014,589.144Z" fill="#fff"/>
    </g>
  </g>
</svg>
