<svg xmlns="http://www.w3.org/2000/svg" xmlns:xlink="http://www.w3.org/1999/xlink" width="1920" height="1080" viewBox="0 0 1920 1080">
  <defs>
    <clipPath id="a">
      <path d="M979.989,770.465,919.91,600.012l82.282-241.783c60.8-1.012,912.059-32.238,917.808-34.155" fill="none"/>
    </clipPath>
    <clipPath id="b">
      <rect x="849.013" y="320.874" width="1208.57" height="440.58" fill="none"/>
    </clipPath>
  </defs>
  <rect width="1920" height="1094.539"/>
  <g>
    <g clip-path="url(#a)">
      <g clip-path="url(#b)">
        <polygon points="1021.551 668.367 954.164 704.215 1068.556 676.232 1039.896 656.84 1012.84 662.405 1021.551 668.367" fill="#fff"/>
        <polygon points="981.065 619.928 963.34 628.526 996.405 651.156 1014.075 641.59 981.065 619.928" fill="#fff"/>
        <polygon points="1134.999 503.502 1164.888 525.001 1881.334 316.796 1418.31 268.937 1580.457 309.665 1134.999 503.502" fill="#fff"/>
        <polygon points="1003.973 487.489 991.089 501.479 1061.515 556.495 1078.828 547.191 1003.973 487.489" fill="#fff"/>
        <polygon points="1045.562 640.268 1198.037 580.333 1172.889 563.309 1023.047 624.817 1045.562 640.268" fill="#fff"/>
        <g opacity="0.5">
          <polygon points="952.832 674.747 1012.84 662.405 996.405 651.156 952.832 674.747" fill="#fff"/>
          <polygon points="1039.896 656.84 1062.835 652.122 1045.562 640.268 1026.486 647.766 1039.896 656.84" fill="#fff"/>
          <polygon points="1164.888 525.001 1130.891 534.88 1172.889 563.309 1201.703 551.482 1164.888 525.001" fill="#fff"/>
          <polygon points="1418.31 268.937 1184.658 210.247 982.478 470.345 1003.973 487.489 1223.768 248.828 1418.31 268.937" fill="#fff"/>
          <polygon points="1061.515 556.495 964.145 608.823 981.065 619.928 1080.79 571.553 1061.515 556.495" fill="#fff"/>
        </g>
        <polygon points="1164.888 525.001 1134.999 503.502 1580.457 309.665 1418.31 268.937 1223.768 248.828 1003.973 487.489 1078.828 547.191 1061.515 556.495 1080.79 571.553 981.065 619.928 1014.075 641.59 996.405 651.156 1012.84 662.405 1039.896 656.84 1026.486 647.766 1045.562 640.268 1023.047 624.817 1172.889 563.309 1130.891 534.88 1164.888 525.001" fill="#fff"/>
        <polygon points="1164.888 525.001 1134.999 503.502 1580.457 309.665 1418.31 268.937 1223.768 248.828 1003.973 487.489 1078.828 547.191 1061.515 556.495 1080.79 571.553 981.065 619.928 1014.075 641.59 996.405 651.156 1012.84 662.405 1039.896 656.84 1026.486 647.766 1045.562 640.268 1023.047 624.817 1172.889 563.309 1130.891 534.88 1164.888 525.001" fill="#858585" opacity="0.5"/>
      </g>
    </g>
    <g>
      <g>
        <path d="M272.786,485.986c9.792-1.956,37.214-4.894,53.207-4.894,45.7,0,73.12,14.361,73.12,51.248,0,25.463-15.017,43.089-39.5,47.331,23.5,3.592,35.252,16.323,35.252,38.847,0,41.129-38.517,62.674-100.538,62.674-21.544,0-42.762-2.612-54.841-5.551Zm18.605,154.076c4.245.327,11.752.653,15.344.653,18.279,0,36.558-4.571,36.558-22.524,0-11.425-7.834-17.629-24.807-17.629H298.248ZM305.1,562.045h14.037c16.647,0,31.011-5.548,31.011-21.218,0-12.4-8.487-18.932-21.871-18.932a113.974,113.974,0,0,0-16.323,1.306Z" fill="#fff"/>
        <path d="M406.638,611.008c0-46.351,31.01-82.912,82.912-82.912,45.048,0,72.793,29.707,72.793,70.51,0,46.351-31.01,82.912-82.912,82.912C434.383,681.518,406.638,651.814,406.638,611.008Zm109.681-11.1c0-19.259-10.773-32.966-28.4-32.966-20.891,0-35.252,18.932-35.252,43.088,0,19.259,10.772,32.967,28.4,32.967C501.955,643,516.319,624.066,516.319,599.909Z" fill="#fff"/>
        <path d="M609.041,678.253H562.687l38.847-221.971h46.351Z" fill="#fff"/>
        <path d="M646.912,531.361h21.871l6.2-36.232h46.028l-6.2,36.232h38.52l-6.857,38.517H707.953l-8.16,46.681a64.508,64.508,0,0,0-1.306,10.772c0,10.119,6.854,13.384,16.32,13.384,10.119,0,19.259-2.939,28.075-8.163l-7.184,40.48c-12.078,5.874-22.524,8.486-37.864,8.486-23.5,0-46.681-9.792-46.681-42.762a91.058,91.058,0,0,1,1.307-15.343l9.466-53.535H640.055Z" fill="#fff"/>
        <path d="M758.24,623.086C774.56,636.8,789.9,644.3,806.877,644.3c9.139,0,15.67-2.936,15.67-10.119,0-5.548-3.919-7.834-16-11.1-27.092-7.18-43.415-18.279-43.415-44.392,0-34.275,27.1-50.6,61.044-50.6,21.545,0,37.538,5.55,49.29,15.017l-7.507,40.476c-11.752-11.752-26.116-18.279-41.783-18.279-9.142,0-15.017,2.612-15.017,8.813,0,5.548,4.245,7.833,13.711,10.446,32.643,9.466,46.025,22.524,46.025,45.7,0,34.272-26.113,51.248-61.7,51.248-23.177,0-43.415-6.53-56.143-17.955Z" fill="#fff"/>
      </g>
      <g>
        <path d="M373.22,414.321a86.672,86.672,0,0,1,13.42-1.175c12.049,0,19.983,4.6,19.983,15.085,0,8.326-5.486,13.518-12.734,14.5,7.15,1.077,11.363,5.289,11.363,12.342,0,11.853-10.874,18.22-26.938,18.22a65.932,65.932,0,0,1-15.183-1.666ZM374,464.475a39.093,39.093,0,0,0,6.073.489c8.424,0,14.791-2.84,14.791-9.893,0-5.29-3.624-7.934-11.559-7.934h-6.367Zm4.408-25.469h5c7.543,0,13.224-2.841,13.224-9.6,0-5.192-4.016-7.935-9.7-7.935a46.782,46.782,0,0,0-5.584.392Z" fill="#fff"/>
        <path d="M434.751,414.125h9.992l-6.27,36.244a26.626,26.626,0,0,0-.391,4.6c0,7.445,5.289,9.8,12.93,9.8a49.927,49.927,0,0,0,11.069-1.078l8.62-49.566h9.991L470.8,470.548a79.049,79.049,0,0,1-19.787,2.743c-13.322,0-23.216-4.506-23.216-16.947a39.182,39.182,0,0,1,.49-5.289Z" fill="#fff"/>
        <path d="M508.527,472.311h-9.894l10.188-58.088a94.34,94.34,0,0,1,13.224-.979c14.007,0,21.746,6.171,21.746,17.828,0,10.285-6.955,16.75-15.183,18.807l14.007,22.432H531.252L518.91,451.642h-6.759Zm5.093-28.9h4.9c8.326,0,15.085-3.428,15.085-12.146,0-6.857-5-9.5-11.754-9.5-1.078,0-3.429.1-4.506.2Z" fill="#fff"/>
        <path d="M604.734,414.125H616l-27.232,35.95-3.918,22.236h-9.991l3.918-22.236-14.693-35.95H574.76l10.383,26.546Z" fill="#fff"/>
      </g>
    </g>
  </g>
</svg>
