<svg xmlns="http://www.w3.org/2000/svg" width="1920" height="1080" viewBox="0 0 1920 1080">
  <g>
    <g>
      <path d="M652.756,659.957v92.469q0,19.572-5.04,34.1a65.4,65.4,0,0,1-14.532,24.377q-9.493,9.846-24.417,15.939a139.249,139.249,0,0,1-33.4,8.673,312.586,312.586,0,0,1-42.739,2.578,309.371,309.371,0,0,1-42.582-2.578,137.3,137.3,0,0,1-33.167-8.673q-14.826-6.093-24.26-15.939A65.188,65.188,0,0,1,418.2,786.531q-4.98-14.532-5-34.1V738.714h78.757V749.5q0,31.293,40.668,31.292,41.488,0,41.489-31.292V659.957Z" fill="#fff"/>
      <path d="M836.133,831.3l-10.2-19.924h-92L723.857,831.3H637.6l92-171.344H830.742L922.157,831.3Zm-55.317-111.69H778.94q-9.845,21.213-22.5,46.879h46.88Z" fill="#fff"/>
      <path d="M1095.259,723.01l92.7,108.291h-100.2l-52.036-63.522-30.354,23.674V831.3H926.611V659.957h78.757v59.419l73.718-59.419h99.15Z" fill="#fff"/>
      <path d="M1199.644,675.661q33.344-22.5,103.174-22.5,69.851,0,103.213,22.5,33.342,22.5,33.323,69.968,0,47.465-33.323,69.967-33.343,22.5-103.213,22.5-69.851,0-103.174-22.5-33.344-22.5-33.363-69.967Q1166.281,698.163,1199.644,675.661Zm65.67,97.92q12.893,9.786,37.5,9.786t37.5-9.786q12.892-9.786,12.892-27.952t-12.892-27.952q-12.891-9.786-37.5-9.786t-37.5,9.786q-12.891,9.786-12.892,27.952T1265.314,773.581Z" fill="#fff"/>
    </g>
    <path d="M1143.493,241.9V409.6q0,35.493-9.14,61.848T1108,515.651q-17.216,17.855-44.315,28.906t-60.573,15.728q-33.476,4.676-77.471,4.675t-77.257-4.675q-33.263-4.677-60.149-15.728t-43.995-28.906Q727.129,497.8,718.1,471.443T709.063,409.6V384.728H851.889v19.553q0,56.748,73.751,56.748,75.24,0,75.239-56.748V241.9Z" fill="#fff"/>
  </g>
</svg>
