<svg xmlns="http://www.w3.org/2000/svg" width="1920" height="1080" viewBox="0 0 1920 1080">
  <path d="M964.22,185.021h-9.192a1.322,1.322,0,0,0-1.1.581C905.6,256.945,831.153,310.821,694.515,318.315a1.33,1.33,0,0,0-1.262,1.324v292.25A155.752,155.752,0,0,0,752.77,734.354L958.8,894.7a1.333,1.333,0,0,0,1.641,0l204.043-160.341c37.576-29.529,62.261-74.674,62.261-122.465V319.639a1.33,1.33,0,0,0-1.262-1.324c-136.643-7.494-211.835-61.37-260.171-132.713A1.319,1.319,0,0,0,964.22,185.021Zm151.464,496.34a1.344,1.344,0,0,1-1.525,1.324c-48.519-6.661-84.021-20.832-106.328-47.444a1.328,1.328,0,0,0-2.337.866V760.823a1.332,1.332,0,0,1-1.332,1.332H915.838a1.332,1.332,0,0,1-1.332-1.332V636.107a1.328,1.328,0,0,0-2.337-.866c-22.307,26.612-57.808,40.783-106.328,47.444a1.344,1.344,0,0,1-1.525-1.324V602.849a1.329,1.329,0,0,1,1.057-1.3c45.955-9.736,77.425-30.592,95.883-66.757a1.337,1.337,0,0,0-1.881-1.758c-11.445,7.076-45.357,26.733-71.389,28.42a1.336,1.336,0,0,1-1.408-1.342V502.481a1.319,1.319,0,0,1,.947-1.265c39.073-11.611,73.169-35.181,103.219-66.783a1.336,1.336,0,0,0-1.62-2.085,170.779,170.779,0,0,1-58.06,20.749,1.346,1.346,0,0,1-1.556-1.324V412.161a1.32,1.32,0,0,1,.871-1.239c39.441-14.449,66.475-46.932,84.925-91.892a1.327,1.327,0,0,1,1.225-.826h6.941a1.327,1.327,0,0,1,1.226.826c18.45,44.96,45.484,77.443,84.925,91.892a1.32,1.32,0,0,1,.871,1.239v39.612a1.346,1.346,0,0,1-1.556,1.324,170.758,170.758,0,0,1-58.06-20.749,1.336,1.336,0,0,0-1.62,2.085c30.05,31.6,64.146,55.172,103.219,66.783a1.319,1.319,0,0,1,.947,1.265v57.636a1.336,1.336,0,0,1-1.408,1.342c-26.032-1.687-59.944-21.345-71.389-28.42a1.337,1.337,0,0,0-1.88,1.758c18.457,36.165,49.927,57.021,95.882,66.757a1.329,1.329,0,0,1,1.057,1.3Z"/>
</svg>
