<svg xmlns="http://www.w3.org/2000/svg" width="1920" height="1080" viewBox="0 0 1920 1080">
  <rect width="1920" height="1094.539"/>
  <g>
    <path d="M1163.606,241.9V409.6q0,35.493-9.139,61.848t-26.355,44.208q-17.216,17.855-44.315,28.906t-60.573,15.728q-33.476,4.676-77.47,4.675T868.5,560.285q-33.262-4.677-60.149-15.728t-43.995-28.906q-17.11-17.853-26.143-44.208T729.177,409.6V384.728H872v19.553q0,56.748,73.751,56.748,75.239,0,75.238-56.748V241.9Z" fill="#fff"/>
    <g>
      <path d="M672.763,659.957v92.469q0,19.572-5.039,34.1a65.4,65.4,0,0,1-14.533,24.377q-9.492,9.846-24.416,15.939a139.257,139.257,0,0,1-33.4,8.673,312.581,312.581,0,0,1-42.738,2.578,309.35,309.35,0,0,1-42.582-2.578,137.284,137.284,0,0,1-33.167-8.673q-14.826-6.093-24.261-15.939a65.2,65.2,0,0,1-14.415-24.377q-4.981-14.532-5-34.1V738.714h78.757V749.5q0,31.293,40.668,31.292,41.488,0,41.488-31.292V659.957Z" fill="#fff"/>
      <path d="M856.141,831.3l-10.2-19.924h-92L743.865,831.3H657.607l92-171.344H850.75L942.165,831.3Zm-55.318-111.69h-1.875q-9.845,21.213-22.5,46.879h46.879Z" fill="#fff"/>
      <path d="M1115.267,723.01l92.7,108.291h-100.2l-52.036-63.522-30.354,23.674V831.3H946.618V659.957h78.758v59.419l73.717-59.419h99.15Z" fill="#fff"/>
      <path d="M1219.652,675.661q33.342-22.5,103.174-22.5,69.849,0,103.212,22.5,33.343,22.5,33.324,69.968,0,47.465-33.324,69.967-33.342,22.5-103.212,22.5-69.851,0-103.174-22.5-33.343-22.5-33.363-69.967Q1186.289,698.163,1219.652,675.661Zm65.67,97.92q12.893,9.786,37.5,9.786t37.5-9.786q12.893-9.786,12.892-27.952t-12.892-27.952q-12.893-9.786-37.5-9.786t-37.5,9.786q-12.892,9.786-12.892,27.952T1285.322,773.581Z" fill="#fff"/>
    </g>
  </g>
</svg>
