<svg xmlns="http://www.w3.org/2000/svg" width="1920" height="1080" viewBox="0 0 1920 1080">
  <g>
    <g>
      <path d="M751.5,309.877l-1.4-.576c-1.9,4.624-3.674,9.409-5.271,14.222l1.435.475C747.852,319.219,749.613,314.468,751.5,309.877Z"/>
      <path d="M753.871,304.336l-1.382-.614q-.921,2.07-1.805,4.178l1.394.584Q752.956,306.395,753.871,304.336Z"/>
      <path d="M734.217,387.5l-1.509-.1q-.15,2.259-.268,4.54l1.511.077Q734.067,389.743,734.217,387.5Z"/>
      <path d="M742.379,336.984l-1.46-.389c-1.289,4.814-2.453,9.782-3.459,14.762l1.482.3C739.942,346.706,741.1,341.771,742.379,336.984Z"/>
      <path d="M737.558,359.062l-1.489-.257q-.384,2.23-.731,4.49l1.494.23Q737.177,361.28,737.558,359.062Z"/>
      <path d="M827.579,219.094l-.8-1.282q-1.932,1.207-3.835,2.456l.83,1.263Q825.662,220.292,827.579,219.094Z"/>
      <path d="M822.517,222.364l-.84-1.258c-4.209,2.813-8.339,5.811-12.274,8.913l.936,1.187C814.243,228.129,818.341,225.154,822.517,222.364Z"/>
      <path d="M804.522,235.979l-.982-1.148q-1.728,1.475-3.422,2.994l1.008,1.125Q802.807,237.444,804.522,235.979Z"/>
      <path d="M800.012,239.958l-1.018-1.119c-3.727,3.394-7.359,6.98-10.8,10.658l1.1,1.033C792.712,246.881,796.315,243.324,800.012,239.958Z"/>
      <path d="M764.177,284.25l-1.3-.765c-2.535,4.32-4.949,8.817-7.175,13.364l1.358.664C759.266,293,761.661,288.537,764.177,284.25Z"/>
      <path d="M767.305,279.1l-1.28-.806q-1.207,1.921-2.378,3.883l1.3.773Q766.106,281.009,767.305,279.1Z"/>
      <path d="M744.012,331.184l-1.449-.428q-.644,2.169-1.247,4.373l1.457.4Q743.376,333.343,744.012,331.184Z"/>
      <path d="M752.341,528.948l-1.451.425q.642,2.193,1.3,4.353l1.447-.44Q752.982,531.134,752.341,528.948Z"/>
      <path d="M740.5,479.03l-1.485.278.429,2.26c.8,4.218,1.659,8.452,2.547,12.585l1.478-.319c-.886-4.119-1.74-8.342-2.54-12.551Z"/>
      <path d="M745.106,501.2l-1.474.339q.511,2.224,1.038,4.422l1.471-.351Q745.616,503.418,745.106,501.2Z"/>
      <path d="M745.025,507.434c1.2,4.942,2.476,9.873,3.8,14.656l1.457-.4c-1.314-4.769-2.587-9.685-3.783-14.612Z"/>
      <path d="M752.632,535.175c1.489,4.84,3.07,9.684,4.7,14.4l1.429-.493c-1.623-4.7-3.2-9.523-4.682-14.348Z"/>
      <path d="M761.29,556.186l-1.42.519q.786,2.146,1.586,4.258l1.413-.537Q762.074,558.325,761.29,556.186Z"/>
      <path d="M733.839,422.155l-1.511.062c.206,4.955.525,10.041.948,15.116l1.506-.126C734.361,432.153,734.044,427.089,733.839,422.155Z"/>
      <path d="M733.642,416.13l-1.512.036q.054,2.261.139,4.543l1.511-.057Q733.695,418.378,733.642,416.13Z"/>
      <path d="M739.428,473.092l-1.489.26q.387,2.226.8,4.472l1.487-.275Q739.814,475.313,739.428,473.092Z"/>
      <path d="M733.544,408.105c0-4.905.112-9.812.334-14.585l-1.511-.071c-.222,4.8-.335,9.729-.335,14.656v.491l1.512-.006Z"/>
      <path d="M735.484,444.715l-1.5.156q.232,2.249.493,4.515l1.5-.171Q735.715,446.953,735.484,444.715Z"/>
      <path d="M762,562.376c1.819,4.75,3.733,9.473,5.688,14.038l1.389-.6c-1.946-4.548-3.853-9.253-5.665-13.983Z"/>
      <path d="M736.149,450.709l-1.5.177c.585,4.929,1.278,9.976,2.061,15l1.494-.233C737.423,460.648,736.732,455.619,736.149,450.709Z"/>
      <path d="M1068.825,214.489c-4.328-2.513-8.832-4.907-13.388-7.118l-.66,1.362c4.523,2.194,8.994,4.571,13.289,7.064Z"/>
      <path d="M1048.559,204.188q-2.076-.916-4.177-1.789l-.579,1.4q2.085.863,4.146,1.774Z"/>
      <path d="M1015.7,192.723c-4.834-1.277-9.8-2.42-14.766-3.4l-.292,1.482c4.933.971,9.869,2.108,14.671,3.376Z"/>
      <path d="M1021.527,194.347q-2.174-.636-4.369-1.231l-.395,1.458q2.181.591,4.34,1.223Z"/>
      <path d="M1092.607,230.728c-3.925-3.13-8.037-6.154-12.223-8.987l-.847,1.252c4.154,2.811,8.234,5.811,12.127,8.916Z"/>
      <path d="M1042.985,201.825c-4.625-1.886-9.411-3.647-14.226-5.231l-.472,1.435c4.781,1.575,9.534,3.323,14.126,5.195Z"/>
      <path d="M1074.022,217.613q-1.93-1.2-3.89-2.358l-.769,1.3q1.944,1.151,3.86,2.341Z"/>
      <path d="M1131.825,273.271c-2.82-4.19-5.837-8.312-8.966-12.251l-1.184.939c3.105,3.91,6.1,8,8.895,12.157Z"/>
      <path d="M1133.855,279.168l1.28-.806q-1.215-1.932-2.468-3.824l-1.261.833Q1132.65,277.251,1133.855,279.168Z"/>
      <path d="M1116.872,256.158l1.145-.986q-1.491-1.727-3.017-3.415l-1.121,1.013Q1115.393,254.444,1116.872,256.158Z"/>
      <path d="M1097.3,234.589q-1.737-1.477-3.505-2.91l-.953,1.175q1.757,1.422,3.477,2.886Z"/>
      <path d="M1112.6,251.371l.269.292,1.107-1.031-.261-.282c-3.41-3.694-7.022-7.3-10.735-10.728l-1.025,1.11C1105.636,244.13,1109.22,247.712,1112.6,251.371Z"/>
      <path d="M930.149,186.8l-.113-1.508c-5.058.383-10.135.918-15.09,1.587l.2,1.5C920.075,187.713,925.122,187.183,930.149,186.8Z"/>
      <path d="M907.685,189.5l-.246-1.491q-2.254.372-4.494.788l.274,1.485Q905.445,189.876,907.685,189.5Z"/>
      <path d="M879.75,195.875l-.427-1.45q-2.19.645-4.362,1.329l.455,1.441Q877.573,196.514,879.75,195.875Z"/>
      <path d="M901.733,190.566l-.284-1.485c-4.984.953-9.965,2.072-14.8,3.323l.378,1.464C891.831,192.624,896.781,191.514,901.733,190.566Z"/>
      <path d="M852.86,205.709l-.613-1.382q-2.085.924-4.147,1.891l.642,1.37Q850.79,206.628,852.86,205.709Z"/>
      <path d="M873.977,197.655l-.465-1.438c-4.821,1.558-9.622,3.293-14.27,5.159l.562,1.4C864.421,200.926,869.189,199.2,873.977,197.655Z"/>
      <path d="M993.486,187.978q-2.234-.371-4.482-.7l-.219,1.5q2.236.325,4.455.693Z"/>
      <path d="M987.505,187.064c-4.931-.693-10-1.254-15.069-1.664l-.123,1.506c5.04.409,10.08.965,14.98,1.655Z"/>
      <path d="M964.872,184.9q-2.266-.117-4.543-.2l-.053,1.511q2.264.081,4.518.2Z"/>
      <path d="M847.379,208.234l-.653-1.365c-4.578,2.19-9.1,4.561-13.436,7.049l.751,1.311C838.347,212.76,842.835,210.407,847.379,208.234Z"/>
      <path d="M936.167,186.416l-.08-1.509q-2.275.12-4.54.279l.106,1.509Q933.906,186.534,936.167,186.416Z"/>
      <path d="M950.563,186.038c2.718-.015,5.466.037,8.212.121l.044-1.512c-2.713-.08-5.443-.121-8.117-.121-2.361,0-4.7.028-7.041.086l.039,1.511Q947.119,186.038,950.563,186.038Z"/>
      <path d="M736.608,365.016l-1.5-.221c-.728,4.916-1.335,9.98-1.8,15.049l1.506.139C735.28,374.941,735.884,369.906,736.608,365.016Z"/>
      <path d="M1104.431,627.824l1.265.827c2.727-4.177,5.409-8.51,7.971-12.88l-1.3-.765C1109.813,619.356,1107.145,623.668,1104.431,627.824Z"/>
      <path d="M1101.083,632.842l1.249.851q1.274-1.868,2.533-3.775l-1.261-.833Q1102.349,630.986,1101.083,632.842Z"/>
      <path d="M1116.1,608.457l1.322.735q1.1-1.976,2.18-3.987l-1.331-.718Q1117.192,606.491,1116.1,608.457Z"/>
      <path d="M1087.631,651.006l1.178.948c3.119-3.878,6.206-7.935,9.175-12.057l-1.226-.883C1093.805,643.114,1090.734,647.149,1087.631,651.006Z"/>
      <path d="M1118.982,603.158l1.335.712c2.341-4.4,4.637-8.95,6.822-13.524l-1.364-.652C1123.6,594.248,1121.314,598.779,1118.982,603.158Z"/>
      <path d="M1128.955,582.855l1.378.623q.931-2.059,1.848-4.153l-1.385-.605Q1129.884,580.805,1128.955,582.855Z"/>
      <path d="M1047.118,691.3l.933,1.19c3.925-3.079,7.836-6.353,11.622-9.736l-1.007-1.128C1054.9,684.987,1051.018,688.242,1047.118,691.3Z"/>
      <path d="M1131.4,577.336l1.388.6c1.978-4.568,3.912-9.282,5.747-14.014l-1.41-.546C1135.3,568.09,1133.37,572.786,1131.4,577.336Z"/>
      <path d="M1042.327,694.957l.9,1.213q1.81-1.344,3.626-2.746l-.924-1.2Q1044.127,693.622,1042.327,694.957Z"/>
      <path d="M1064.205,676.52l1.041,1.1q1.636-1.554,3.268-3.162l-1.061-1.078Q1065.83,674.974,1064.205,676.52Z"/>
      <path d="M1083.8,655.661l1.156.975q1.455-1.728,2.9-3.5l-1.173-.954Q1085.246,653.944,1083.8,655.661Z"/>
      <path d="M1068.523,672.315l1.068,1.069c3.537-3.53,7.038-7.237,10.406-11.02l-1.13-1C1075.52,665.119,1072.039,668.806,1068.523,672.315Z"/>
      <path d="M1161.673,473.22l1.489.26q.39-2.25.755-4.479l-1.492-.245Q1162.062,470.979,1161.673,473.22Z"/>
      <path d="M1165.63,444.816l1.5.157q.235-2.272.442-4.524l-1.506-.139Q1165.865,442.554,1165.63,444.816Z"/>
      <path d="M780.426,260.737l-1.175-.951c-3.158,3.906-6.207,8-9.062,12.17l1.248.853C774.269,268.674,777.293,264.612,780.426,260.737Z"/>
      <path d="M1166.206,438.8l1.506.132c.444-5.068.785-10.154,1.015-15.118l-1.511-.071C1166.988,428.69,1166.648,433.755,1166.206,438.8Z"/>
      <path d="M1167.317,395.1c.175,4.275.264,8.651.264,13.008q0,1.035-.006,2.07l1.512.009c0-.694.007-1.386.006-2.08,0-4.376-.089-8.773-.266-13.069Z"/>
      <path d="M1167.537,413.445q-.023,1.377-.056,2.764l1.512.035q.033-1.391.056-2.774l.024-1.77-1.512-.015Z"/>
      <path d="M1139.787,556.319l1.418.519q.778-2.121,1.541-4.274l-1.425-.5Q1140.561,554.206,1139.787,556.319Z"/>
      <path d="M1023.516,707.457l.77,1.3c4.3-2.539,8.6-5.289,12.776-8.176l-.86-1.243C1032.054,702.206,1027.786,704.937,1023.516,707.457Z"/>
      <path d="M1141.823,550.636l1.426.5c1.644-4.692,3.243-9.53,4.754-14.378l-1.444-.449C1145.054,541.138,1143.46,545.96,1141.823,550.636Z"/>
      <path d="M1148.743,529.084l1.451.425q.636-2.166,1.258-4.364l-1.455-.411Q1149.379,526.922,1148.743,529.084Z"/>
      <path d="M1155.986,501.338l1.474.34q.507-2.2,1-4.431l-1.476-.328Q1156.492,499.144,1155.986,501.338Z"/>
      <path d="M1160.2,481.284c-.907,4.768-1.879,9.532-2.889,14.163l1.477.322c1.013-4.644,1.988-9.422,2.9-14.2l.122-.636-1.485-.283Z"/>
      <path d="M1150.406,523.28l1.455.408c1.343-4.8,2.636-9.733,3.844-14.646l-1.468-.36C1153.033,513.579,1151.743,518.491,1150.406,523.28Z"/>
      <path d="M1162.668,467.262l1.492.239c.8-5.023,1.516-10.069,2.121-15l-1.5-.183C1164.177,457.23,1163.466,462.258,1162.668,467.262Z"/>
      <path d="M817.232,655.554l-1.157.971q1.471,1.753,2.955,3.456l1.14-.992Q818.7,657.3,817.232,655.554Z"/>
      <path d="M802.175,638.547c2.943,4.135,6.007,8.21,9.106,12.111l1.184-.942c-3.083-3.878-6.131-7.931-9.059-12.046Z"/>
      <path d="M1018.284,710.444l.729,1.323q1.976-1.086,3.962-2.24l-.758-1.308Q1020.245,709.363,1018.284,710.444Z"/>
      <path d="M835.774,677.518q1.659,1.578,3.324,3.105l1.022-1.114q-1.654-1.516-3.3-3.087Z"/>
      <path d="M799.961,632.723l-1.249.85q1.287,1.891,2.588,3.74l1.235-.871Q801.242,634.6,799.961,632.723Z"/>
      <path d="M840.218,681.644c3.759,3.406,7.647,6.709,11.554,9.818l.941-1.184c-3.882-3.089-7.744-6.369-11.479-9.753Z"/>
      <path d="M820.028,661.122c3.346,3.8,6.823,7.534,10.335,11.087l1.075-1.063c-3.492-3.532-6.949-7.241-10.275-11.022Z"/>
      <path d="M774.643,588.2l-1.367.647.494,1.042c2.015,4.233,4.122,8.442,6.263,12.509l1.338-.7c-2.131-4.052-4.229-8.242-6.236-12.455Z"/>
      <path d="M786.622,614.339c2.55,4.4,5.209,8.746,7.9,12.921l1.27-.821c-2.681-4.153-5.327-8.48-7.865-12.859Z"/>
      <path d="M772.11,582.725l-1.377.623q.942,2.082,1.9,4.13l1.37-.641Q773.049,584.8,772.11,582.725Z"/>
      <path d="M784.954,608.334l-1.321.733q1.108,2,2.233,3.959l1.311-.753Q786.06,610.325,784.954,608.334Z"/>
      <path d="M783.132,255.138q-1.482,1.716-2.926,3.476l1.168.959q1.434-1.744,2.9-3.448Z"/>
      <path d="M857.782,696.085q1.842,1.368,3.68,2.675l.876-1.231q-1.825-1.3-3.654-2.658Z"/>
      <path d="M964.687,729.557l.226,1.494q2.2-.332,4.5-.767l-.282-1.486Q966.863,729.23,964.687,729.557Z"/>
      <path d="M970.607,728.512l.3,1.482a146.124,146.124,0,0,0,14.71-3.8l-.451-1.444A144.668,144.668,0,0,1,970.607,728.512Z"/>
      <path d="M992.291,722.329l.518,1.42q2.111-.768,4.26-1.617l-.556-1.4Q994.385,721.567,992.291,722.329Z"/>
      <path d="M950.563,730.694c-2.628,0-5.422-.14-8.3-.416l-.144,1.506c2.929.28,5.772.422,8.448.422,2.158,0,4.441-.093,6.786-.278l-.118-1.506C954.925,730.6,952.682,730.694,950.563,730.694Z"/>
      <path d="M997.911,720.167l.567,1.4c4.6-1.86,9.249-3.969,13.823-6.267l-.679-1.351C1007.085,716.233,1002.471,718.323,997.911,720.167Z"/>
      <path d="M936.071,731.031q2.317.351,4.528.6l.167-1.5q-2.179-.242-4.468-.587Z"/>
      <path d="M887.344,714.553c4.541,2.329,9.173,4.479,13.766,6.388l.581-1.4c-4.557-1.892-9.152-4.026-13.656-6.338Z"/>
      <path d="M881.986,711.7Q884,712.811,886,713.854l.7-1.34q-1.983-1.035-3.98-2.138Z"/>
      <path d="M913.925,725.683a149.527,149.527,0,0,0,14.666,3.972l.317-1.48a147.448,147.448,0,0,1-14.516-3.93Z"/>
      <path d="M862.7,699.637c4.151,2.913,8.429,5.7,12.712,8.273l.78-1.3c-4.254-2.558-8.5-5.322-12.624-8.214Z"/>
      <path d="M908.182,723.7q2.172.795,4.3,1.506l.48-1.435q-2.111-.705-4.262-1.491Z"/>
    </g>
    <path d="M1181.508,284.005c-10.092-20.2-39.072,5.918-49.54,15.372a6.418,6.418,0,0,0-1.76,6.9c5.794,16.546,16.1,66.387-36.333,66.387-93.59,0-87.47-66.866-156.741-66.686-91.972.239-117.956,118.266-28.483,120.994a1.363,1.363,0,0,0,1.154-2.21c-12.454-14.366-17.618-57.676,9.527-57.676,11.968,0,17.8,11.647,17.6,24.395-.081,16.44-11.279,44.544-21.794,77.174-8.818,3.357-40.737,15.579-44.743,17.369-11.3,5.051-23.157,14.034-23.871,34.072s-1.992,30.464,14.106,19.418c5.737-3.937,22.247-12.785,41.375-22.645-.89,4.494-5,29.757-5,44.423,0,61.509,48.239,54.5,66,47.33a1.332,1.332,0,0,0,.64-2.008c-14.074-20.555-22.274-58.961-15.95-93.205a162.393,162.393,0,0,1,6.359-22.773c15.628-7.728,27.391-13.411,29.21-14.143-5.589,7.845-17.862,17.214-14.761,23.218s32.093,32.459,39.988,7.309c5.471-17.424,33.845-85.7,8.653-76.68-3.795,1.359-22.985,8.517-46.332,17.289,8.176-20.428,15.073-41.508,15.2-54.733,21.308,10.443,49.922,20.082,98.906,20.082C1181.508,412.98,1200.154,321.331,1181.508,284.005Z"/>
  </g>
  <g>
    <path d="M746.837,804.033c0-5.007-3-7.241-9.705-9.859l-2.927-1.155c-7.857-3.082-13.249-7.549-13.249-15.407,0-8.857,7.472-14.249,17.254-14.249a20.417,20.417,0,0,1,12.555,4.082l-.462,10.014h-4.621l-2.157-11.631,4.93,2.542v3.851c-3.775-3.7-6.625-5.007-10.707-5.007-6.008,0-10.553,3-10.553,8.781,0,4.853,3.159,7.7,8.781,9.86l3,1.155c10.167,3.929,14.1,8.4,14.1,15.637,0,9.088-7.625,14.634-18.178,14.634a29.5,29.5,0,0,1-14.943-4.082l.462-10.784h4.622l2,11.862-5.006-2.157v-3.7c4.775,3.467,7.394,5.007,12.632,5.007C741.984,813.43,746.837,810.041,746.837,804.033Z" fill="none" stroke="#000" stroke-miterlimit="10"/>
    <path d="M815.312,808.5v4.237l-4.776,1.078,1.926-11.4h4.7l-.308,11.169a32.4,32.4,0,0,1-15.56,3.7c-15.559,0-26.035-11.246-26.035-26.959,0-15.4,10.938-26.959,25.958-26.959a29.735,29.735,0,0,1,14.866,3.7l.308,11.169h-4.7l-1.926-11.4,4.776,1.078v4.7c-4.391-4.083-8.7-5.393-12.4-5.393-10.4,0-18.795,8.088-18.795,23.108S790.9,813.43,801.6,813.43A21.335,21.335,0,0,0,815.312,808.5Z" fill="none" stroke="#000" stroke-miterlimit="10"/>
    <path d="M886.405,790.322c0,16.868-11.554,26.959-23.493,26.959s-23.57-9.4-23.57-26.959c0-16.869,11.708-26.959,23.57-26.959S886.405,772.76,886.405,790.322ZM862.912,813.43c10.861,0,15.4-11.554,15.4-23.108s-4.544-23.108-15.4-23.108-15.482,11.555-15.482,23.108S852.051,813.43,862.912,813.43Z" fill="none" stroke="#000" stroke-miterlimit="10"/>
    <path d="M909.588,768.37l3.466-3.851-2.465,13.711h-4.313l.616-13.711h42.056l.617,13.711h-4.314l-2.465-13.711,3.467,3.851Zm19.1,43.52,10.783,1.155v3.081H916.366v-3.081l10.784-1.155ZM924.454,788.4c0-7.934,0-15.945-.231-23.878h7.394c-.231,7.779-.231,15.79-.231,23.878v3.851c0,7.934,0,15.944.231,23.878h-7.394c.231-7.779.231-15.79.231-23.878Z" fill="none" stroke="#000" stroke-miterlimit="10"/>
    <path d="M972.131,768.37l3.466-3.851-2.465,13.711h-4.313l.616-13.711h42.056l.617,13.711h-4.314l-2.465-13.711,3.467,3.851Zm19.1,43.52,10.784,1.155v3.081H978.909v-3.081l10.784-1.155ZM987,788.4c0-7.934,0-15.945-.231-23.878h7.394c-.231,7.779-.231,15.79-.231,23.878v3.851c0,7.934,0,15.944.231,23.878h-7.394c.231-7.779.231-15.79.231-23.878Z" fill="none" stroke="#000" stroke-miterlimit="10"/>
    <path d="M1032.518,767.6v-3.081h21.567V767.6l-10.014,1.155h-1.54Zm11.553,44.29,10.014,1.155v3.081h-21.567v-3.081l10.013-1.155Zm-4.236-23.493c0-7.934,0-15.945-.231-23.878H1047c-.232,7.779-.232,15.79-.232,23.878v3.851c0,7.934,0,15.944.232,23.878H1039.6c.231-7.779.231-15.79.231-23.878Z" fill="none" stroke="#000" stroke-miterlimit="10"/>
    <path d="M1102.918,804.033c0-5.007-3-7.241-9.7-9.859l-2.927-1.155c-7.857-3.082-13.249-7.549-13.249-15.407,0-8.857,7.472-14.249,17.254-14.249a20.422,20.422,0,0,1,12.556,4.082l-.463,10.014h-4.621l-2.157-11.631,4.93,2.542v3.851c-3.775-3.7-6.625-5.007-10.707-5.007-6.008,0-10.553,3-10.553,8.781,0,4.853,3.159,7.7,8.781,9.86l3,1.155c10.167,3.929,14.1,8.4,14.1,15.637,0,9.088-7.625,14.634-18.178,14.634a29.5,29.5,0,0,1-14.943-4.082l.462-10.784h4.622l2,11.862-5.006-2.157v-3.7c4.775,3.467,7.394,5.007,12.632,5.007C1098.066,813.43,1102.918,810.041,1102.918,804.033Z" fill="none" stroke="#000" stroke-miterlimit="10"/>
    <path d="M1130.338,767.6v-3.081h21.568V767.6l-10.013,1.155h-1.541Zm11.555,44.29,10.013,1.155v3.081h-21.568v-3.081l10.014-1.155Zm-4.237-23.493c0-7.934,0-15.945-.231-23.878h7.394c-.231,7.779-.231,15.79-.231,23.878v2.31c0,9.475,0,17.485.231,25.419h-7.394c.231-7.779.231-15.79.231-23.878Zm3.466,3.081v-3.543h32.351v3.543ZM1162.69,767.6v-3.081h21.567V767.6l-10.013,1.155H1172.7Zm11.554,44.29,10.013,1.155v3.081H1162.69v-3.081l10.013-1.155Zm-4.237-23.493c0-7.934,0-15.945-.231-23.878h7.395c-.231,7.779-.231,15.79-.231,23.878v3.851c0,7.934,0,15.944.231,23.878h-7.395c.231-7.779.231-15.79.231-25.419Z" fill="none" stroke="#000" stroke-miterlimit="10"/>
    <path d="M501.207,860.029v-3.081h21.567v3.081l-10.013,1.156H511.22Zm11.554,44.29,10.013,1.156v3.081H501.207v-3.081l10.013-1.156Zm-4.237-23.493c0-7.933,0-15.944-.231-23.878h7.395c-.231,7.78-.231,15.79-.231,23.878v2.311c0,9.474,0,17.485.231,25.419h-7.395c.231-7.78.231-15.79.231-23.878Zm3.466,3.081v-3.543h32.351v3.543Zm21.568-23.878v-3.081h21.567v3.081l-10.013,1.156h-1.541Zm11.554,44.29,10.013,1.156v3.081H533.558v-3.081l10.013-1.156Zm-4.237-23.493c0-7.933,0-15.944-.231-23.878h7.395c-.231,7.78-.231,15.79-.231,23.878v3.852c0,7.933,0,15.944.231,23.878h-7.395c.231-7.78.231-15.79.231-25.419Z" fill="none" stroke="#000" stroke-miterlimit="10"/>
    <path d="M574.379,905.475l7.7-1.156h1.541l8.473,1.156v3.081H574.379Zm22.955-48.912h4.621l17.716,51.993h-7.163l-15.483-46.139H598.8l-15.713,46.139h-3.621Zm-9.013,31.581h20.8l1.232,3.543H587.089ZM603.5,905.475l9.705-1.156h1.54l9.552,1.156v3.081H603.5Z" fill="none" stroke="#000" stroke-miterlimit="10"/>
    <path d="M640.7,860.8l3.466-3.852L641.7,870.659h-4.313L638,856.948h42.056l.617,13.711h-4.314L673.9,856.948l3.466,3.852Zm19.1,43.519,10.784,1.156v3.081H647.476v-3.081l10.784-1.156Zm-4.236-23.493c0-7.933,0-15.944-.231-23.878h7.395c-.232,7.78-.232,15.79-.232,23.878v3.852c0,7.933,0,15.944.232,23.878h-7.395c.231-7.78.231-15.79.231-23.878Z" fill="none" stroke="#000" stroke-miterlimit="10"/>
    <path d="M703.241,860.8l3.466-3.852-2.465,13.711h-4.313l.616-13.711H742.6l.616,13.711H738.9l-2.465-13.711,3.466,3.852Zm19.1,43.519,10.784,1.156v3.081H710.019v-3.081l10.784-1.156Zm-4.236-23.493c0-7.933,0-15.944-.231-23.878h7.394c-.231,7.78-.231,15.79-.231,23.878v3.852c0,7.933,0,15.944.231,23.878h-7.394c.231-7.78.231-15.79.231-23.878Z" fill="none" stroke="#000" stroke-miterlimit="10"/>
    <path d="M763.628,860.029v-3.081h10.783v4.237h-.77Zm10.783,44.29v4.237H763.628v-3.081l10.013-1.156Zm-3.466-23.493c0-7.933,0-15.944-.231-23.878h7.394c-.231,7.78-.231,15.79-.231,23.878v2.927c0,8.858,0,16.869.231,24.8h-7.394c.231-7.78.231-15.79.231-23.878Zm24.8-23.878,3.466,3.852h-24.8v-3.852h27.5l.539,13.711h-4.314Zm-3.928,27.036H774.411v-3.543h17.408Zm12.17,10.861-.539,13.711H774.411V904.7h26.343l-3.466,3.852,2.388-13.711Zm-14.635-13.634,1.156-8.164h3.466V891.3H790.51l-1.156-8.55Z" fill="none" stroke="#000" stroke-miterlimit="10"/>
    <path d="M825.554,860.029v-3.081h10.784v4.237h-.77Zm11.554,44.29,10.014,1.156v3.081H825.554v-3.081l10.014-1.156Zm-4.236-23.493c0-7.933,0-15.944-.231-23.878h7.394c-.231,8.011-.231,15.559-.231,24.649v2.31c0,8.7,0,16.715.231,24.649h-7.394c.231-7.78.231-15.79.231-23.878Zm3.466.385h9.628c8.319,0,12.325-4.467,12.325-10.706,0-6.471-3.467-10.014-11.477-10.014H836.338v-3.543h10.553c11.785,0,18.717,5.007,18.717,13.557,0,6.547-5.161,12.478-15.251,13.325l.231-.616c5.546.539,8.935,3.081,11.015,10.014l3.774,12.786-2.388-1.464,7.934.925v3.081a17.754,17.754,0,0,1-5.546.77c-4.776,0-6.855-1.232-7.78-4.776L854.439,892c-1.54-6.239-4.39-7.317-10.783-7.317h-7.318Z" fill="none" stroke="#000" stroke-miterlimit="10"/>
    <path d="M917.444,896.463c0-5.007-3-7.241-9.7-9.859l-2.927-1.156c-7.856-3.082-13.248-7.549-13.248-15.406,0-8.857,7.471-14.249,17.253-14.249a20.413,20.413,0,0,1,12.556,4.082l-.462,10.014h-4.622l-2.157-11.631,4.93,2.542v3.85c-3.774-3.7-6.624-5.006-10.706-5.006-6.009,0-10.553,3-10.553,8.781,0,4.852,3.158,7.7,8.781,9.859l3,1.156c10.167,3.928,14.1,8.4,14.1,15.636,0,9.089-7.626,14.635-18.179,14.635a29.52,29.52,0,0,1-14.943-4.082l.463-10.784h4.621l2,11.862-5.007-2.157v-3.7c4.776,3.466,7.395,5.006,12.633,5.006C912.592,905.859,917.444,902.471,917.444,896.463Z" fill="none" stroke="#000" stroke-miterlimit="10"/>
    <path d="M950.718,893.458c0,5.623,4.16,11.246,11.708,11.246,5.469,0,10.784-2.388,13.557-6.316l2.311,1.926c-3.235,4.929-8.7,9.243-17.716,9.243-9.628,0-16.33-6.24-16.33-14.1,0-7.548,4.776-13.1,13.788-17.022l1.541,2.233C952.49,883.907,950.718,889.222,950.718,893.458Zm4.853-14.4c-3.851-4.391-5.315-8.32-5.315-12.4,0-6.7,5.315-10.86,12.478-10.86,7.549,0,11.632,4.082,11.632,9.859,0,5.7-4.083,9.7-13.326,14.4l-1.232-2.157c5.546-3.542,9.628-7.164,9.628-12.093,0-4.544-2.927-7.318-6.778-7.318a7.056,7.056,0,0,0-7.087,7.242c0,2.772.616,5.16,3.466,8.78,3,3.7,5.315,6.162,10.091,11.4,6.085,6.624,10.707,11.554,18.794,20.181l-3.851-1.772,9.936,1.233-.308,3.235a22.537,22.537,0,0,1-5.777.77c-4,0-6.393-.924-8.858-3.543-5.083-5.623-8.858-9.937-12.863-14.4C961.733,886.3,959.191,883.214,955.571,879.055ZM985,877.9h3.543a57.362,57.362,0,0,1-9.936,22.184l-2.465-1.541A52.811,52.811,0,0,0,985,877.9Zm.847,1.849-7.317-1.155v-3.081h15.559v3.081l-6.7,1.155Z" fill="none" stroke="#000" stroke-miterlimit="10"/>
    <path d="M1013.261,860.8l3.467-3.852-2.465,13.711h-4.314l.617-13.711h42.056l.616,13.711h-4.313l-2.465-13.711,3.466,3.852Zm19.1,43.519,10.784,1.156v3.081H1020.04v-3.081l10.783-1.156Zm-4.236-23.493c0-7.933,0-15.944-.231-23.878h7.394c-.231,7.78-.231,15.79-.231,23.878v3.852c0,7.933,0,15.944.231,23.878H1027.9c.231-7.78.231-15.79.231-23.878Z" fill="none" stroke="#000" stroke-miterlimit="10"/>
    <path d="M1065.176,905.475l7.7-1.156h1.54l8.473,1.156v3.081h-17.716Zm22.954-48.912h4.622l17.715,51.993H1103.3l-15.482-46.139h1.771l-15.713,46.139h-3.62Zm-9.012,31.581h20.8l1.232,3.543h-23.262Zm15.174,17.331,9.705-1.156h1.541l9.551,1.156v3.081h-20.8Z" fill="none" stroke="#000" stroke-miterlimit="10"/>
    <path d="M1133.959,860.029v-3.081h21.567v3.081l-10.013,1.156h-1.54Zm11.554,44.29,10.013,1.156v3.081h-21.567v-3.081l10.014-1.156Zm-4.236-23.493c0-7.933,0-15.944-.231-23.878h7.394c-.231,7.78-.231,15.79-.231,23.878v3.852c0,7.933,0,15.944.231,23.878h-7.394c.231-7.78.231-15.79.231-23.878Z" fill="none" stroke="#000" stroke-miterlimit="10"/>
    <path d="M1177.863,860.029v-3.081h21.567v3.081l-10.013,1.156h-1.541Zm10.784,44.29v4.237h-10.784v-3.081l10.013-1.156Zm-3.7-47.371h7.395c-.231,7.934-.231,15.945-.231,23.878v5.392c0,6.548,0,14.558.231,22.338h-7.395c.231-7.934.231-15.945.231-23.878v-3.852C1185.18,872.738,1185.18,864.728,1184.949,856.948Zm31.966,37.127-.77,14.481h-27.5V904.7h24.8l-4.237,3.852,3.082-14.481Z" fill="none" stroke="#000" stroke-miterlimit="10"/>
    <path d="M1285.005,882.752c0,16.868-11.554,26.959-23.493,26.959s-23.57-9.4-23.57-26.959c0-16.869,11.708-26.959,23.57-26.959S1285.005,865.19,1285.005,882.752Zm-23.493,23.107c10.861,0,15.4-11.553,15.4-23.107s-4.544-23.108-15.4-23.108-15.482,11.554-15.482,23.108S1250.651,905.859,1261.512,905.859Z" fill="none" stroke="#000" stroke-miterlimit="10"/>
    <path d="M1305.646,860.029v-3.081h10.784v4.237h-.771Zm11.554,44.29,10.013,1.156v3.081h-21.567v-3.081l10.013-1.156Zm-4.237-23.493c0-7.933,0-15.944-.23-23.878h7.394c-.231,8.011-.231,15.559-.231,24.649v2.31c0,8.7,0,16.715.231,24.649h-7.394c.23-7.78.23-15.79.23-23.878Zm3.467.385h9.628c8.319,0,12.324-4.467,12.324-10.706,0-6.471-3.466-10.014-11.477-10.014H1316.43v-3.543h10.552c11.785,0,18.718,5.007,18.718,13.557,0,6.547-5.161,12.478-15.252,13.325l.231-.616c5.546.539,8.935,3.081,11.015,10.014l3.774,12.786-2.387-1.464,7.933.925v3.081a17.749,17.749,0,0,1-5.546.77c-4.775,0-6.855-1.232-7.779-4.776L1334.531,892c-1.541-6.239-4.391-7.317-10.784-7.317h-7.317Z" fill="none" stroke="#000" stroke-miterlimit="10"/>
    <path d="M1397.536,896.463c0-5.007-3-7.241-9.705-9.859l-2.927-1.156c-7.857-3.082-13.249-7.549-13.249-15.406,0-8.857,7.472-14.249,17.254-14.249a20.41,20.41,0,0,1,12.555,4.082L1401,869.889h-4.621l-2.157-11.631,4.929,2.542v3.85c-3.774-3.7-6.624-5.006-10.706-5.006-6.008,0-10.552,3-10.552,8.781,0,4.852,3.157,7.7,8.78,9.859l3,1.156c10.168,3.928,14.1,8.4,14.1,15.636,0,9.089-7.625,14.635-18.178,14.635a29.515,29.515,0,0,1-14.943-4.082l.462-10.784h4.621l2,11.862-5.007-2.157v-3.7c4.776,3.466,7.395,5.006,12.633,5.006C1392.684,905.859,1397.536,902.471,1397.536,896.463Z" fill="none" stroke="#000" stroke-miterlimit="10"/>
  </g>
</svg>
