<svg xmlns="http://www.w3.org/2000/svg" width="1920" height="1080" viewBox="0 0 1920 1080">
  <g>
    <rect x="557.96" y="434.67" width="554.66" height="210.66" fill="#fff"/>
    <g>
      <path d="M1212.972,568.438c0-4.62-2.1-7.56-12.6-8.4-31.921-2.52-46.832-9.45-46.832-31.711v-2.1c0-27.511,21.841-37.8,48.3-37.8,33.391,0,48.3,14.07,48.3,38.641v1.05h-37.8c0-6.72-3.57-10.71-10.5-10.71s-10.5,3.15-10.5,7.56c0,5.25,2.731,7.14,12.181,7.98,27.931,2.31,48.091,7.35,48.091,31.711v2.1c0,24.361-16.38,38.851-49.771,38.851-32.761,0-49.772-14.49-49.772-37.591v-1.05H1190.5c0,6.09,3.36,9.66,11.34,9.66C1210.242,576.628,1212.972,572.849,1212.972,568.438Z" fill="#fff"/>
      <path d="M1340.234,491.366v33.6h-26.671v32.551c0,12.6,6.09,14.911,14.911,14.911a43.048,43.048,0,0,0,9.66-1.261v31.5c-1.89,1.05-8.19,2.94-18.691,2.94-26.67,0-44.521-11.34-44.521-43.891V524.967h-16.8v-33.6h16.8v-31.5h38.641v31.5Z" fill="#fff"/>
      <path d="M1420.871,592.169c-7.77,8.19-18.9,13.44-33.6,13.44-26.251,0-34.651-16.59-34.651-34.441v-2.1c0-24.151,16.17-32.341,40.951-36.121l23.521-3.78c-.42-7.98-3.57-11.76-11.97-11.76-9.451,0-11.971,5.46-11.971,10.71h-36.331v-1.89c0-20.161,11.55-37.8,49.352-37.8,38.011,0,49.561,15.33,49.561,42.841v39.9l2.1,31.5h-34.861Zm-3.78-23.731v-17.01l-15.121,2.31c-9.03,1.47-10.92,5.46-10.92,10.5v1.26c0,4.41,2.94,9.03,10.92,9.03A22.808,22.808,0,0,0,1417.091,568.438Z" fill="#fff"/>
      <path d="M1542.88,488.636v39.481h-6.3c-12.6,0-19.951,4.2-22.471,7.35v67.2h-38.641v-79.8l-2.1-31.5h34.862l2.31,12.39c6.72-9.24,16.59-15.33,29.191-15.33A15.884,15.884,0,0,1,1542.88,488.636Z" fill="#fff"/>
    </g>
    <polygon points="465.099 380.551 465.099 463.011 406.791 404.703 361.692 449.802 420 508.11 337.54 508.11 337.54 571.89 420 571.89 361.692 630.198 406.791 675.297 465.099 616.989 465.099 699.449 528.879 699.449 528.879 380.551 465.099 380.551" fill="#fff"/>
  </g>
</svg>
