<svg xmlns="http://www.w3.org/2000/svg" width="1920" height="1080" viewBox="0 0 1920 1080">
  <rect width="1920" height="1094.539"/>
  <g>
    <g>
      <g>
        <path d="M609.049,437.611V389.388l-2.346-2.337h-66.97l-2.338,2.337v59.743l15.313,14.888v2.129H493.389v-2.129l15.3-14.888v-118l-15.3-14.871v-2.129h59.319v2.129L537.4,331.134v42.535l2.338,2.337H606.7l2.346-2.337V331.134l-15.312-14.871v-2.129h59.318v2.129l-15.312,14.871V466.148Z" fill="#fff"/>
        <path d="M774.549,449.131l-13.823-31.888h-55.7l-13.4,31.888,13.823,14.888v2.129H662.5v-2.129l17.009-14.888,57.406-139.9h10.629l57.622,139.9,17.217,14.888v2.129H761.15v-2.129ZM756.684,406.2l-21.9-53.165-1.272-10.4-1.273,7.219-23.18,56.35Z" fill="#fff"/>
        <path d="M845.865,331.134l-15.312-14.871v-2.129H907.1c17.641,0,52.091,5.747,52.091,42.31,0,26.141-21.267,39.332-42.743,42.95l15.313,2.13,40.821,73.765-25.3-9.141-19.77-16.584L893.914,400.45H876.905l-2.337,2.337v46.344l15.3,14.888v2.129H830.553v-2.129l15.312-14.888Zm28.7,55.917,2.337,2.337h22.748c17.649,0,30.832-9.989,30.832-31.663,0-21.692-13.607-32.529-30.832-32.529H876.905l-2.337,2.337Z" fill="#fff"/>
        <path d="M1054.515,468.693c-44.223,0-78.24-34.225-78.24-78.664,0-44.215,34.017-78.44,78.24-78.44s78.241,34.225,78.241,78.44C1132.756,434.468,1098.738,468.693,1054.515,468.693Zm0-146.059c-31.464,0-47.2,28.287-47.2,67.395,0,39.124,15.736,67.619,47.2,67.619s47.2-28.5,47.2-67.619C1101.716,350.921,1085.98,322.634,1054.515,322.634Z" fill="#fff"/>
        <path d="M1145.394,316.263v-2.129h59.318v2.129L1189.4,331.134V452.749l2.346,2.337h49.113l23.813-25.933h2.12l-5.314,37H1145.394v-2.129l15.312-14.888v-118Z" fill="#fff"/>
        <path d="M1275.794,466.148v-2.129l15.313-14.888v-118l-15.313-14.871v-2.129h74.632c46.135,0,76.959,31.888,76.959,76.12,0,44.006-30.824,75.894-76.959,75.894Zm44.016-13.4,2.337,2.337h24.66c35.507-.208,51.027-26.573,51.027-64.832,0-38.709-15.52-65.058-51.027-65.058h-24.66l-2.337,2.337Z" fill="#fff"/>
      </g>
      <g>
        <path d="M549.946,652.083c-20.627,0-44.439-6.8-56.557-21.466V588.739h6.587c6.6,27.422,18.922,52.3,48.906,52.3,21.051,0,27.638-15.1,27.638-30.624,0-35.507-79.305-18.281-79.305-75.48,0-29.118,30.832-39.955,53.58-39.955,14.247,0,28.7,2.545,41.669,9.764v35.091h-4.89c-2.978-19.77-16.793-33.81-35.931-33.81-13.815,0-26.149,8.084-26.149,24.444,0,35.506,79.937,21.9,79.937,73.991C605.431,631.465,583.964,652.083,549.946,652.083Z" fill="#fff"/>
        <path d="M665.035,526.454v30.605l2.337,2.337h66.971l2.346-2.337V514.524l-15.313-14.871v-2.129H780.7v2.129l-15.312,14.871V632.538L780.7,647.409v2.129H721.376v-2.129l15.313-14.871v-59.76l-2.346-2.337H667.372l-2.337,2.337v59.76l15.312,14.871v2.129H621.029v-2.129l15.3-14.871V497.524Z" fill="#fff"/>
        <path d="M902.189,632.538l-13.823-31.9h-55.7l-13.4,31.9,13.823,14.871v2.129h-42.95v-2.129l17.008-14.871,57.406-139.914h10.63l57.622,139.914,17.217,14.871v2.129H888.79v-2.129Zm-17.866-42.95-21.9-53.165-1.272-10.4-1.273,7.219-23.18,56.35Z" fill="#fff"/>
        <path d="M973.505,514.524l-15.312-14.871v-2.129h76.544c17.64,0,52.091,5.73,52.091,42.31,0,26.14-21.268,39.332-42.743,42.95L1059.4,584.9l40.821,73.783-25.3-9.141-19.77-16.584-33.593-49.114h-17.009l-2.337,2.337v46.361l15.3,14.871v2.129H958.193v-2.129l15.312-14.871Zm28.7,55.917,2.337,2.337h22.748c17.649,0,30.832-9.989,30.832-31.663,0-21.692-13.607-32.529-30.832-32.529h-22.748l-2.337,2.337Z" fill="#fff"/>
        <path d="M1173.222,497.524c23.813,0,58.471,6.6,58.471,45.7,0,39.124-34.658,45.928-58.471,45.928h-19.986l-2.337,2.337v41.046l15.312,14.871v2.129h-59.319v-2.129l15.3-14.871V514.524l-15.3-14.871v-2.129ZM1150.9,575.756l2.337,2.354h12.975c24.236,0,36.779-9.366,36.779-34.883,0-25.5-12.543-34.641-36.779-34.641h-12.975l-2.337,2.337Z" fill="#fff"/>
      </g>
    </g>
    <g>
      <path d="M492.615,768.8V692.448h25.742c16.471,0,27.488,6.981,27.488,23.561s-11.454,23.56-27.488,23.56H502V768.8ZM502,699.975v32.068h16.143c10.472,0,18-3.489,18-16.034,0-12.216-7.526-16.034-18-16.034Z" fill="#c8c3a6"/>
      <path d="M576.961,768.8V692.448H604.12c16.471,0,27.378,6.545,27.378,22.8,0,10.906-5.89,17.887-14.616,21.052l17.562,32.5h-10.8l-15.817-30.651c-1.2.11-2.508.11-3.708.11H586.34V768.8Zm9.379-68.828v30.977h17.453c10.471,0,18-3.27,18-15.489,0-12.106-7.526-15.488-18-15.488Z" fill="#c8c3a6"/>
      <path d="M661.739,733.027v-4.8c0-26.942,13.635-37.741,33.814-37.741,20.724,0,33.6,11.454,33.6,37.741v4.8c0,26.94-13.525,37.738-33.814,37.738C674.61,770.765,661.739,759.314,661.739,733.027Zm57.375,0v-4.8c0-23.124-9.926-30-23.561-30-13.744,0-23.67,6.874-23.67,30v4.8c0,23.124,9.926,30,23.561,30S719.114,756.151,719.114,733.027Z" fill="#c8c3a6"/>
      <path d="M762.005,768.8V692.448h25.744c16.47,0,27.486,6.981,27.486,23.561s-11.452,23.56-27.486,23.56H771.386V768.8Zm9.381-68.828v32.068H787.53c10.471,0,18-3.489,18-16.034,0-12.216-7.526-16.034-18-16.034Z" fill="#c8c3a6"/>
      <path d="M866.748,768.8V700.194H839.915v-7.746h63.047v7.746H876.239V768.8Z" fill="#c8c3a6"/>
      <path d="M933.968,768.8V692.448h51.265v7.636H943.457v25.307h38.832v7.636H943.457v28.14h43.2V768.8Z" fill="#c8c3a6"/>
      <path d="M1015.149,733.9v-4.473c0-25.2,13.854-38.284,34.9-38.284a49.092,49.092,0,0,1,21.271,4.47l-1.526,7.527a40.366,40.366,0,0,0-18.981-4.254c-14.725,0-25.523,9.053-25.523,30.651v4.254c0,20.4,10.47,28.578,25.414,28.578a45.773,45.773,0,0,0,20.4-4.689l1.527,7.526c-5.452,2.834-13.2,4.909-23.122,4.909C1028.348,770.113,1015.149,758.114,1015.149,733.9Z" fill="#c8c3a6"/>
      <path d="M1104.945,768.8V692.448h9.818v32.723h42.105V692.448h9.708V768.8h-9.708V732.917h-42.105V768.8Z" fill="#c8c3a6"/>
    </g>
  </g>
</svg>
