<svg xmlns="http://www.w3.org/2000/svg" width="1920" height="1080" viewBox="0 0 1920 1080">
  <rect width="1920" height="1094.539"/>
  <g>
    <path d="M532,497.627l-37.037,2.751v-4.6q24.872-10.581,38.133-25.548,13.269-14.952,13.278-39.819V398.651q0-30.377-17.693-44.191-17.709-13.809-51.967-13.809H426.967V676.692H476.71q38.141,0,58.05-13.809,19.891-13.809,19.9-44.191V565.745Q554.66,511.45,532,497.627ZM468.419,371.945h4.432q18.224,0,25.149,8.062,6.893,8.07,6.9,30.151v47.881q0,12.889-5.527,21.176t-20.44,13.809L468.419,496.7Zm44.772,235.24q0,22.082-8.846,30.15-8.831,8.049-31.494,8.049h-4.432V511.436a28.239,28.239,0,0,1,15.486-4.6q29.286,0,29.286,30.382Zm203.343-55.7H708.8l-1.668,80.551c-.359,7.068-1.292,11.82-2.763,14.272a7.2,7.2,0,0,1-6.623,3.677q-5.543,0-8.568-5.284-3.042-5.29-3.042-22.334V433.636q0-17.957-12.166-27.849t-35.926-9.9a55.452,55.452,0,0,0-30.954,9.437,69.774,69.774,0,0,0-22.664,23.941q-8.29,14.5-8.291,29.225,0,40.976,14.374,69.52h53.063q-32.624-27.168-43.661-43.278-11.061-16.1-11.054-31.3,0-12.889,7.735-19.569,7.726-6.659,28.191-6.673,13.809,0,18.233,3.677c2.943,2.465,4.431,7.367,4.431,14.735V530.76l-9.959,7.83q-22.663,17.506-33.718,27.618a77.874,77.874,0,0,0-17.137,22.1q-6.082,11.97-6.083,28.544v31.757q0,32.683,32.067,32.684,11.6,0,19.344-5.979,7.726-5.985,13.818-23.246,6.082-17.282,9.958-50.414l5.527.926q-2.231,26.7-2.207,34.059,0,25.779,6.623,35.216,6.647,9.438,21.552,9.438,18.249,0,24.888-13.346,6.622-13.359,6.066-37.75Zm-69.088,25.779q0,32.214-4.987,51.327-4.954,19.1-13.818,19.092-9.394,0-9.386-11.044V590.612q0-15.648,5.527-26.011t22.664-24.172Zm195.436-135.8q0,35.441-11.054,83.779H789.82a94.585,94.585,0,0,0,5.527-9.669q22.1-38.668,29.859-53.4,7.726-14.728,7.734-20.25,0-11.97-14.929-11.97-9.394,0-17.693,8.279t-13.818,24.4q-5.518,16.118-5.527,38.2V676.692H742.284v-276.2h38.15v5.066l-12.166,69.97,5.527.926q5.519-33.153,12.166-50.646,6.622-17.485,14.1-23.695a27.079,27.079,0,0,1,17.955-6.224Q842.882,395.886,842.882,441.466Zm187.233,205.315,49.849-14.919v44.81h-.029v.028H963.311v-.028h-.522l-.033.028,69.087-302.445-3.3-3.677H990.8l-40.191,14.913v-44.81h24.85v-.022H1075.52l-69.1,302.431,3.319,3.691ZM1162.84,395.894q-26.514,0-42.565,15.2-16.016,15.177-16.025,47.405V627.443q0,29.007,12.444,41.426,12.436,12.441,38.411,12.434,27.079,0,40.9-21.408t12.722-55.467l-1.668-55.235h-7.735l-1.651,53.86Q1196,649.994,1172.8,650q-13.833,0-21.846-7.817-8-7.824-8.012-30.382V523.864h66.34V450.217q0-29.007-11.332-41.658T1162.84,395.894ZM1176.1,517.422H1142.94V453.894q0-13.809,3.319-20.25t12.722-6.442q9.394,0,13.261,7.368t3.86,30.831Zm63.451-176.763h38.689V676.7h-38.689ZM1347.2,676.7h-38.689V340.659H1347.2Zm27.346-200.513h43.775V676.7H1374.55Zm71.12-75.69h38.69V635.273q0,32.683-19.9,56.611T1410.3,728.489q-34.266,12.645-76.283,12.652a258.431,258.431,0,0,1-45.328-3.664V701.1q13.269,4.6,34,6.673t55.548,2.07q27.105,0,41.453-2.3,14.373-2.308,20.178-7.6t5.805-14.966ZM1369.538,437.9c-.228-2.088-.114-21.737,0-23.349s0-7.026,0-8.924.341-6.645.912-6.645h25.988c3.188,0,12.651.666,14.7.476s10.716,0,11.461.379-.177,14.714,0,16.231.089,4.326.089,5.367.192,3.46.163,4.98.37,8.066.256,10.63a35.834,35.834,0,0,0,.1,4.983c.05.946-13.287.387-14.881.387s-7.439-.151-9.6-.053-7.41-.1-8.663-.1-18.009-.189-19.49-.189S1369.765,439.99,1369.538,437.9Zm123.495-63.31c.05.946-13.286.387-14.88.387s-7.439-.151-9.605-.053-7.41-.1-8.664-.1-18.009-.189-19.49-.189-.8-2.088-1.026-4.175-.113-21.737,0-23.349,0-7.026,0-8.924.341-6.645.913-6.645h25.987c3.189,0,12.651.666,14.7.476s10.716,0,11.462.379-.178,14.714,0,16.231.088,4.326.088,5.367.192,3.46.164,4.98.369,8.066.255,10.63A36.149,36.149,0,0,0,1493.033,374.593Z" fill="#fff"/>
    <g>
      <path d="M432.162,703.5h6.984L451.9,730.279,464.257,703.5h6.926v34.378h-5.021V708.931l-13.681,28.945h-1.558L436.78,708.931v28.945h-4.618Z" fill="#fff"/>
      <path d="M496.871,720.9v-.384c0-9.761,8.2-17.454,20.319-17.454s20.146,7.693,20.146,17.358v.384c0,9.713-8.024,17.5-20.031,17.5C505.126,738.308,496.871,730.52,496.871,720.9Zm35.269-.144v-.384c0-7.693-5.425-13.944-14.95-13.944-9.582,0-15.124,5.866-15.124,14.04v.384c0,8.318,6.639,13.992,15.239,13.992C526.483,734.847,532.14,729.077,532.14,720.759Z" fill="#fff"/>
      <path d="M563.024,703.5h12.41c7.909,0,14.431,2.693,14.431,9.568v.193c0,5.673-4.56,8.462-10.217,9.375l12.642,15.242h-5.6l-12.3-14.953h-6.349v14.953h-5.022Zm12.757,16.107c5.888,0,9.063-2.115,9.063-6.346v-.193c0-4.664-3.464-6.2-9.063-6.2h-7.735v12.741Z" fill="#fff"/>
      <path d="M616.593,703.5H629c7.908,0,14.43,2.693,14.43,9.568v.193c0,5.673-4.559,8.462-10.216,9.375l12.641,15.242h-5.6l-12.295-14.953h-6.35v14.953h-5.021Zm12.756,16.107c5.888,0,9.063-2.115,9.063-6.346v-.193c0-4.664-3.464-6.2-9.063-6.2h-7.735v12.741Z" fill="#fff"/>
      <path d="M667.563,720.9v-.384c0-9.761,8.2-17.454,20.32-17.454s20.145,7.693,20.145,17.358v.384c0,9.713-8.023,17.5-20.03,17.5C675.818,738.308,667.563,730.52,667.563,720.9Zm35.27-.144v-.384c0-7.693-5.426-13.944-14.95-13.944-9.582,0-15.124,5.866-15.124,14.04v.384c0,8.318,6.638,13.992,15.239,13.992C697.176,734.847,702.833,729.077,702.833,720.759Z" fill="#fff"/>
      <path d="M731.7,720.9v-.384c0-10.193,8.2-17.55,19.4-17.55,8.6,0,15.874,3.8,16.739,11.251h-4.964c-1.039-5.24-4.676-7.933-11.718-7.933-8.544,0-14.258,5.529-14.258,14.184v.384c0,8.751,5.311,14.04,14.2,14.04,6.753,0,11.428-2.837,12.467-8.414h4.676c-1.443,7.933-8.023,11.827-17.26,11.827C739.027,738.308,731.7,731.481,731.7,720.9Z" fill="#fff"/>
      <path d="M803.39,703.5h6.58l13.97,34.378h-4.965l-4.041-9.9H797.906l-3.982,9.9H789.19Zm-4.1,21.156h14.315l-7.158-17.694Z" fill="#fff"/>
      <path d="M848.531,703.5h6.522l20.089,28.416V703.5h4.791v34.378h-5.772L853.322,708.4v29.474h-4.791Z" fill="#fff"/>
      <path d="M938.236,720.9v-.384c0-10.193,8.2-17.55,19.4-17.55,8.6,0,15.874,3.8,16.739,11.251h-4.964c-1.039-5.24-4.676-7.933-11.718-7.933-8.544,0-14.258,5.529-14.258,14.184v.384c0,8.751,5.311,14.04,14.2,14.04,6.753,0,11.428-2.837,12.467-8.414h4.676c-1.443,7.933-8.023,11.827-17.26,11.827C945.567,738.308,938.236,731.481,938.236,720.9Z" fill="#fff"/>
      <path d="M999.367,725.327V703.5h5.021v21.348c0,7.212,3.06,10,9.929,10,6.581,0,10.506-2.212,10.506-10.626V703.5h5.022v21.3c0,8.366-5.022,13.51-15.643,13.51C1004.735,738.308,999.367,733.693,999.367,725.327Z" fill="#fff"/>
      <path d="M1057.5,703.5h5.022v34.378H1057.5Z" fill="#fff"/>
      <path d="M1088.09,727.394h4.849c.635,4.087,2.6,7.549,10.909,7.549,5.311,0,9.41-2.6,9.41-6.491s-2.136-5.529-9.987-6.587c-8.658-1.106-13.8-3.366-13.8-9.472,0-5.289,5.485-9.328,13.277-9.328,8.255,0,13.392,3.366,14.2,9.472h-4.5c-.981-4.327-3.983-6.106-9.7-6.106-5.657,0-8.6,2.356-8.6,5.578,0,3.365,1.5,5.1,9.929,6.154,9.178,1.2,14.026,3.51,14.026,10,0,5.769-6.06,10.144-14.258,10.144C1092.823,738.308,1088.841,733.26,1088.09,727.394Z" fill="#fff"/>
      <path d="M1144.314,703.5h5.023v34.378h-5.023Z" fill="#fff"/>
      <path d="M1177.333,703.5h6.522l20.089,28.416V703.5h4.791v34.378h-5.772L1182.124,708.4v29.474h-4.791Z" fill="#fff"/>
      <path d="M1236.443,703.5h24.07v3.414h-19.048V718.6h15.354v3.414h-15.354v12.453h20.088v3.414h-25.11Z" fill="#fff"/>
    </g>
  </g>
</svg>
