<?xml version="1.0" encoding="utf-8"?>
<!-- Generator: Adobe Illustrator 27.2.0, SVG Export Plug-In . SVG Version: 6.00 Build 0)  -->
<svg version="1.1" id="Layer_1" xmlns="http://www.w3.org/2000/svg" xmlns:xlink="http://www.w3.org/1999/xlink" x="0px" y="0px"
	 viewBox="0 0 32 27.5" style="enable-background:new 0 0 32 27.5;" xml:space="preserve">
<style type="text/css">
	.st0{fill:url(#SVGID_1_);}
</style>
<linearGradient id="SVGID_1_" gradientUnits="userSpaceOnUse" x1="16" y1="27.5" x2="16" y2="-1.818989e-12">
	<stop  offset="0" style="stop-color:#DC4F25;stop-opacity:0"/>
	<stop  offset="1" style="stop-color:#DC4F25"/>
</linearGradient>
<path class="st0" d="M28.1,6.1c0-0.8-0.1-1.9-0.1-1.9s-0.1,0.6-0.2,0.3c0-0.1,0-0.3,0-0.5c0,0-0.1,0.3-0.2-0.1c-0.1-0.3,0-0.8-0.1-1
	c0,0,0,0.3-0.2,0.5c0,0-0.6-1.6-0.9-1.8c0,0,0.1,0.1,0,0.5c-1.2-1.5-2.8-2.4-3.4-2c-1.1,0.6,2,3.4,2.6,5.7c0.6,2.1-0.6,5.8-1.2,7
	c-0.1-0.3-0.2-0.5-0.3-0.7c-0.2-0.4-0.4-0.7-0.6-1.1c0.2,0,0.6,0,0.6,0c-0.4-0.5-1.8-1.7-1.8-1.7c0.4,0.1,0.9,0.4,0.9,0.4
	c-0.8-1.4-2.7-2.2-3-2.4c0,0,0,0,0,0c0.5-0.1,0.8-0.1,0.8-0.1c-0.8-0.4-1.9-0.7-2.3-0.8c0,0-0.1,0-0.1-0.1C18.8,6.1,19.4,6,19.4,6
	c-0.9-0.2-2-0.1-2-0.1c0-0.1,0.3-0.4,0.3-0.4c-0.4,0-0.9,0.3-1.2,0.4c-0.1,0-0.1,0-0.2,0c0,0,0,0,0-0.1c0-0.3,0.4-0.5,0.4-0.5
	c-0.4,0-0.9,0.3-0.9,0.3c0.1-0.2,0.9-0.6,0.9-0.6c-2.1-0.1-3.8,1.6-3.8,1.6c-0.1-0.2,0.1-0.7,0.1-0.7c-0.2,0.1-0.3,0.6-0.3,0.6
	c0-0.2,0.2-0.8,0.2-0.8c-0.4,0.2-1.4,1.7-1.4,1.7c0-0.1,0-0.4,0-0.4c-0.2,0.3-0.7,1.5-0.7,1.5c0-0.2,0-0.7,0-0.7
	c-0.1,0.2-0.1,0.5-0.1,0.5c-0.1-0.2,0.1-0.7,0.1-0.7C10,8,9.2,9.8,8.7,11.2c0,0,0,0,0,0c-0.4-0.4-0.9-0.7-1.3-0.9
	c-0.2-0.1-0.4,0.1-0.3,0.3c0.2,0.4,0.5,1,0.6,1.7c-0.6,0.2-1.4,0.4-2,0.8c-0.4-0.3-0.8-0.8-1-1.4c-0.1-0.2-0.3-0.2-0.4,0
	c-0.4,0.9-0.8,2.6,0,4c1.2,2.1,3.3,2.4,4.1,2.1c1.1,1.6,3,3.2,3,4.7c0,1.8-0.4,3.1-1,4c-1.4-0.3-1.2,1.1-1.2,1.1h2.3
	c0.3,0,0.3-0.1,0.7-0.9c0.1-0.1,0.1-0.3,0.2-0.4l0.4,0.4c0.2,0.1,0-0.7-0.1-1.3c0-0.1,0-0.1,0-0.2c0.1,0.1,0.3,0.1,0.3,0.1
	c0-0.1-0.1-0.6-0.1-1.1c0.1-0.5,0.1-1.1,0.1-1.6c0-1.8-1.7-4.1,0-5.2c0.8-0.6,2.8,3.7,2.8,4.9s-0.6,3.7-1.1,4.2
	c-1.4-0.3-1.2,1.1-1.2,1.1h2.3c0.4,0,0.4-0.2,0.7-0.9c0.3-0.6,1-3,1-4.7c0-0.8-0.2-1.6-0.6-2.5l0.5,0.1c0.2,0-0.4-0.6-0.9-1
	c0-0.1,0-0.1,0.1-0.2c0.1,0,0.2,0,0.2,0c-0.1-0.1-0.4-0.4-0.8-0.9c-1.2-2.5-2.1-4.8,1.1-5.7c3.8-1,1.3,2.6,1.3,9.4
	c0,2.1,0.9,4.2,0.9,5c-1.4-0.3-1.2,1.1-1.2,1.1h2.3c0.7,0,0.8-0.1,0.7-0.9c0-0.3-0.2-0.8-0.4-1.4l0.4,0.2c0.2,0-0.3-0.9-0.7-1.3
	c0,0,0,0,0-0.1c0.2,0,0.3,0,0.3,0c-0.1-0.1-0.4-0.7-0.7-1.4c-0.1-0.4-0.1-0.7-0.1-1.1c0-1.7,0.5-6.9,3.3-5.5c0.9,0.5-1.1,3-1.1,5.2
	c0,2.3,1.6,4.1,1.6,4.6c0,0.3,0,0.2-0.4,0.1c-1.1,0-0.9,1.2-0.9,1.2h2.3c0.4,0,0.5,0.1,0.7-0.9c0.2-0.9-1.9-3.4-1.6-4.9
	c0-0.1,0.1-0.3,0.1-0.5l0.4,0.4c0.2,0.1,0-0.8-0.1-1.3c0-0.1,0-0.1,0.1-0.2c0.1,0.1,0.3,0.1,0.3,0.1c0-0.1-0.1-0.4-0.1-0.8
	c0.4-1.3,0.9-2.9,1.1-3.8C26.3,13.4,28.1,10.2,28.1,6.1C28.1,6.2,28.1,6.2,28.1,6.1L28.1,6.1z"/>
</svg>
