<svg xmlns="http://www.w3.org/2000/svg" width="1920" height="1080" viewBox="0 0 1920 1080">
  <g>
    <g>
      <path d="M324.205,904.71,302.22,815.622h12.472l14.528,64.723,1.158,12.62,1.027-12.62,14.272-64.723h12.472L336.42,904.71Z" fill="#fff"/>
      <path d="M367.793,899.649q-6.043-6.185-6.043-18.553V856.855q0-12.371,6.558-18.742t17.486-6.373q11.057,0,17.55,6.435t6.493,18.68V881.1q0,12.12-6.428,18.429t-17.615,6.31Q373.836,905.835,367.793,899.649Zm26.938-8.058q2.891-3.75,2.892-10.745V856.98q0-7.5-2.957-11.245t-8.872-3.749q-5.916,0-8.872,3.749t-2.956,11.245v23.866q0,6.873,2.956,10.683t8.872,3.81Q391.836,895.339,394.731,891.591Z" fill="#fff"/>
      <path d="M427.451,899.649q-6.043-6.185-6.043-18.553V856.855q0-12.371,6.558-18.742t17.485-6.373q11.056,0,17.551,6.435t6.493,18.68V881.1q0,12.12-6.429,18.429t-17.615,6.31Q433.495,905.835,427.451,899.649Zm26.937-8.058q2.892-3.75,2.893-10.745V856.98q0-7.5-2.957-11.245t-8.873-3.749q-5.915,0-8.871,3.749t-2.957,11.245v23.866q0,6.873,2.957,10.683t8.871,3.81Q451.493,895.339,454.388,891.591Z" fill="#fff"/>
      <path d="M482.352,904.71V832.74h9.257l1.93,13.62a44.382,44.382,0,0,1,.963-5.123,11.775,11.775,0,0,1,1.607-3.749,9.244,9.244,0,0,1,5.272-4.123,29.316,29.316,0,0,1,8.871-1.124h2.316v12.618h-4.115a26.531,26.531,0,0,0-5.143.438,12.577,12.577,0,0,0-3.729,1.312,9.116,9.116,0,0,0-4.243,5.5,34.379,34.379,0,0,0-1.157,9.871V904.71Z" fill="#fff"/>
      <path d="M564.767,843.61l-.129,61.1H553.2v-61.1h-9.258V832.74H553.2v-5q0-10.62,4.307-14.682T570.939,809h5.915v10.372H572.61q-5.014,0-6.429,1.749t-1.414,7.247v4.373h12.087v10.87Z" fill="#fff"/>
      <path d="M586.11,904.71V812.623h11.829V904.71Z" fill="#fff"/>
      <path d="M645.769,893.464a19.894,19.894,0,0,1-7.135,8.935,19.338,19.338,0,0,1-11.123,3.186q-8.485,0-13.179-4.374t-4.694-12.994v-2.623a18.37,18.37,0,0,1,1.8-8.5,20.344,20.344,0,0,1,4.629-6,22.393,22.393,0,0,1,6.364-3.873q3.664-1.5,10.094-3.873,2.7-1,4.692-1.812t3.408-1.562a9.715,9.715,0,0,0,3.856-3.186,8.168,8.168,0,0,0,1.029-4.311v-.75q0-5.122-2.7-7.684t-8.229-2.561q-5.527,0-8.549,2.811a9.98,9.98,0,0,0-3.023,7.684v7.747h-11.7v-8.122q0-9,5.979-14.307t17.293-5.309q11.573,0,16.973,5.309t5.4,15.182V904.71H647.44Zm-3.857-2.186q3.6-4.808,3.6-12.432V864.977a8.381,8.381,0,0,1-3.343,2.624q-2.313,1.125-6.428,2.623a33.3,33.3,0,0,0-6.75,3,17.949,17.949,0,0,0-3.922,3.249,12.031,12.031,0,0,0-1.993,3.811,17.907,17.907,0,0,0-.707,5.436v1.249a8.544,8.544,0,0,0,2.7,6.684,10.34,10.34,0,0,0,7.2,2.437A11.44,11.44,0,0,0,641.912,891.278Z" fill="#fff"/>
      <path d="M682.668,904.71H670.711V832.74h9.772l1.414,12.244a18.361,18.361,0,0,1,5.786-9.682q4.115-3.437,10.8-3.436,9.384,0,13.95,5.809T717,854.232V904.71H704.912V855.856q0-6.622-2.25-10.121t-8.036-3.5q-5.916,0-8.935,4.061t-3.023,11.557Z" fill="#fff"/>
      <path d="M766.756,892.59a19.128,19.128,0,0,1-5.593,9.434q-4.05,3.687-11.251,3.686-9.642,0-15.171-6.56t-5.53-20.679V858.229q0-13.367,5.723-19.866t15.364-6.5a16.974,16.974,0,0,1,10.029,2.811,17.314,17.314,0,0,1,6.044,7.934V812.623h11.572V904.71h-9.516Zm-3.6-1.687q3.212-4.433,3.214-11.807V857.729q0-7-3.151-11.432t-9.321-4.435q-6.171,0-9.322,4.31t-3.15,12.433v19.366q0,9.121,3.343,13.245a10.846,10.846,0,0,0,8.871,4.123Q759.941,895.339,763.157,890.9Z" fill="#fff"/>
      <path d="M792.471,904.71V832.74h9.256l1.929,13.62a44.571,44.571,0,0,1,.965-5.123,11.708,11.708,0,0,1,1.607-3.749,9.238,9.238,0,0,1,5.272-4.123,29.314,29.314,0,0,1,8.872-1.124h2.314v12.618h-4.115a26.531,26.531,0,0,0-5.143.438,12.58,12.58,0,0,0-3.728,1.312,9.112,9.112,0,0,0-4.243,5.5,34.375,34.375,0,0,0-1.158,9.871V904.71Z" fill="#fff"/>
      <path d="M833.486,824.68q-1.673-1.809-1.672-6.559t1.864-6.56q1.865-1.81,5.85-1.812,4.114,0,5.915,1.812t1.8,6.56q0,4.623-1.865,6.5t-5.85,1.873Q835.157,826.492,833.486,824.68Zm-.258,80.03V832.74h11.959v71.97Z" fill="#fff"/>
      <path d="M905.421,888.28a28.607,28.607,0,0,1-1.478,5.685,16.78,16.78,0,0,1-7.007,8.622q-5.082,3.247-14.723,3.248-12.472,0-18.257-6.435t-5.786-18.18V857.23q0-11.868,6.429-18.679t17.872-6.811a33.153,33.153,0,0,1,7.65.812,17.978,17.978,0,0,1,5.979,2.562,18.713,18.713,0,0,1,7.458,8.809,31.729,31.729,0,0,1,2.314,12.307V872.6H869.741v8.372q0,7.122,2.894,10.745t9.707,3.623q6.685,0,9.065-3.435a14.92,14.92,0,0,0,2.378-8.685v-2.5h12.087V882.1A40.792,40.792,0,0,1,905.421,888.28Zm-35.68-25.427h24.3v-7.122q0-6.747-2.572-10.246t-9-3.5q-6.3,0-9.514,3.686t-3.216,11.058Z" fill="#fff"/>
      <path d="M929.787,904.71H917.829V832.74H927.6l1.415,12.244A18.368,18.368,0,0,1,934.8,835.3q4.113-3.437,10.8-3.436,9.384,0,13.95,5.809t4.564,16.557V904.71H952.03V855.856q0-6.622-2.25-10.121t-8.036-3.5q-5.916,0-8.936,4.061t-3.021,11.557Z" fill="#fff"/>
      <path d="M979.866,900.9q-5.594-4.935-5.594-14.932v-7.247h12.6v6.5q0,5.373,2.507,7.871t8.422,2.5q5.142,0,7.844-2.561a9.428,9.428,0,0,0,2.7-7.185v-1.75a9.455,9.455,0,0,0-.514-3.186,7.554,7.554,0,0,0-1.543-2.561,17.119,17.119,0,0,0-5.465-3.624q-3.408-1.5-7.264-2.873-2.187-.873-4.308-1.811t-4.178-2.062a19,19,0,0,1-6.943-5.81q-2.7-3.684-2.7-9.809v-1.749a18.036,18.036,0,0,1,5.528-13.494q5.529-5.373,16.2-5.374,10.927,0,16.393,5.124t5.464,13.744v5.372h-11.828v-5.247a9.163,9.163,0,0,0-2.378-6.685q-2.382-2.437-7.651-2.436-5.144,0-7.521,2.561a8.916,8.916,0,0,0-2.379,6.31v1.249a7.608,7.608,0,0,0,.514,2.811,6.453,6.453,0,0,0,1.543,2.312,15.379,15.379,0,0,0,5.207,3.374q3.279,1.375,7.008,2.749,2.186.875,4.371,1.811t4.372,2.061a20.867,20.867,0,0,1,7.071,6.061q2.827,3.813,2.829,10.308v2.624q0,9.248-5.721,14.619t-16.909,5.373Q985.459,905.835,979.866,900.9Z" fill="#fff"/>
      <path d="M1034.83,903.9q-1.8-1.937-1.8-7.06t1.928-6.934q1.929-1.811,6.043-1.812t6.108,1.812q1.99,1.814,1.992,6.934,0,5-1.992,7t-6.108,2Q1036.63,905.835,1034.83,903.9Z" fill="#fff"/>
      <path d="M1108.63,904.71l-21.986-89.088h12.472l14.528,64.723,1.158,12.62,1.028-12.62,14.272-64.723h12.472l-21.73,89.088Z" fill="#fff"/>
      <path d="M1152.218,899.649q-6.045-6.185-6.044-18.553V856.855q0-12.371,6.559-18.742t17.485-6.373q11.056,0,17.551,6.435t6.493,18.68V881.1q0,12.12-6.429,18.429t-17.615,6.31Q1158.262,905.835,1152.218,899.649Zm26.937-8.058q2.892-3.75,2.892-10.745V856.98q0-7.5-2.956-11.245t-8.873-3.749q-5.915,0-8.871,3.749t-2.957,11.245v23.866q0,6.873,2.957,10.683t8.871,3.81Q1176.26,895.339,1179.155,891.591Z" fill="#fff"/>
      <path d="M1211.875,899.649q-6.043-6.185-6.043-18.553V856.855q0-12.371,6.559-18.742t17.485-6.373q11.057,0,17.55,6.435t6.493,18.68V881.1q0,12.12-6.428,18.429t-17.615,6.31Q1217.918,905.835,1211.875,899.649Zm26.938-8.058q2.89-3.75,2.892-10.745V856.98q0-7.5-2.957-11.245t-8.872-3.749q-5.915,0-8.872,3.749t-2.956,11.245v23.866q0,6.873,2.956,10.683t8.872,3.81Q1235.918,895.339,1238.813,891.591Z" fill="#fff"/>
      <path d="M1266.776,904.71V832.74h9.257l1.929,13.62a44.369,44.369,0,0,1,.964-5.123,11.73,11.73,0,0,1,1.607-3.749,9.238,9.238,0,0,1,5.272-4.123,29.314,29.314,0,0,1,8.872-1.124h2.314v12.618h-4.115a26.546,26.546,0,0,0-5.143.438,12.58,12.58,0,0,0-3.728,1.312,9.112,9.112,0,0,0-4.243,5.5,34.41,34.41,0,0,0-1.158,9.871V904.71Z" fill="#fff"/>
      <path d="M1354.334,866.476l-8.743,12.994v25.24h-11.572V812.623h11.572v50.1l-.385,5.5,1.8-4,21.085-31.487h13.63l-18.515,26.739,19.415,45.231h-12.729Z" fill="#fff"/>
      <path d="M1393.42,899.649q-6.043-6.185-6.043-18.553V856.855q0-12.371,6.558-18.742t17.486-6.373q11.056,0,17.55,6.435t6.493,18.68V881.1q0,12.12-6.428,18.429t-17.615,6.31Q1399.463,905.835,1393.42,899.649Zm26.938-8.058q2.891-3.75,2.892-10.745V856.98q0-7.5-2.957-11.245t-8.872-3.749q-5.916,0-8.872,3.749t-2.956,11.245v23.866q0,6.873,2.956,10.683t8.872,3.81Q1417.463,895.339,1420.358,891.591Z" fill="#fff"/>
      <path d="M1494.286,888.28a28.607,28.607,0,0,1-1.478,5.685,16.78,16.78,0,0,1-7.007,8.622q-5.082,3.247-14.723,3.248-12.473,0-18.258-6.435t-5.785-18.18V857.23q0-11.868,6.429-18.679t17.872-6.811a33.153,33.153,0,0,1,7.65.812,17.978,17.978,0,0,1,5.979,2.562,18.713,18.713,0,0,1,7.458,8.809,31.747,31.747,0,0,1,2.314,12.307V872.6h-36.131v8.372q0,7.122,2.894,10.745t9.707,3.623q6.685,0,9.065-3.435a14.92,14.92,0,0,0,2.378-8.685v-2.5h12.087V882.1A40.792,40.792,0,0,1,1494.286,888.28Zm-35.68-25.427h24.3v-7.122q0-6.747-2.572-10.246t-9-3.5q-6.3,0-9.514,3.686t-3.216,11.058Z" fill="#fff"/>
      <path d="M1506.7,904.71V832.74h9.256l1.929,13.62a44.571,44.571,0,0,1,.965-5.123,11.708,11.708,0,0,1,1.607-3.749,9.238,9.238,0,0,1,5.272-4.123,29.312,29.312,0,0,1,8.871-1.124h2.314v12.618H1532.8a26.531,26.531,0,0,0-5.143.438,12.58,12.58,0,0,0-3.728,1.312,9.112,9.112,0,0,0-4.243,5.5,34.375,34.375,0,0,0-1.158,9.871V904.71Z" fill="#fff"/>
      <path d="M1548.546,900.9q-5.6-4.935-5.594-14.932v-7.247h12.6v6.5q0,5.373,2.508,7.871t8.421,2.5q5.142,0,7.844-2.561a9.428,9.428,0,0,0,2.7-7.185v-1.75a9.43,9.43,0,0,0-.514-3.186,7.536,7.536,0,0,0-1.542-2.561,17.13,17.13,0,0,0-5.465-3.624q-3.408-1.5-7.265-2.873-2.186-.873-4.307-1.811t-4.179-2.062a18.986,18.986,0,0,1-6.942-5.81q-2.7-3.684-2.7-9.809v-1.749a18.033,18.033,0,0,1,5.529-13.494q5.528-5.373,16.2-5.374,10.928,0,16.393,5.124t5.464,13.744v5.372h-11.828v-5.247a9.159,9.159,0,0,0-2.379-6.685q-2.38-2.437-7.65-2.436-5.143,0-7.522,2.561a8.916,8.916,0,0,0-2.378,6.31v1.249a7.628,7.628,0,0,0,.513,2.811,6.479,6.479,0,0,0,1.543,2.312,15.394,15.394,0,0,0,5.208,3.374q3.277,1.375,7.008,2.749,2.184.875,4.37,1.811t4.372,2.061a20.857,20.857,0,0,1,7.071,6.061q2.829,3.813,2.83,10.308v2.624q0,9.248-5.722,14.619t-16.908,5.373Q1554.137,905.835,1548.546,900.9Z" fill="#fff"/>
      <path d="M1603.509,903.9q-1.8-1.937-1.8-7.06t1.928-6.934q1.929-1.811,6.043-1.812t6.108,1.812q1.992,1.814,1.992,6.934,0,5-1.992,7t-6.108,2Q1605.309,905.835,1603.509,903.9Z" fill="#fff"/>
    </g>
    <g>
      <g>
        <path d="M488.916,721.575H380.925V576.544H488.294v39.885H428.6v11.682h57.83V668.2H428.6v11.482h60.317Z" fill="#fff"/>
        <path d="M603.406,688.943a52.384,52.384,0,0,1-2.073,9.568,56.328,56.328,0,0,1-3.523,8.561,32.14,32.14,0,0,1-11.711,12.79q-7.571,4.731-19.588,4.734a61.2,61.2,0,0,1-15.028-1.711,36.363,36.363,0,0,1-11.5-4.936q-9.95-6.845-14.2-21.251t-4.25-37.365V638.787a92.828,92.828,0,0,1,2.073-20.445,63.542,63.542,0,0,1,6.012-16.417,51.038,51.038,0,0,1,23.111-21.452q14.817-6.949,34.719-6.95,30.47,0,45.7,14.2t15.234,42.8v2.014H599.468v-.4q0-9.465-3.109-12.891t-9.742-3.425q-8.085,0-11.4,5.741T571.9,641v16.114q0,5.439.415,9.669a61.152,61.152,0,0,0,1.035,7.049q1.449,5.845,4.872,7.958a16.521,16.521,0,0,0,8.809,2.114,12.345,12.345,0,0,0,8.913-3.625q3.732-3.625,4.56-10.072H584.543V642.816H647.35v78.759H607.137Z" fill="#fff"/>
        <path d="M745.361,669.2,735,683.907v37.668H687.324V576.544H735v43.107l30.676-43.107h56.172l-41.87,56.6,42.078,88.429H768.161Z" fill="#fff"/>
        <path d="M930.833,703.245H891.242l-5.182,18.33H837.351l49.124-145.031h48.918L985.14,721.575H936.222Zm-20.106-68.689-8.914,31.424h18.034Z" fill="#fff"/>
      </g>
      <path d="M243.174,655.146l-22.36,66.43H175.668L138.749,566.893l50.55,11.361,15.118,67.786,19.12-62.106,22.894-.039,21.453-.037L283.636,647.9l17.327-69.649,53.15-11.361L308.765,721.576H262.127Z" fill="#fff"/>
      <polygon points="1216.59 677.865 1216.521 677.865 1216.521 620.256 1216.59 620.256 1216.59 576.544 1168.43 576.544 1168.43 620.256 1168.432 620.256 1168.432 677.865 1168.43 677.865 1168.43 721.575 1216.59 721.575 1216.59 677.865" fill="#fff"/>
      <path d="M1058.307,681.692v39.883h-47.673V576.544H1072.4q32.127,0,47.156,14t15.027,38.17q0,24.777-14.924,38.876t-47.052,14.1Zm0-65.869v25.986h12.851q6.423,0,10.468-3.022t4.042-9.87q0-7.049-3.939-10.071t-10.571-3.023Z" fill="#fff"/>
      <path d="M1331.324,620.658V721.575h-48.088V620.658h-34.2V576.544H1365.11v44.114Z" fill="#fff"/>
      <path d="M1505.85,721.575H1397.859V576.544h107.369v39.885h-59.7v11.682h57.831V668.2h-57.831v11.482h60.318Z" fill="#fff"/>
      <polygon points="1604.102 677.865 1604.082 677.865 1604.082 620.256 1604.102 620.256 1604.102 576.544 1555.942 576.544 1555.942 620.256 1555.993 620.256 1555.993 677.865 1555.942 677.865 1555.942 721.575 1604.102 721.575 1604.102 677.865" fill="#fff"/>
      <path d="M1693.572,652.282v69.293h-44.979V576.544h45.394l42.284,67.883V576.544h44.98V721.575H1737.1Z" fill="#fff"/>
    </g>
    <g>
      <g>
        <g>
          <polygon points="740.204 171.136 765.549 263.072 695.138 356.727 750.808 397.695 765.549 492.483 650.073 417.731 631.511 320.711 740.204 171.136" fill="#eec22a"/>
          <path d="M755.564,388.826l-46.939-32L772.57,264.9l2.115-9.905-19.138-101.1-23.621-5L622.982,306.685l-.017-.008-6.692,9.751,1.133,5.514.083.389,18.079,102.412,5.515,8.535,119.48,81.449,20.224-13.242-19.738-104.28Zm-16.255,34.219L651.24,363.01l-2.736-15.5,34.471,23.5h0l53.371,36.381Zm-52.3-80.953-7.814-5.327,66.24-95.629,2.523,13.328Zm48.658-152.559,2.937,15.513-81.031,116.98-9.1-6.2ZM660.377,414.764,657.6,399.011l88.6,60.393,3.013,15.913Z" fill="#fff"/>
        </g>
        <g>
          <polygon points="1179.796 168.156 1154.451 260.092 1224.862 353.746 1169.192 394.715 1154.451 489.502 1269.927 414.751 1288.489 317.731 1179.796 168.156" fill="#eec22a"/>
          <path d="M1158.951,394.225,1139.213,498.5l20.224,13.242,119.48-81.448,5.515-8.536,18.079-102.411.083-.39,1.133-5.513-6.692-9.752-.017.008L1188.074,145.912l-23.621,5-19.138,101.1,2.115,9.905,63.945,91.934-46.939,32Zm24.7,10.189,53.371-36.381h0l34.471-23.5-2.736,15.495-88.069,60.034Zm-11.607-152.93,2.523-13.328,66.24,95.629-7.814,5.327Zm99.485,61.359-9.1,6.2L1181.4,202.066l2.937-15.513ZM1170.8,472.337l3.013-15.913,88.6-60.394-2.781,15.754Z" fill="#fff"/>
        </g>
      </g>
      <polygon points="1035.791 296.193 1014.469 391.8 987.502 304.205 961.366 304.159 935.23 304.205 908.263 391.8 886.941 296.193 815.644 280.17 867.716 498.336 931.39 498.336 961.366 404.915 991.342 498.336 1055.016 498.336 1107.088 280.17 1035.791 296.193" fill="#fff"/>
    </g>
  </g>
</svg>
