<svg xmlns="http://www.w3.org/2000/svg" xmlns:xlink="http://www.w3.org/1999/xlink" width="1920" height="746.594" viewBox="0 0 1920 746.594">
  <defs>
    <clipPath id="a">
      <rect x="2006.874" width="640" height="1080" fill="none"/>
    </clipPath>
  </defs>
  <g clip-path="url(#a)">
    <image width="2320" height="1480" transform="translate(1480.387) scale(0.73)" xlink:href="../../../../../Dropbox/Little%20Sister%20Studio/internal/lss_website/HERO%20BANNERS/Boiler-Maker_branding_logo-print-poster.jpg"/>
  </g>
  <g>
    <path d="M649.915,267.058c0-75.606-51.475-131.793-139.828-131.793H310.777V603.554h199.31c88.353,0,139.828-56.188,139.828-131.793,0-48.153-22.061-84.294-58.176-102.352C627.2,352.034,649.915,315.892,649.915,267.058Z" fill="#d9861c"/>
    <path d="M778.175,339.579c12.425,18.029,34.236,28.549,60.043,28.549,46.734,0,79.388-35.111,79.388-85.389s-32.654-85.37-79.388-85.37c-25.365,0-46.809,10.565-60.043,29.267V137.8H754.136V364.317h24.039Zm-1.27-56.84c0-38.019,22.824-62.592,58.147-62.592,34.42,0,57.557,25.153,57.557,62.592s-23.137,62.61-57.557,62.61C799.729,345.349,776.905,320.776,776.905,282.739Z" fill="#d9861c"/>
    <path d="M1105.593,282.739c0-49.468-35.911-85.37-85.37-85.37s-85.37,35.9-85.37,85.37,35.911,85.389,85.37,85.389S1105.593,332.216,1105.593,282.739Zm-25,0c0,37.071-24.26,61.985-60.374,61.985-36.317,0-60.7-24.914-60.7-61.985s24.388-61.966,60.7-61.966C1056.337,220.773,1080.6,245.677,1080.6,282.739Z" fill="#d9861c"/>
    <rect x="1135.522" y="201.179" width="24.039" height="163.138" fill="#d9861c"/>
    <path d="M1147.707,175.465c11.818,0,20.082-8.265,20.082-20.1s-8.264-20.1-20.082-20.1c-11.835,0-20.1,8.264-20.1,20.1S1135.872,175.465,1147.707,175.465Z" fill="#d9861c"/>
    <rect x="1202.743" y="137.796" width="24.647" height="226.522" fill="#d9861c"/>
    <path d="M1340.757,368.128c24.793,0,46.366-9.415,64.129-27.988l1.288-1.362-12.829-19.272L1391.3,321.7c-14.78,15.912-31.53,23.652-51.189,23.652-33.721,0-56.95-22.695-57.833-56.444h133.08v-8.062c0-50.71-30.279-83.474-77.161-83.474-47.268,0-80.29,35.5-80.29,86.327C1257.908,334.2,1291.206,368.128,1340.757,368.128Zm-57.245-99.452c4.326-30.444,24.739-48.529,55.017-48.529,29.23,0,48.152,18.085,51.005,48.529Z" fill="#d9861c"/>
    <path d="M1514.81,197.369c-21.628,0-37.825,9.387-47.379,27.315v-23.5H1444V364.317h24.039V289.089c0-44.489,15.627-67.046,46.44-67.046a69.507,69.507,0,0,1,15.314,1.85l2.872.635V199.016l-1.951-.34A88.972,88.972,0,0,0,1514.81,197.369Z" fill="#d9861c"/>
    <path d="M945.326,435.156c-28.733,0-49.348,12.737-61.349,37.89-8.357-24.831-27.224-37.89-54.944-37.89-23.874,0-43.109,10.611-53.4,28.907V438.957H752.222V602.1h24.039v-75.55c0-31.31,8.725-68.629,50.25-68.629,26.892,0,41.691,16.943,41.691,47.71V602.1h24.352v-76.82c0-30.73,8.891-67.359,51.208-67.359,33.905,0,41.028,25.428,41.028,46.762V602.1h24.37V507.531C1009.16,460.86,986.483,435.156,945.326,435.156Z" fill="#d9861c"/>
    <path d="M1106.4,435.156c-35.819,0-58.4,13.749-65.344,39.767l-.478,1.813,21.83,11.532.644-3.055c3.9-18.527,18.812-27.914,44.287-27.914,26.192,0,39.482,10.933,39.482,32.5v5.384c0,2.439-.442,4.325-6.111,4.629l-52.257,5.071c-33.113,2.982-52.864,21.748-52.864,50.2,0,30.684,21.7,50.508,55.276,50.508,24.278,0,44.194-9.857,55.956-27.371V602.1h24.039V495.5C1170.863,455.458,1149.18,435.156,1106.4,435.156Zm40.421,86.1v10.694c0,28.825-22.7,50.554-52.772,50.554-21.26,0-33.463-9.884-33.463-27.122,0-15.766,11.246-25.99,30.849-28.07Z" fill="#d9861c"/>
    <polygon points="1340.72 438.957 1306.796 438.957 1226.819 521.676 1226.819 375.582 1202.78 375.582 1202.78 602.104 1226.819 602.104 1226.819 553.51 1253.067 527.272 1309.41 601.175 1310.128 602.104 1341.493 602.104 1269.431 510.568 1340.72 438.957" fill="#d9861c"/>
    <path d="M1429.882,435.156c-47.269,0-80.29,35.5-80.29,86.327,0,50.5,33.3,84.431,82.848,84.431,24.463,0,46.643-9.682,64.129-27.987l1.289-1.362-12.848-19.272-2.025,2.19c-14.762,15.913-31.512,23.653-51.189,23.653-33.721,0-56.95-22.7-57.834-56.453h133.081V518.63C1507.043,467.919,1476.764,435.156,1429.882,435.156Zm-54.686,71.3c4.362-30.445,24.757-48.529,55.036-48.529,29.211,0,48.133,18.084,50.986,48.529Z" fill="#d9861c"/>
    <path d="M1622.416,436.453a90.964,90.964,0,0,0-15.941-1.3c-21.646,0-37.844,9.4-47.4,27.315V438.957h-23.413V602.1h24.058V526.876c0-44.5,15.627-67.055,46.44-67.055a69.168,69.168,0,0,1,15.332,1.859l2.872.635V436.794Z" fill="#d9861c"/>
  </g>
</svg>
